<svg class="svg-icon" style="width: 1em;height: 1em;vertical-align: middle;fill: currentColor;overflow: hidden;" viewBox="0 0 1024 1024" version="1.1" xmlns="http://www.w3.org/2000/svg"><path d="M967.68 210.944c-33.792-61.44-95.232-81.92-138.24-81.92-54.272-2.048-97.28 28.672-88.064 49.152 2.048 3.072 12.288 25.6 18.432 33.792 8.192 12.288 25.6 3.072 30.72 0 17.408-8.192 33.792-12.288 54.272-8.192 20.48 2.048 44.032 13.312 61.44 46.08 38.912 76.8-84.992 238.592-241.664 125.952s-308.224-73.728-375.808-53.248c-68.608 22.528-100.352 44.032-73.728 97.28 37.888 69.632 25.6 49.152 61.44 107.52 58.368 92.16 182.272-43.008 182.272-43.008C364.544 620.544 286.72 588.8 256 540.672c-27.648-43.008-49.152-93.184-49.152-93.184C-26.624 530.432 35.84 894.976 35.84 894.976H153.6c30.72-134.144 136.192-129.024 154.624 0h88.064c79.872-262.144 279.552 0 279.552 0h115.712c-32.768-180.224 64.512-236.544 125.952-340.992 56.32-101.376 114.688-231.424 50.176-343.04zM667.648 556.032c-61.44-20.48-38.912-81.92-38.912-81.92s54.272 18.432 125.952 40.96c-5.12 20.48-43.008 56.32-87.04 40.96z" fill="#74B8C4" /></svg>