<?xml version="1.0" encoding="UTF-8" standalone="no"?>
<svg
   version="1.1"
   width="1024"
   height="1024"
   viewBox="0 0 1024 1024"
   xml:space="preserve"
   id="svg29"
   sodipodi:docname="mooltiverse-symbol-color-gradient-transparent.svg"
   inkscape:version="1.4.3 (0d15f75, 2025-12-25)"
   xmlns:inkscape="http://www.inkscape.org/namespaces/inkscape"
   xmlns:sodipodi="http://sodipodi.sourceforge.net/DTD/sodipodi-0.dtd"
   xmlns="http://www.w3.org/2000/svg"
   xmlns:svg="http://www.w3.org/2000/svg"><sodipodi:namedview
   id="namedview29"
   pagecolor="#ffffff"
   bordercolor="#000000"
   borderopacity="0.25"
   inkscape:showpageshadow="2"
   inkscape:pageopacity="0.0"
   inkscape:pagecheckerboard="0"
   inkscape:deskcolor="#d1d1d1"
   inkscape:zoom="0.88623046"
   inkscape:cx="124.6854"
   inkscape:cy="334.56309"
   inkscape:window-width="3840"
   inkscape:window-height="2054"
   inkscape:window-x="3829"
   inkscape:window-y="-11"
   inkscape:window-maximized="1"
   inkscape:current-layer="g29" />
<desc
   id="desc1">Created with Fabric.js 5.3.0</desc>
<defs
   id="defs1">
</defs>

<g
   transform="matrix(4.7928941,0,0,4.7928941,510.58632,512)"
   id="logo-logo"
   inkscape:label="logo">
<g
   paint-order="stroke"
   id="g29">
		
		
		
		
		
		
		
		<g
   transform="matrix(0.14556433,0,0,-0.14556433,-23.69987,53.845262)"
   id="g22">
<linearGradient
   id="SVGID_2_82015"
   gradientUnits="userSpaceOnUse"
   gradientTransform="matrix(224.203,214.164,214.164,-224.203,262.583,103.37)"
   x1="0"
   y1="0"
   x2="1"
   y2="0">
<stop
   offset="0"
   style="stop-color:#035fd8;stop-opacity:1;"
   id="stop21" />
<stop
   offset="1"
   style="stop-color:#023e8a;stop-opacity:1;"
   id="stop22" />
</linearGradient>
<path
   style="opacity:1;fill:url(#SVGID_2_82015);fill-rule:nonzero;stroke:none;stroke-width:1;stroke-linecap:butt;stroke-linejoin:miter;stroke-miterlimit:4;stroke-dasharray:none;stroke-dashoffset:0"
   paint-order="stroke"
   transform="translate(-480.16001,-272.3535)"
   d="M 501.949,78.6992 C 596.516,5.01953 766.57,-10.8398 952.488,77.7109 861.145,28.1094 756.328,0 645.098,0 322.852,0 55.8164,236.109 7.83203,544.707 62.6406,389.109 253.785,468.418 325.461,427.461 447.133,357.988 347.949,198.16 501.949,78.6992"
   stroke-linecap="round"
   id="path22" />
</g>
		<g
   transform="matrix(0.14556433,0,0,-0.14556433,0.29495254,31.656353)"
   id="g24">
<linearGradient
   id="SVGID_3_82016"
   gradientUnits="userSpaceOnUse"
   gradientTransform="matrix(167.315,244.28,244.28,-167.315,427.001,301.823)"
   x1="0.10803567"
   y1="0.15773214"
   x2="1"
   y2="0">
<stop
   offset="0"
   style="stop-color:#4361ee;stop-opacity:1;"
   id="stop23" />
<stop
   offset="1"
   style="stop-color:#132e9c;stop-opacity:1;"
   id="stop24" />
</linearGradient>
<path
   style="opacity:1;fill:url(#SVGID_3_82016);fill-rule:nonzero;stroke:none;stroke-width:1;stroke-linecap:butt;stroke-linejoin:miter;stroke-miterlimit:4;stroke-dasharray:none;stroke-dashoffset:0"
   paint-order="stroke"
   transform="translate(-645,-427.52672)"
   d="M 1290,645.098 C 1290,400.559 1154.07,187.93 953.691,78.5117 c -0.398,-0.4023 -0.8,-0.6133 -1.203,-0.8008 C 766.57,-10.8398 596.516,5.01953 501.949,78.6992 347.949,198.16 447.133,357.988 325.461,427.461 253.785,468.418 62.6406,389.109 7.83203,544.707 7.63281,544.91 7.63281,544.91 7.63281,545.117 2.61328,577.637 0,611.172 0,645.098 0,712.156 10.2383,777.012 29.3164,837.848 11.043,736.855 36.7422,636.465 121.07,607.961 235.914,569.211 371.84,668.188 464.398,597.313 547.117,533.672 459.379,328.074 630.844,220.859 885.43,61.4414 1303.45,401.152 1276.35,777.613 1285.38,734.848 1290,690.473 1290,645.098"
   stroke-linecap="round"
   id="path24" />
</g>
		<g
   transform="matrix(0.14556433,0,0,-0.14556433,1.1211268,-8.6350819)"
   id="g26">
<linearGradient
   id="SVGID_4_82017"
   gradientUnits="userSpaceOnUse"
   gradientTransform="matrix(1253.86,0,0,-1253.86,23.7449,707.06)"
   x1="0.12189429"
   y1="0.34117499"
   x2="0.72267437"
   y2="-0.3818064">
<stop
   offset="0"
   style="stop-color:#04f4ff;stop-opacity:1;"
   id="stop25" />
<stop
   offset="1"
   style="stop-color:#128ebf;stop-opacity:1;"
   id="stop26" />
</linearGradient>
<path
   style="opacity:1;fill:url(#SVGID_4_82017);fill-rule:nonzero;stroke:none;stroke-width:1;stroke-linecap:butt;stroke-linejoin:miter;stroke-miterlimit:4;stroke-dasharray:none;stroke-dashoffset:0"
   paint-order="stroke"
   transform="translate(-650.67566,-707.06094)"
   d="m 1052.68,481.465 c 62.04,81.719 105.81,189.734 111.83,296.555 11.85,207 -118.46,375.85 -255.389,455.56 185.519,-83.32 324.459,-251.572 367.229,-455.56 0,0 0,-0.204 0,-0.407 C 1303.45,401.152 885.43,61.4414 630.844,220.859 459.379,328.074 547.117,533.672 464.398,597.313 371.84,668.188 235.914,569.211 121.07,607.961 36.7422,636.465 11.043,736.855 29.3164,837.848 c 19.875,63.847 49.5899,123.277 86.7346,176.682 -45.7776,-107.417 -5.223,-210.612 55.414,-236.51 15.859,-6.829 33.129,-10.649 51.195,-12.254 105.012,-10.438 241.539,45.175 342.93,-34.532 125.289,-98.785 35.742,-314.625 202.39,-377.257 98.172,-36.946 205.997,24.089 284.7,127.488"
   stroke-linecap="round"
   id="path26" />
</g>
		<g
   transform="matrix(0.14556433,0,0,-0.14556433,-1.7696577,-34.643289)"
   id="g28">
<linearGradient
   id="SVGID_5_82018"
   gradientUnits="userSpaceOnUse"
   gradientTransform="matrix(1068.89,0,0,-1068.89,96.3715,885.733)"
   x1="0.18989401"
   y1="0.3601177"
   x2="0.87592584"
   y2="-0.3691963">
<stop
   offset="0"
   style="stop-color:#520084;stop-opacity:1;"
   id="stop27" />
<stop
   offset="1"
   style="stop-color:#9800f4;stop-opacity:1;"
   id="stop28" />
</linearGradient>
<path
   style="opacity:1;fill:url(#SVGID_5_82018);fill-rule:nonzero;stroke:none;stroke-width:1;stroke-linecap:butt;stroke-linejoin:miter;stroke-miterlimit:4;stroke-dasharray:none;stroke-dashoffset:0"
   paint-order="stroke"
   transform="translate(-630.81651,-885.7325)"
   d="m 1164.51,778.02 c -6.02,-106.821 -49.79,-214.836 -111.83,-296.555 20.28,50.398 31.52,105.605 31.52,163.633 0,242.543 -196.563,439.102 -439.102,439.102 -200.778,0 -370.032,-134.516 -422.438,-318.434 -18.066,1.605 -35.336,5.425 -51.195,12.254 -60.637,25.898 -101.1916,129.093 -55.414,236.51 116.855,166.65 310.199,275.47 529.047,275.47 94.172,0 183.515,-20.08 264.023,-56.42 136.929,-79.71 267.239,-248.56 255.389,-455.56"
   stroke-linecap="round"
   id="path28" />
</g>
</g>
</g>
</svg>
