<?xml version="1.0" ?><!DOCTYPE svg  PUBLIC '-//W3C//DTD SVG 1.1//EN'  'http://www.w3.org/Graphics/SVG/1.1/DTD/svg11.dtd'><svg enable-background="new 0 0 512 512" id="Layer_1" version="1.1" viewBox="0 0 512 512" xml:space="preserve" xmlns="http://www.w3.org/2000/svg" xmlns:xlink="http://www.w3.org/1999/xlink"><g><path d="M257.2,6.1c137.8,0,248.9,112.6,248.3,252.7c-0.6,137.9-112,250.5-251.4,249   C117.9,506.3,7.2,394.4,8.5,254.4C9.8,117.2,119.9,6.4,257.2,6.1z M257.1,25.9c-124.2-0.4-227.7,100.8-229,228.6   c-1.3,130.2,102.6,232.5,226.4,233.8c125.9,1.3,230.7-100.6,231.4-229.2C486.5,129.5,384.3,25.9,257.1,25.9z" fill="#F27127"/><path d="M122.9,130.9c0-7.3,0.2-14.7-0.1-22c-0.2-3.8,0.8-5.1,4.9-5c24,0.4,47.5,3.9,70.4,10.8   c73.9,22.2,129.2,67.8,166.5,135c22.5,40.6,33.5,84.5,34.6,131c0.1,4.5-1.1,5.6-5.5,5.5c-14.3-0.3-28.7-0.2-43,0   c-3.7,0.1-4.7-0.9-4.8-4.7c-1.6-57.3-21-107.7-59.5-150.3c-32.9-36.4-73.7-59.6-122-69.1c-12.3-2.4-24.7-4-37.2-3.9   c-3.3,0-4.3-1-4.2-4.2C123,146.2,122.9,138.5,122.9,130.9z" fill="#F27025"/><path d="M278.2,386c-7.3,0-14.7-0.2-22,0.1c-3.6,0.1-4.3-1.2-4.5-4.5c-1.9-42.4-19.5-76.9-53.4-102.6   c-20.8-15.8-44.4-23.8-70.4-24.8c-4.1-0.2-5.2-1.3-5.2-5.4c0.3-14.7,0.2-29.3,0-44c-0.1-3.9,1-5.1,5-4.9c43.8,1.6,82.1,17,114.8,46   c24,21.3,41.2,47.3,51.9,77.5c6.7,18.8,10.1,38.2,10.6,58.2c0.1,3.4-0.8,4.7-4.4,4.5C293.2,385.8,285.7,386,278.2,386z" fill="#F27025"/><path d="M122.8,348.1c0-21,16.1-37.2,36.8-37.1c20.5,0.1,36.6,16.6,36.6,37.5c0,20.6-16.7,37.5-36.9,37.3   C138.8,385.7,122.8,369,122.8,348.1z" fill="#F27025"/></g></svg>