<svg xmlns="http://www.w3.org/2000/svg" xmlns:xlink="http://www.w3.org/1999/xlink" xmlns:lucid="lucid" width="189" height="462"><g transform="translate(230 471)" lucid:page-tab-id="0_0"><path d="M-231.76-530c0-3.3 2.7-6 6-6h304c3.3 0 6 2.7 6 6V-7.63c0 3.32-2.7 6-6 6h-304c-3.3 0-6-2.68-6-6z" stroke="#5e5e5e" stroke-width="3" fill-opacity="0"/><path d="M-231.76-474.67h316" stroke="#5e5e5e" stroke-width="3" fill="none"/><use xlink:href="#a" transform="matrix(1,0,0,1,-207.759366744768,-520) translate(0 25.22222222222222)"/><use xlink:href="#b" transform="matrix(1,0,0,1,-207.759366744768,-520) translate(124.09876543209876 25.22222222222222)"/><path d="M-178.4-439.56c0 8.56-6.93 15.5-15.5 15.5-8.55 0-15.5-6.94-15.5-15.5 0-8.56 6.95-15.5 15.5-15.5 8.57 0 15.5 6.94 15.5 15.5z" fill-opacity="0"/><path d="M-180.7-431.5l-2.23 2.9-2.9 2.22m-4.45 1.85l-3.6.47-3.62-.47m-4.46-1.85l-2.9-2.22-2.2-2.9m-1.85-4.45l-.5-3.6.5-3.62m1.84-4.46l2.2-2.9 2.9-2.2m4.46-1.85l3.6-.48 3.62.48m4.46 1.84l2.9 2.22 2.2 2.9m1.86 4.45l.47 3.6-.46 3.62" stroke="#5e5e5e" stroke-width="3" fill="none"/><use xlink:href="#c" transform="matrix(1,0,0,1,-197.38669645252236,-443.0576863698279) translate(-3.9074074074074083 10.666666666666668)"/><path d="M-178.4-293.53c0-3.32 2.7-6 6-6h85.95c3.3 0 6 2.68 6 6v44c0 3.32-2.7 6-6 6h-85.94c-3.3 0-6-2.68-6-6z" fill="none"/><use xlink:href="#d" transform="matrix(1,0,0,1,-166.3866964525201,-287.5326863698279) translate(0 11.166666666666668)"/><use xlink:href="#e" transform="matrix(1,0,0,1,-166.3866964525201,-287.5326863698279) translate(40.70370370370371 11.166666666666668)"/><use xlink:href="#f" transform="matrix(1,0,0,1,-166.3866964525201,-287.5326863698279) translate(0 27.166666666666668)"/><use xlink:href="#g" transform="matrix(1,0,0,1,-166.3866964525201,-287.5326863698279) translate(51.03703703703704 27.166666666666668)"/><path d="M-178.4-405.55c0-3.32 2.7-6 6-6h92.7c3.3 0 6 2.68 6 6v44c0 3.32-2.7 6-6 6h-92.7c-3.3 0-6-2.68-6-6z" fill="none"/><use xlink:href="#h" transform="matrix(1,0,0,1,-166.3866964525224,-399.5526863698279) translate(0 11.166666666666668)"/><use xlink:href="#i" transform="matrix(1,0,0,1,-166.3866964525224,-399.5526863698279) translate(40.70370370370371 11.166666666666668)"/><use xlink:href="#j" transform="matrix(1,0,0,1,-166.3866964525224,-399.5526863698279) translate(0 27.166666666666668)"/><use xlink:href="#k" transform="matrix(1,0,0,1,-166.3866964525224,-399.5526863698279) translate(51.03703703703704 27.166666666666668)"/><path d="M-178.4-349.54c0-3.32 2.7-6 6-6h92.7c3.3 0 6 2.68 6 6v44c0 3.32-2.7 6-6 6h-92.7c-3.3 0-6-2.68-6-6z" fill="none"/><use xlink:href="#l" transform="matrix(1,0,0,1,-166.3866964525224,-343.5426863698279) translate(0 11.166666666666668)"/><use xlink:href="#m" transform="matrix(1,0,0,1,-166.3866964525224,-343.5426863698279) translate(40.70370370370371 11.166666666666668)"/><use xlink:href="#j" transform="matrix(1,0,0,1,-166.3866964525224,-343.5426863698279) translate(0 27.166666666666668)"/><use xlink:href="#n" transform="matrix(1,0,0,1,-166.3866964525224,-343.5426863698279) translate(51.03703703703704 27.166666666666668)"/><path d="M-178.4-461.56c0-3.32 2.7-6 6-6h99c3.3 0 6 2.68 6 6v44c0 3.32-2.7 6-6 6h-99c-3.3 0-6-2.68-6-6z" fill="none"/><use xlink:href="#o" transform="matrix(1,0,0,1,-166.38669645252233,-455.5626863698279) translate(0 11.166666666666668)"/><use xlink:href="#p" transform="matrix(1,0,0,1,-166.38669645252233,-455.5626863698279) translate(39.40740740740741 11.166666666666668)"/><use xlink:href="#j" transform="matrix(1,0,0,1,-166.38669645252233,-455.5626863698279) translate(0 27.166666666666668)"/><use xlink:href="#g" transform="matrix(1,0,0,1,-166.38669645252233,-455.5626863698279) translate(51.03703703703704 27.166666666666668)"/><path d="M-178.4-383.55c0 8.56-6.93 15.5-15.5 15.5-8.55 0-15.5-6.94-15.5-15.5 0-8.56 6.95-15.5 15.5-15.5 8.57 0 15.5 6.94 15.5 15.5z" stroke="#5e5e5e" stroke-width="3" fill="#5e5e5e"/><use xlink:href="#q" transform="matrix(1,0,0,1,-197.38669645252236,-387.0476863698279) translate(-3.9074074074074083 10.666666666666668)"/><path d="M-193.9-422.04v5.1" stroke="#5e5e5e" fill="none"/><path d="M-193.9-422.54l.5-.07v.57h-1v-.58z" fill="#5e5e5e"/><path d="M-193.9-402.18l-4.62-14.26h9.27z" stroke="#5e5e5e" fill="#5e5e5e"/><path d="M-178.4-327.54c0 8.56-6.93 15.5-15.5 15.5-8.55 0-15.5-6.94-15.5-15.5 0-8.56 6.95-15.5 15.5-15.5 8.57 0 15.5 6.94 15.5 15.5z" stroke="#5e5e5e" stroke-width="3" fill="#5e5e5e"/><use xlink:href="#r" transform="matrix(1,0,0,1,-197.38669645252236,-331.0376863698279) translate(-3.9074074074074083 10.666666666666668)"/><path d="M-193.9-366.03v5.1" stroke="#5e5e5e" fill="none"/><path d="M-193.9-366.53l.5-.07v.58h-1v-.58z" fill="#5e5e5e"/><path d="M-193.9-346.17l-4.62-14.26h9.27z" stroke="#5e5e5e" fill="#5e5e5e"/><path d="M-178.4-272.9c0 8.55-6.93 15.5-15.5 15.5-8.55 0-15.5-6.95-15.5-15.5 0-8.57 6.95-15.5 15.5-15.5 8.57 0 15.5 6.93 15.5 15.5z" fill-opacity="0"/><path d="M-180.7-264.84l-2.23 2.9-2.9 2.2m-4.45 1.86l-3.6.47-3.62-.48m-4.46-1.85l-2.9-2.22-2.2-2.9m-1.85-4.45l-.5-3.6.5-3.62m1.84-4.46l2.2-2.9 2.9-2.2m4.46-1.85l3.6-.48 3.62.47m4.46 1.85l2.9 2.2 2.2 2.9m1.86 4.46l.47 3.6-.46 3.62" stroke="#5e5e5e" stroke-width="3" fill="none"/><use xlink:href="#s" transform="matrix(1,0,0,1,-197.38669645252122,-276.40643636982793) translate(-3.9074074074074083 10.666666666666668)"/><path d="M-178.4-237.42c0-3.3 2.7-6 6-6h92.7c3.3 0 6 2.7 6 6v44c0 3.33-2.7 6-6 6h-92.7c-3.3 0-6-2.67-6-6z" fill="none"/><use xlink:href="#h" transform="matrix(1,0,0,1,-166.38669645252148,-231.41856177387405) translate(0 11.166666666666668)"/><use xlink:href="#i" transform="matrix(1,0,0,1,-166.38669645252148,-231.41856177387405) translate(40.70370370370371 11.166666666666668)"/><use xlink:href="#j" transform="matrix(1,0,0,1,-166.38669645252148,-231.41856177387405) translate(0 27.166666666666668)"/><use xlink:href="#t" transform="matrix(1,0,0,1,-166.38669645252148,-231.41856177387405) translate(51.03703703703704 27.166666666666668)"/><path d="M-178.4-181.4c0-3.32 2.7-6 6-6h92.7c3.3 0 6 2.68 6 6v44c0 3.32-2.7 6-6 6h-92.7c-3.3 0-6-2.68-6-6z" fill="none"/><use xlink:href="#l" transform="matrix(1,0,0,1,-166.38669645252148,-175.408561773874) translate(0 11.166666666666668)"/><use xlink:href="#u" transform="matrix(1,0,0,1,-166.38669645252148,-175.408561773874) translate(40.70370370370371 11.166666666666668)"/><use xlink:href="#j" transform="matrix(1,0,0,1,-166.38669645252148,-175.408561773874) translate(0 27.166666666666668)"/><use xlink:href="#v" transform="matrix(1,0,0,1,-166.38669645252148,-175.408561773874) translate(51.03703703703704 27.166666666666668)"/><path d="M-178.4-125.4c0-3.3 2.7-6 6-6h92.7c3.3 0 6 2.7 6 6v44c0 3.33-2.7 6-6 6h-92.7c-3.3 0-6-2.67-6-6z" fill="none"/><use xlink:href="#l" transform="matrix(1,0,0,1,-166.3866964525224,-119.39856177387401) translate(0 11.166666666666668)"/><use xlink:href="#w" transform="matrix(1,0,0,1,-166.3866964525224,-119.39856177387401) translate(40.70370370370371 11.166666666666668)"/><use xlink:href="#x" transform="matrix(1,0,0,1,-166.3866964525224,-119.39856177387401) translate(0 27.166666666666668)"/><use xlink:href="#y" transform="matrix(1,0,0,1,-166.3866964525224,-119.39856177387401) translate(51.03703703703704 27.166666666666668)"/><path d="M-178.4-215.4c0 8.55-6.93 15.5-15.5 15.5-8.55 0-15.5-6.95-15.5-15.5 0-8.57 6.95-15.5 15.5-15.5 8.57 0 15.5 6.93 15.5 15.5z" stroke="#5e5e5e" stroke-width="3" fill="#5e5e5e"/><use xlink:href="#z" transform="matrix(1,0,0,1,-197.38669645252122,-218.91356177387405) translate(-3.9074074074074083 10.666666666666668)"/><path d="M-178.4-159.4c0 8.56-6.93 15.5-15.5 15.5-8.55 0-15.5-6.94-15.5-15.5 0-8.56 6.95-15.5 15.5-15.5 8.57 0 15.5 6.94 15.5 15.5z" stroke="#5e5e5e" stroke-width="3" fill="#5e5e5e"/><use xlink:href="#A" transform="matrix(1,0,0,1,-197.38669645252122,-162.903561773874) translate(-3.9074074074074083 10.666666666666668)"/><path d="M-193.9-197.9v5.1" stroke="#5e5e5e" fill="none"/><path d="M-193.9-198.4l.5-.07v.58h-1v-.57z" fill="#5e5e5e"/><path d="M-193.9-178.03l-4.62-14.27h9.27z" stroke="#5e5e5e" fill="#5e5e5e"/><path d="M-178.4-103.4c0 8.57-6.93 15.5-15.5 15.5-8.55 0-15.5-6.93-15.5-15.5 0-8.55 6.95-15.5 15.5-15.5 8.57 0 15.5 6.95 15.5 15.5z" stroke="#5e5e5e" stroke-width="3" fill="#5e5e5e"/><g><use xlink:href="#B" transform="matrix(1,0,0,1,-197.38669645252236,-106.89356177387401) translate(-3.9074074074074083 10.666666666666668)"/></g><path d="M-193.9-141.9v5.1" stroke="#5e5e5e" fill="none"/><path d="M-193.9-142.4l.5-.06v.58h-1v-.58z" fill="#5e5e5e"/><path d="M-193.9-122.02l-4.62-14.27h9.27z" stroke="#5e5e5e" fill="#5e5e5e"/><path d="M-193.9-255.4v6.6" stroke="#5e5e5e" fill="none"/><path d="M-193.9-255.9l.5-.06v.58h-1v-.58z" fill="#5e5e5e"/><path d="M-193.9-234.04l-4.62-14.27h9.27z" stroke="#5e5e5e" fill="#5e5e5e"/><path d="M-193.9-310.02v3.72" stroke="#5e5e5e" fill="none"/><path d="M-193.9-310.52l.5-.07v.6h-1v-.6z" fill="#5e5e5e"/><path d="M-193.9-291.54l-4.62-14.26h9.27z" stroke="#5e5e5e" fill="#5e5e5e"/><path d="M-178.4-69.4c0-3.3 2.7-6 6-6h92.7c3.3 0 6 2.7 6 6v44.02c0 3.32-2.7 6-6 6h-92.7c-3.3 0-6-2.68-6-6z" fill="none"/><g><use xlink:href="#l" transform="matrix(1,0,0,1,-166.38669645252125,-63.38856177387402) translate(0 11.166666666666668)"/><use xlink:href="#C" transform="matrix(1,0,0,1,-166.38669645252125,-63.38856177387402) translate(40.70370370370371 11.166666666666668)"/><use xlink:href="#x" transform="matrix(1,0,0,1,-166.38669645252125,-63.38856177387402) translate(0 27.166666666666668)"/><use xlink:href="#D" transform="matrix(1,0,0,1,-166.38669645252125,-63.38856177387402) translate(51.03703703703704 27.166666666666668)"/></g><path d="M-178.4-47.38c0 8.56-6.93 15.5-15.5 15.5-8.55 0-15.5-6.94-15.5-15.5 0-8.56 6.95-15.5 15.5-15.5 8.57 0 15.5 6.94 15.5 15.5z" stroke="#5e5e5e" stroke-width="3" fill="#5e5e5e"/><g><use xlink:href="#E" transform="matrix(1,0,0,1,-197.38669645252122,-50.88356177387402) translate(-3.9074074074074083 10.666666666666668)"/></g><path d="M-193.9-85.88v5.1" stroke="#5e5e5e" fill="none"/><path d="M-193.9-86.38l.5-.07v.58h-1v-.58z" fill="#5e5e5e"/><path d="M-193.9-66l-4.62-14.28h9.27z" stroke="#5e5e5e" fill="#5e5e5e"/><defs><path d="M240 0l2-218c-23 76-54 145-80 218h-23L58-218 59 0H30v-248h44l77 211c21-75 51-140 76-211h43V0h-30" id="F"/><path d="M141-36C126-15 110 5 73 4 37 3 15-17 15-53c-1-64 63-63 125-63 3-35-9-54-41-54-24 1-41 7-42 31l-33-3c5-37 33-52 76-52 45 0 72 20 72 64v82c-1 20 7 32 28 27v20c-31 9-61-2-59-35zM48-53c0 20 12 33 32 33 41-3 63-29 60-74-43 2-92-5-92 41" id="G"/><path d="M24-231v-30h32v30H24zM24 0v-190h32V0H24" id="H"/><path d="M117-194c89-4 53 116 60 194h-32v-121c0-31-8-49-39-48C34-167 62-67 57 0H25l-1-190h30c1 10-1 24 2 32 11-22 29-35 61-36" id="I"/><path d="M24 0v-261h32V0H24" id="J"/><path d="M100-194c63 0 86 42 84 106H49c0 40 14 67 53 68 26 1 43-12 49-29l28 8c-11 28-37 45-77 45C44 4 14-33 15-96c1-61 26-98 85-98zm52 81c6-60-76-77-97-28-3 7-6 17-6 28h103" id="K"/><g id="a"><use transform="matrix(0.08641975308641975,0,0,0.08641975308641975,0,0)" xlink:href="#F"/><use transform="matrix(0.08641975308641975,0,0,0.08641975308641975,25.839506172839506,0)" xlink:href="#G"/><use transform="matrix(0.08641975308641975,0,0,0.08641975308641975,43.123456790123456,0)" xlink:href="#H"/><use transform="matrix(0.08641975308641975,0,0,0.08641975308641975,49.95061728395061,0)" xlink:href="#I"/><use transform="matrix(0.08641975308641975,0,0,0.08641975308641975,67.23456790123456,0)" xlink:href="#J"/><use transform="matrix(0.08641975308641975,0,0,0.08641975308641975,74.06172839506172,0)" xlink:href="#H"/><use transform="matrix(0.08641975308641975,0,0,0.08641975308641975,80.88888888888889,0)" xlink:href="#I"/><use transform="matrix(0.08641975308641975,0,0,0.08641975308641975,98.17283950617283,0)" xlink:href="#K"/></g><path d="M100-194c62-1 85 37 85 99 1 63-27 99-86 99S16-35 15-95c0-66 28-99 85-99zM99-20c44 1 53-31 53-75 0-43-8-75-51-75s-53 32-53 75 10 74 51 75" id="L"/><path d="M179-190L93 31C79 59 56 82 12 73V49c39 6 53-20 64-50L1-190h34L92-34l54-156h33" id="M"/><g id="b"><use transform="matrix(0.08641975308641975,0,0,0.08641975308641975,0,0)" xlink:href="#L"/><use transform="matrix(0.08641975308641975,0,0,0.08641975308641975,17.28395061728395,0)" xlink:href="#I"/><use transform="matrix(0.08641975308641975,0,0,0.08641975308641975,34.5679012345679,0)" xlink:href="#J"/><use transform="matrix(0.08641975308641975,0,0,0.08641975308641975,41.395061728395056,0)" xlink:href="#M"/></g><path fill="#5e5e5e" d="M190-63c-7 42-38 67-86 67-59 0-84-38-90-98-12-110 154-137 174-36l-49 2c-2-19-15-32-35-32-30 0-35 28-38 64-6 74 65 87 74 30" id="N"/><path fill="#5e5e5e" d="M101-251c68 0 84 54 84 127C185-50 166 4 99 4S15-52 14-124c-1-75 17-127 87-127zm-1 216c37-5 36-46 36-89s4-89-36-89c-39 0-36 45-36 89 0 43-3 85 36 89" id="O"/><g id="c"><use transform="matrix(0.03703703703703704,0,0,0.03703703703703704,0,0)" xlink:href="#N"/><use transform="matrix(0.03703703703703704,0,0,0.03703703703703704,7.407407407407408,0)" xlink:href="#O"/></g><path fill="#333" d="M115-194c53 0 69 39 70 98 0 66-23 100-70 100C84 3 66-7 56-30L54 0H23l1-261h32v101c10-23 28-34 59-34zm-8 174c40 0 45-34 45-75 0-40-5-75-45-74-42 0-51 32-51 76 0 43 10 73 51 73" id="P"/><path fill="#333" d="M84 4C-5 8 30-112 23-190h32v120c0 31 7 50 39 49 72-2 45-101 50-169h31l1 190h-30c-1-10 1-25-2-33-11 22-28 36-60 37" id="Q"/><path fill="#333" d="M210-169c-67 3-38 105-44 169h-31v-121c0-29-5-50-35-48C34-165 62-65 56 0H25l-1-190h30c1 10-1 24 2 32 10-44 99-50 107 0 11-21 27-35 58-36 85-2 47 119 55 194h-31v-121c0-29-5-49-35-48" id="R"/><path fill="#333" d="M115-194c55 1 70 41 70 98S169 2 115 4C84 4 66-9 55-30l1 105H24l-1-265h31l2 30c10-21 28-34 59-34zm-8 174c40 0 45-34 45-75s-6-73-45-74c-42 0-51 32-51 76 0 43 10 73 51 73" id="S"/><path fill="#333" d="M33-154v-36h34v36H33zM33 0v-36h34V0H33" id="T"/><g id="d"><use transform="matrix(0.03703703703703704,0,0,0.03703703703703704,0,0)" xlink:href="#P"/><use transform="matrix(0.03703703703703704,0,0,0.03703703703703704,7.407407407407408,0)" xlink:href="#Q"/><use transform="matrix(0.03703703703703704,0,0,0.03703703703703704,14.814814814814817,0)" xlink:href="#R"/><use transform="matrix(0.03703703703703704,0,0,0.03703703703703704,25.888888888888893,0)" xlink:href="#S"/><use transform="matrix(0.03703703703703704,0,0,0.03703703703703704,33.296296296296305,0)" xlink:href="#T"/></g><path fill="#333" d="M190 0L58-211 59 0H30v-248h39L202-35l-2-213h31V0h-41" id="U"/><path fill="#333" d="M0 4l72-265h28L28 4H0" id="V"/><path fill="#333" d="M205 0l-28-72H64L36 0H1l101-248h38L239 0h-34zm-38-99l-47-123c-12 45-31 82-46 123h93" id="W"/><g id="e"><use transform="matrix(0.03703703703703704,0,0,0.03703703703703704,0,0)" xlink:href="#U"/><use transform="matrix(0.03703703703703704,0,0,0.03703703703703704,9.592592592592593,0)" xlink:href="#V"/><use transform="matrix(0.03703703703703704,0,0,0.03703703703703704,13.296296296296298,0)" xlink:href="#W"/></g><path fill="#333" d="M114-163C36-179 61-72 57 0H25l-1-190h30c1 12-1 29 2 39 6-27 23-49 58-41v29" id="X"/><path fill="#333" d="M100-194c63 0 86 42 84 106H49c0 40 14 67 53 68 26 1 43-12 49-29l28 8c-11 28-37 45-77 45C44 4 14-33 15-96c1-61 26-98 85-98zm52 81c6-60-76-77-97-28-3 7-6 17-6 28h103" id="Y"/><path fill="#333" d="M24 0v-261h32V0H24" id="Z"/><path fill="#333" d="M141-36C126-15 110 5 73 4 37 3 15-17 15-53c-1-64 63-63 125-63 3-35-9-54-41-54-24 1-41 7-42 31l-33-3c5-37 33-52 76-52 45 0 72 20 72 64v82c-1 20 7 32 28 27v20c-31 9-61-2-59-35zM48-53c0 20 12 33 32 33 41-3 63-29 60-74-43 2-92-5-92 41" id="aa"/><path fill="#333" d="M135-143c-3-34-86-38-87 0 15 53 115 12 119 90S17 21 10-45l28-5c4 36 97 45 98 0-10-56-113-15-118-90-4-57 82-63 122-42 12 7 21 19 24 35" id="ab"/><g id="f"><use transform="matrix(0.03703703703703704,0,0,0.03703703703703704,0,0)" xlink:href="#X"/><use transform="matrix(0.03703703703703704,0,0,0.03703703703703704,4.407407407407408,0)" xlink:href="#Y"/><use transform="matrix(0.03703703703703704,0,0,0.03703703703703704,11.814814814814817,0)" xlink:href="#Z"/><use transform="matrix(0.03703703703703704,0,0,0.03703703703703704,14.740740740740744,0)" xlink:href="#Y"/><use transform="matrix(0.03703703703703704,0,0,0.03703703703703704,22.148148148148152,0)" xlink:href="#aa"/><use transform="matrix(0.03703703703703704,0,0,0.03703703703703704,29.55555555555556,0)" xlink:href="#ab"/><use transform="matrix(0.03703703703703704,0,0,0.03703703703703704,36.22222222222223,0)" xlink:href="#Y"/><use transform="matrix(0.03703703703703704,0,0,0.03703703703703704,43.62962962962963,0)" xlink:href="#T"/></g><path fill="#333" d="M175 0L67-191c6 58 2 128 3 191H24v-248h59L193-55c-6-58-2-129-3-193h46V0h-61" id="ac"/><path fill="#333" d="M4 7l51-268h42L46 7H4" id="ad"/><path fill="#333" d="M199 0l-22-63H83L61 0H9l90-248h61L250 0h-51zm-33-102l-36-108c-10 38-24 72-36 108h72" id="ae"/><g id="g"><use transform="matrix(0.03703703703703704,0,0,0.03703703703703704,0,0)" xlink:href="#ac"/><use transform="matrix(0.03703703703703704,0,0,0.03703703703703704,9.592592592592593,0)" xlink:href="#ad"/><use transform="matrix(0.03703703703703704,0,0,0.03703703703703704,13.296296296296298,0)" xlink:href="#ae"/></g><g id="h"><use transform="matrix(0.03703703703703704,0,0,0.03703703703703704,0,0)" xlink:href="#P"/><use transform="matrix(0.03703703703703704,0,0,0.03703703703703704,7.407407407407408,0)" xlink:href="#Q"/><use transform="matrix(0.03703703703703704,0,0,0.03703703703703704,14.814814814814817,0)" xlink:href="#R"/><use transform="matrix(0.03703703703703704,0,0,0.03703703703703704,25.888888888888893,0)" xlink:href="#S"/><use transform="matrix(0.03703703703703704,0,0,0.03703703703703704,33.296296296296305,0)" xlink:href="#T"/></g><path fill="#333" d="M135-194c53 0 70 44 70 98 0 56-19 98-73 100-31 1-45-17-59-34 3 33 2 69 2 105H25l-1-265h48c2 10 0 23 3 31 11-24 29-35 60-35zM114-30c33 0 39-31 40-66 0-38-9-64-40-64-56 0-55 130 0 130" id="af"/><path fill="#333" d="M133-34C117-15 103 5 69 4 32 3 11-16 11-54c-1-60 55-63 116-61 1-26-3-47-28-47-18 1-26 9-28 27l-52-2c7-38 36-58 82-57s74 22 75 68l1 82c-1 14 12 18 25 15v27c-30 8-71 5-69-32zm-48 3c29 0 43-24 42-57-32 0-66-3-65 30 0 17 8 27 23 27" id="ag"/><path fill="#333" d="M115-3C79 11 28 4 28-45v-112H4v-33h27l15-45h31v45h36v33H77v99c-1 23 16 31 38 25v30" id="ah"/><path fill="#333" d="M190-63c-7 42-38 67-86 67-59 0-84-38-90-98-12-110 154-137 174-36l-49 2c-2-19-15-32-35-32-30 0-35 28-38 64-6 74 65 87 74 30" id="ai"/><path fill="#333" d="M114-157C55-157 80-60 75 0H25v-261h50l-1 109c12-26 28-41 61-42 86-1 58 113 63 194h-50c-7-57 23-157-34-157" id="aj"/><g id="i"><use transform="matrix(0.03703703703703704,0,0,0.03703703703703704,0,0)" xlink:href="#af"/><use transform="matrix(0.03703703703703704,0,0,0.03703703703703704,8.111111111111112,0)" xlink:href="#ag"/><use transform="matrix(0.03703703703703704,0,0,0.03703703703703704,15.51851851851852,0)" xlink:href="#ah"/><use transform="matrix(0.03703703703703704,0,0,0.03703703703703704,19.925925925925934,0)" xlink:href="#ai"/><use transform="matrix(0.03703703703703704,0,0,0.03703703703703704,27.333333333333343,0)" xlink:href="#aj"/></g><g id="j"><use transform="matrix(0.03703703703703704,0,0,0.03703703703703704,0,0)" xlink:href="#X"/><use transform="matrix(0.03703703703703704,0,0,0.03703703703703704,4.407407407407408,0)" xlink:href="#Y"/><use transform="matrix(0.03703703703703704,0,0,0.03703703703703704,11.814814814814817,0)" xlink:href="#Z"/><use transform="matrix(0.03703703703703704,0,0,0.03703703703703704,14.740740740740744,0)" xlink:href="#Y"/><use transform="matrix(0.03703703703703704,0,0,0.03703703703703704,22.148148148148152,0)" xlink:href="#aa"/><use transform="matrix(0.03703703703703704,0,0,0.03703703703703704,29.55555555555556,0)" xlink:href="#ab"/><use transform="matrix(0.03703703703703704,0,0,0.03703703703703704,36.22222222222223,0)" xlink:href="#Y"/><use transform="matrix(0.03703703703703704,0,0,0.03703703703703704,43.62962962962963,0)" xlink:href="#T"/></g><path fill="#008a0e" d="M101-251c68 0 84 54 84 127C185-50 166 4 99 4S15-52 14-124c-1-75 17-127 87-127zm-1 216c37-5 36-46 36-89s4-89-36-89c-39 0-36 45-36 89 0 43-3 85 36 89" id="ak"/><path fill="#008a0e" d="M24 0v-54h51V0H24" id="al"/><path fill="#008a0e" d="M23 0v-37h61v-169l-59 37v-38l62-41h46v211h57V0H23" id="am"/><g id="k"><use transform="matrix(0.03703703703703704,0,0,0.03703703703703704,0,0)" xlink:href="#ak"/><use transform="matrix(0.03703703703703704,0,0,0.03703703703703704,7.407407407407408,0)" xlink:href="#al"/><use transform="matrix(0.03703703703703704,0,0,0.03703703703703704,11.111111111111112,0)" xlink:href="#am"/><use transform="matrix(0.03703703703703704,0,0,0.03703703703703704,18.51851851851852,0)" xlink:href="#al"/><use transform="matrix(0.03703703703703704,0,0,0.03703703703703704,22.22222222222222,0)" xlink:href="#am"/></g><g id="l"><use transform="matrix(0.03703703703703704,0,0,0.03703703703703704,0,0)" xlink:href="#P"/><use transform="matrix(0.03703703703703704,0,0,0.03703703703703704,7.407407407407408,0)" xlink:href="#Q"/><use transform="matrix(0.03703703703703704,0,0,0.03703703703703704,14.814814814814817,0)" xlink:href="#R"/><use transform="matrix(0.03703703703703704,0,0,0.03703703703703704,25.888888888888893,0)" xlink:href="#S"/><use transform="matrix(0.03703703703703704,0,0,0.03703703703703704,33.296296296296305,0)" xlink:href="#T"/></g><path fill="#333" d="M220-157c-53 9-28 100-34 157h-49v-107c1-27-5-49-29-50C55-147 81-57 75 0H25l-1-190h47c2 12-1 28 3 38 10-53 101-56 108 0 13-22 24-43 59-42 82 1 51 116 57 194h-49v-107c-1-25-5-48-29-50" id="an"/><path fill="#333" d="M25-224v-37h50v37H25zM25 0v-190h50V0H25" id="ao"/><path fill="#333" d="M135-194c87-1 58 113 63 194h-50c-7-57 23-157-34-157-59 0-34 97-39 157H25l-1-190h47c2 12-1 28 3 38 12-26 28-41 61-42" id="ap"/><path fill="#333" d="M110-194c64 0 96 36 96 99 0 64-35 99-97 99-61 0-95-36-95-99 0-62 34-99 96-99zm-1 164c35 0 45-28 45-65 0-40-10-65-43-65-34 0-45 26-45 65 0 36 10 65 43 65" id="aq"/><path fill="#333" d="M135-150c-39-12-60 13-60 57V0H25l-1-190h47c2 13-1 29 3 40 6-28 27-53 61-41v41" id="ar"/><g id="m"><use transform="matrix(0.03703703703703704,0,0,0.03703703703703704,0,0)" xlink:href="#an"/><use transform="matrix(0.03703703703703704,0,0,0.03703703703703704,11.851851851851853,0)" xlink:href="#ao"/><use transform="matrix(0.03703703703703704,0,0,0.03703703703703704,15.555555555555557,0)" xlink:href="#ap"/><use transform="matrix(0.03703703703703704,0,0,0.03703703703703704,23.66666666666667,0)" xlink:href="#aq"/><use transform="matrix(0.03703703703703704,0,0,0.03703703703703704,31.777777777777786,0)" xlink:href="#ar"/></g><path fill="#008a0e" d="M182-182c0 78-84 86-111 141h115V0H12c-6-101 99-100 120-180 1-22-12-31-33-32-23 0-32 14-35 34l-49-3c5-45 32-70 84-70 51 0 83 22 83 69" id="as"/><g id="n"><use transform="matrix(0.03703703703703704,0,0,0.03703703703703704,0,0)" xlink:href="#ak"/><use transform="matrix(0.03703703703703704,0,0,0.03703703703703704,7.407407407407408,0)" xlink:href="#al"/><use transform="matrix(0.03703703703703704,0,0,0.03703703703703704,11.111111111111112,0)" xlink:href="#as"/><use transform="matrix(0.03703703703703704,0,0,0.03703703703703704,18.51851851851852,0)" xlink:href="#al"/><use transform="matrix(0.03703703703703704,0,0,0.03703703703703704,22.22222222222222,0)" xlink:href="#ak"/></g><path fill="#333" d="M109-170H84l-4-78h32zm-65 0H19l-4-78h33" id="at"/><path fill="#333" d="M14 0l48-248h34L48 0H14" id="au"/><path fill="#333" d="M67-158c22-48 132-52 116 29L158 0h-32l25-140c3-38-53-32-70-12C52-117 51-52 38 0H6l36-190h30" id="av"/><path fill="#333" d="M50-231l6-30h32l-6 30H50zM6 0l37-190h31L37 0H6" id="aw"/><path fill="#333" d="M51-54c-9 22 5 41 31 30L79-1C43 14 10-4 19-52l22-115H19l5-23h22l19-43h21l-9 43h35l-4 23H73" id="ax"/><path fill="#333" d="M165-48c-4 18 1 34 23 27l-3 20c-29 8-62 0-52-35h-2C116-14 99 4 63 4 30 4 8-16 8-49c0-68 71-67 138-67 10-26 0-56-31-54-26 1-42 9-47 31l-32-5c8-67 160-71 144 15-5 28-9 54-15 81zM42-50c3 52 80 24 89-6 7-12 7-24 11-38-47 1-103-4-100 44" id="ay"/><path fill="#333" d="M6 0l50-261h32L37 0H6" id="az"/><g id="o"><use transform="matrix(0.03703703703703704,0,0,0.03703703703703704,0,0)" xlink:href="#at"/><use transform="matrix(0.03703703703703704,0,0,0.03703703703703704,4.703703703703704,0)" xlink:href="#au"/><use transform="matrix(0.03703703703703704,0,0,0.03703703703703704,8.407407407407408,0)" xlink:href="#av"/><use transform="matrix(0.03703703703703704,0,0,0.03703703703703704,15.814814814814817,0)" xlink:href="#aw"/><use transform="matrix(0.03703703703703704,0,0,0.03703703703703704,18.740740740740744,0)" xlink:href="#ax"/><use transform="matrix(0.03703703703703704,0,0,0.03703703703703704,22.44444444444445,0)" xlink:href="#aw"/><use transform="matrix(0.03703703703703704,0,0,0.03703703703703704,25.370370370370377,0)" xlink:href="#ay"/><use transform="matrix(0.03703703703703704,0,0,0.03703703703703704,32.777777777777786,0)" xlink:href="#az"/></g><path fill="#333" d="M44-68c0 29 11 47 38 47 30 0 42-19 51-41l28 9C148-21 126 4 82 4 31 4 10-29 12-85c3-77 74-140 146-93 12 8 15 23 18 40l-31 5c-1-22-13-36-36-36-52 0-65 49-65 101" id="aA"/><path fill="#333" d="M30-147c31-64 166-65 159 27C183-49 158 1 86 4 9 8 1-88 30-147zM88-20c53 0 68-48 68-100 0-31-11-51-44-50-52 1-68 46-68 97 0 32 13 53 44 53" id="aB"/><path fill="#333" d="M248-111c6-24 9-61-24-58-72 9-57 108-77 169h-31l26-142c3-37-50-30-64-10C52-115 50-51 37 0H6l36-190h30c-1 10-6 24-4 32 13-43 101-52 105 5 13-22 29-41 61-41 90 0 28 129 23 194h-31" id="aC"/><g id="p"><use transform="matrix(0.03703703703703704,0,0,0.03703703703703704,0,0)" xlink:href="#aA"/><use transform="matrix(0.03703703703703704,0,0,0.03703703703703704,6.666666666666668,0)" xlink:href="#aB"/><use transform="matrix(0.03703703703703704,0,0,0.03703703703703704,14.074074074074076,0)" xlink:href="#aC"/><use transform="matrix(0.03703703703703704,0,0,0.03703703703703704,25.148148148148152,0)" xlink:href="#aC"/><use transform="matrix(0.03703703703703704,0,0,0.03703703703703704,36.22222222222223,0)" xlink:href="#aw"/><use transform="matrix(0.03703703703703704,0,0,0.03703703703703704,39.14814814814815,0)" xlink:href="#ax"/><use transform="matrix(0.03703703703703704,0,0,0.03703703703703704,42.851851851851855,0)" xlink:href="#at"/></g><path fill="#fff" d="M190-63c-7 42-38 67-86 67-59 0-84-38-90-98-12-110 154-137 174-36l-49 2c-2-19-15-32-35-32-30 0-35 28-38 64-6 74 65 87 74 30" id="aD"/><path fill="#fff" d="M23 0v-37h61v-169l-59 37v-38l62-41h46v211h57V0H23" id="aE"/><g id="q"><use transform="matrix(0.03703703703703704,0,0,0.03703703703703704,0,0)" xlink:href="#aD"/><use transform="matrix(0.03703703703703704,0,0,0.03703703703703704,7.407407407407408,0)" xlink:href="#aE"/></g><path fill="#fff" d="M182-182c0 78-84 86-111 141h115V0H12c-6-101 99-100 120-180 1-22-12-31-33-32-23 0-32 14-35 34l-49-3c5-45 32-70 84-70 51 0 83 22 83 69" id="aF"/><g id="r"><use transform="matrix(0.03703703703703704,0,0,0.03703703703703704,0,0)" xlink:href="#aD"/><use transform="matrix(0.03703703703703704,0,0,0.03703703703703704,7.407407407407408,0)" xlink:href="#aF"/></g><path fill="#5e5e5e" d="M128-127c34 4 56 21 59 58 7 91-148 94-172 28-4-9-6-17-7-26l51-5c1 24 16 35 40 36 23 0 39-12 38-36-1-31-31-36-65-34v-40c32 2 59-3 59-33 0-20-13-33-34-33s-33 13-35 32l-50-3c6-44 37-68 86-68 50 0 83 20 83 66 0 35-22 52-53 58" id="aG"/><g id="s"><use transform="matrix(0.03703703703703704,0,0,0.03703703703703704,0,0)" xlink:href="#N"/><use transform="matrix(0.03703703703703704,0,0,0.03703703703703704,7.407407407407408,0)" xlink:href="#aG"/></g><g id="t"><use transform="matrix(0.03703703703703704,0,0,0.03703703703703704,0,0)" xlink:href="#ak"/><use transform="matrix(0.03703703703703704,0,0,0.03703703703703704,7.407407407407408,0)" xlink:href="#al"/><use transform="matrix(0.03703703703703704,0,0,0.03703703703703704,11.111111111111112,0)" xlink:href="#as"/><use transform="matrix(0.03703703703703704,0,0,0.03703703703703704,18.51851851851852,0)" xlink:href="#al"/><use transform="matrix(0.03703703703703704,0,0,0.03703703703703704,22.22222222222222,0)" xlink:href="#am"/></g><path fill="#333" d="M25-224v-37h50v37H25zM75 22c2 45-34 59-81 51V38c22 5 31-5 31-27v-201h50V22" id="aH"/><g id="u"><use transform="matrix(0.03703703703703704,0,0,0.03703703703703704,0,0)" xlink:href="#an"/><use transform="matrix(0.03703703703703704,0,0,0.03703703703703704,11.851851851851853,0)" xlink:href="#ag"/><use transform="matrix(0.03703703703703704,0,0,0.03703703703703704,19.259259259259256,0)" xlink:href="#aH"/><use transform="matrix(0.03703703703703704,0,0,0.03703703703703704,22.962962962962962,0)" xlink:href="#aq"/><use transform="matrix(0.03703703703703704,0,0,0.03703703703703704,31.07407407407408,0)" xlink:href="#ar"/></g><g id="v"><use transform="matrix(0.03703703703703704,0,0,0.03703703703703704,0,0)" xlink:href="#am"/><use transform="matrix(0.03703703703703704,0,0,0.03703703703703704,7.407407407407408,0)" xlink:href="#al"/><use transform="matrix(0.03703703703703704,0,0,0.03703703703703704,11.111111111111112,0)" xlink:href="#ak"/><use transform="matrix(0.03703703703703704,0,0,0.03703703703703704,18.51851851851852,0)" xlink:href="#al"/><use transform="matrix(0.03703703703703704,0,0,0.03703703703703704,22.22222222222222,0)" xlink:href="#ak"/></g><g id="w"><use transform="matrix(0.03703703703703704,0,0,0.03703703703703704,0,0)" xlink:href="#af"/><use transform="matrix(0.03703703703703704,0,0,0.03703703703703704,8.111111111111112,0)" xlink:href="#ag"/><use transform="matrix(0.03703703703703704,0,0,0.03703703703703704,15.51851851851852,0)" xlink:href="#ah"/><use transform="matrix(0.03703703703703704,0,0,0.03703703703703704,19.925925925925934,0)" xlink:href="#ai"/><use transform="matrix(0.03703703703703704,0,0,0.03703703703703704,27.333333333333343,0)" xlink:href="#aj"/><path fill="#333" d="M34.78.72h1.33v1.4H34.8z"/></g><g id="x"><use transform="matrix(0.03703703703703704,0,0,0.03703703703703704,0,0)" xlink:href="#X"/><use transform="matrix(0.03703703703703704,0,0,0.03703703703703704,4.407407407407408,0)" xlink:href="#Y"/><use transform="matrix(0.03703703703703704,0,0,0.03703703703703704,11.814814814814817,0)" xlink:href="#Z"/><use transform="matrix(0.03703703703703704,0,0,0.03703703703703704,14.740740740740744,0)" xlink:href="#Y"/><use transform="matrix(0.03703703703703704,0,0,0.03703703703703704,22.148148148148152,0)" xlink:href="#aa"/><use transform="matrix(0.03703703703703704,0,0,0.03703703703703704,29.55555555555556,0)" xlink:href="#ab"/><use transform="matrix(0.03703703703703704,0,0,0.03703703703703704,36.22222222222223,0)" xlink:href="#Y"/><use transform="matrix(0.03703703703703704,0,0,0.03703703703703704,43.62962962962963,0)" xlink:href="#T"/></g><g id="y"><use transform="matrix(0.03703703703703704,0,0,0.03703703703703704,0,0)" xlink:href="#am"/><use transform="matrix(0.03703703703703704,0,0,0.03703703703703704,7.407407407407408,0)" xlink:href="#al"/><use transform="matrix(0.03703703703703704,0,0,0.03703703703703704,11.111111111111112,0)" xlink:href="#ak"/><use transform="matrix(0.03703703703703704,0,0,0.03703703703703704,18.51851851851852,0)" xlink:href="#al"/><use transform="matrix(0.03703703703703704,0,0,0.03703703703703704,22.22222222222222,0)" xlink:href="#am"/></g><path fill="#fff" d="M165-50V0h-47v-50H5v-38l105-160h55v161h33v37h-33zm-47-37l2-116L46-87h72" id="aI"/><g id="z"><use transform="matrix(0.03703703703703704,0,0,0.03703703703703704,0,0)" xlink:href="#aD"/><use transform="matrix(0.03703703703703704,0,0,0.03703703703703704,7.407407407407408,0)" xlink:href="#aI"/></g><path fill="#fff" d="M139-81c0-46-55-55-73-27H18l9-140h149v37H72l-4 63c44-38 133-4 122 66C201 21 21 35 11-62l49-4c5 18 15 30 39 30 26 0 40-18 40-45" id="aJ"/><g id="A"><use transform="matrix(0.03703703703703704,0,0,0.03703703703703704,0,0)" xlink:href="#aD"/><use transform="matrix(0.03703703703703704,0,0,0.03703703703703704,7.407407407407408,0)" xlink:href="#aJ"/></g><path fill="#fff" d="M115-159c48 0 72 30 72 78 0 54-30 85-83 85-64 0-91-50-91-122 0-98 58-163 141-120 15 8 21 24 27 44l-47 6c-5-31-48-31-61-4-7 14-11 33-11 60 9-17 28-27 53-27zM102-35c24 0 36-20 36-45s-11-43-37-43c-23 0-36 14-36 38 0 27 11 50 37 50" id="aK"/><g id="B"><use transform="matrix(0.03703703703703704,0,0,0.03703703703703704,0,0)" xlink:href="#aD"/><use transform="matrix(0.03703703703703704,0,0,0.03703703703703704,7.407407407407408,0)" xlink:href="#aK"/></g><g id="C"><use transform="matrix(0.03703703703703704,0,0,0.03703703703703704,0,0)" xlink:href="#an"/><use transform="matrix(0.03703703703703704,0,0,0.03703703703703704,11.851851851851853,0)" xlink:href="#ag"/><use transform="matrix(0.03703703703703704,0,0,0.03703703703703704,19.259259259259256,0)" xlink:href="#aH"/><use transform="matrix(0.03703703703703704,0,0,0.03703703703703704,22.962962962962962,0)" xlink:href="#aq"/><use transform="matrix(0.03703703703703704,0,0,0.03703703703703704,31.07407407407408,0)" xlink:href="#ar"/><path fill="#333" d="M35.6.72h1.32v1.4H35.6z"/></g><g id="D"><use transform="matrix(0.03703703703703704,0,0,0.03703703703703704,0,0)" xlink:href="#as"/><use transform="matrix(0.03703703703703704,0,0,0.03703703703703704,7.407407407407408,0)" xlink:href="#al"/><use transform="matrix(0.03703703703703704,0,0,0.03703703703703704,11.111111111111112,0)" xlink:href="#ak"/><use transform="matrix(0.03703703703703704,0,0,0.03703703703703704,18.51851851851852,0)" xlink:href="#al"/><use transform="matrix(0.03703703703703704,0,0,0.03703703703703704,22.22222222222222,0)" xlink:href="#ak"/></g><path fill="#fff" d="M52 0c1-96 47-148 87-207H15v-41h169v40c-36 62-79 113-81 208H52" id="aL"/><g id="E"><use transform="matrix(0.03703703703703704,0,0,0.03703703703703704,0,0)" xlink:href="#aD"/><use transform="matrix(0.03703703703703704,0,0,0.03703703703703704,7.407407407407408,0)" xlink:href="#aL"/></g></defs></g></svg>