<svg xmlns="http://www.w3.org/2000/svg" xmlns:xlink="http://www.w3.org/1999/xlink" xmlns:lucid="lucid" width="247" height="1337"><g transform="translate(-1140 465)" lucid:page-tab-id="0_0"><path d="M1136.24-529.43c0-3.3 2.7-6 6-6h304c3.3 0 6 2.7 6 6v1404.4c0 3.32-2.7 6-6 6h-304c-3.3 0-6-2.68-6-6z" stroke="#5e5e5e" stroke-width="3" fill-opacity="0"/><path d="M1136.24-474.1h316" stroke="#5e5e5e" stroke-width="3" fill="none"/><use xlink:href="#a" transform="matrix(1,0,0,1,1160.2406332552337,-519.4263952527986) translate(0 25.22222222222222)"/><use xlink:href="#b" transform="matrix(1,0,0,1,1160.2406332552337,-519.4263952527986) translate(169.037037037037 25.22222222222222)"/><path d="M1185.6-438.98c0 8.56-6.93 15.5-15.5 15.5-8.55 0-15.5-6.94-15.5-15.5 0-8.56 6.95-15.5 15.5-15.5 8.57 0 15.5 6.94 15.5 15.5z" stroke="#5e5e5e" stroke-width="3" fill="#fa7811"/><use xlink:href="#c" transform="matrix(1,0,0,1,1166.6133035474788,-442.48408162262643) translate(-3.9074074074074083 10.666666666666668)"/><path d="M1225.6-219.2c0-3.3 2.7-6 6-6h85.95c3.3 0 6 2.7 6 6v44c0 3.33-2.7 6-6 6h-85.94c-3.3 0-6-2.67-6-6z" fill="none"/><use xlink:href="#d" transform="matrix(1,0,0,1,1237.6133035474802,-213.1965816226264) translate(0 11.166666666666668)"/><use xlink:href="#e" transform="matrix(1,0,0,1,1237.6133035474802,-213.1965816226264) translate(40.70370370370371 11.166666666666668)"/><use xlink:href="#f" transform="matrix(1,0,0,1,1237.6133035474802,-213.1965816226264) translate(0 27.166666666666668)"/><use xlink:href="#g" transform="matrix(1,0,0,1,1237.6133035474802,-213.1965816226264) translate(51.03703703703704 27.166666666666668)"/><path d="M1225.6-387.23c0-3.3 2.7-6 6-6h142.95c3.3 0 6 2.7 6 6v44c0 3.33-2.7 6-6 6H1231.6c-3.3 0-6-2.67-6-6z" fill="none"/><use xlink:href="#h" transform="matrix(1,0,0,1,1237.6133035474802,-381.22658162262644) translate(0 11.166666666666668)"/><use xlink:href="#i" transform="matrix(1,0,0,1,1237.6133035474802,-381.22658162262644) translate(40.70370370370371 11.166666666666668)"/><use xlink:href="#j" transform="matrix(1,0,0,1,1237.6133035474802,-381.22658162262644) translate(0 27.166666666666668)"/><use xlink:href="#k" transform="matrix(1,0,0,1,1237.6133035474802,-381.22658162262644) translate(51.03703703703704 27.166666666666668)"/><path d="M1225.6-331.22c0-3.3 2.7-6 6-6h142.95c3.3 0 6 2.7 6 6v44c0 3.33-2.7 6-6 6H1231.6c-3.3 0-6-2.67-6-6z" fill="none"/><use xlink:href="#l" transform="matrix(1,0,0,1,1237.6133035474802,-325.21658162262645) translate(0 11.166666666666668)"/><use xlink:href="#m" transform="matrix(1,0,0,1,1237.6133035474802,-325.21658162262645) translate(40.70370370370371 11.166666666666668)"/><use xlink:href="#j" transform="matrix(1,0,0,1,1237.6133035474802,-325.21658162262645) translate(0 27.166666666666668)"/><use xlink:href="#n" transform="matrix(1,0,0,1,1237.6133035474802,-325.21658162262645) translate(51.03703703703704 27.166666666666668)"/><path d="M1225.6-275.2c0-3.32 2.7-6 6-6h142.95c3.3 0 6 2.68 6 6v44c0 3.32-2.7 6-6 6H1231.6c-3.3 0-6-2.68-6-6z" fill="none"/><use xlink:href="#l" transform="matrix(1,0,0,1,1237.6133035474788,-269.20658162262646) translate(0 11.166666666666668)"/><use xlink:href="#o" transform="matrix(1,0,0,1,1237.6133035474788,-269.20658162262646) translate(40.70370370370371 11.166666666666668)"/><use xlink:href="#p" transform="matrix(1,0,0,1,1237.6133035474788,-269.20658162262646) translate(0 27.166666666666668)"/><use xlink:href="#q" transform="matrix(1,0,0,1,1237.6133035474788,-269.20658162262646) translate(51.03703703703704 27.166666666666668)"/><path d="M1170.1-421.46v2m0 4v3.98m0 4v4m0 4v4m0 3.98v4m0 4v4m0 3.98v4m0 4v4m0 4v3.98m0 4v4m0 4v3.98m0 4v4m0 4v3.98m0 4v4m0 4v4m0 3.98v4m0 4v4m0 3.98v4m0 4v4m0 3.98v4m0 4v4m0 4v3.98m0 4v4m0 4v3.98m0 4v4m0 4v3.98m0 4v4m0 4v4m0 3.98v4m0 4v4m0 3.98v4m0 4v4m0 3.98v4m0 4v4m0 4v3.98m0 4v4m0 4v3.98m0 4v4m0 4v3.98m0 4v4m0 4v4m0 3.98v4m0 4v4m0 3.98v4m0 4v4m0 4v3.98m0 4v4m0 4v3.98m0 4v4m0 4v3.98m0 4v4m0 4v4m0 3.98v4m0 4v4m0 3.98v4m0 4v4m0 3.98v4m0 4v4m0 4V44m0 4v4m0 4v3.98m0 4v4m0 4v3.98m0 4v2" stroke="#5e5e5e" fill="none"/><path d="M1170.1-421.97l.5-.07v.6h-1v-.6M1170.6 82.52l-.5-.06-.5.06v-.58h1" fill="#5e5e5e"/><path d="M1185.6-461c0-3.3 2.7-6 6-6h99c3.3 0 6 2.7 6 6v44.02c0 3.3-2.7 6-6 6h-99c-3.3 0-6-2.7-6-6z" fill="none"/><use xlink:href="#r" transform="matrix(1,0,0,1,1197.613303547479,-454.98908162262643) translate(0 11.166666666666668)"/><use xlink:href="#s" transform="matrix(1,0,0,1,1197.613303547479,-454.98908162262643) translate(39.40740740740741 11.166666666666668)"/><use xlink:href="#j" transform="matrix(1,0,0,1,1197.613303547479,-454.98908162262643) translate(0 27.166666666666668)"/><use xlink:href="#t" transform="matrix(1,0,0,1,1197.613303547479,-454.98908162262643) translate(51.03703703703704 27.166666666666668)"/><path d="M1225.6-365.22c0 8.56-6.93 15.5-15.5 15.5-8.55 0-15.5-6.94-15.5-15.5 0-8.56 6.95-15.5 15.5-15.5 8.57 0 15.5 6.94 15.5 15.5z" stroke="#5e5e5e" stroke-width="3" fill="#5e5e5e"/><use xlink:href="#u" transform="matrix(1,0,0,1,1206.6133035474802,-368.72158162262645) translate(-3.9074074074074083 10.666666666666668)"/><path d="M1170.2-420.47l.02.25.3 1.6.5 1.55.72 1.53 1 1.58 1.42 1.72 2.1 2 3.6 2.6 18.08 10.27" stroke="#fa7811" stroke-width="3" fill="none"/><path d="M1170.1-421.97l1.5-.2.1 1.64-3 .2-.1-1.84" fill="#fa7811"/><path d="M1207.07-386.02l-12.55-8.2 7.22-5.82z" stroke="#fa7811" stroke-width="3" fill="#fa7811"/><path d="M1225.6-309.2c0 8.55-6.93 15.5-15.5 15.5-8.55 0-15.5-6.95-15.5-15.5 0-8.57 6.95-15.5 15.5-15.5 8.57 0 15.5 6.93 15.5 15.5z" stroke="#5e5e5e" stroke-width="3" fill="#5e5e5e"/><use xlink:href="#v" transform="matrix(1,0,0,1,1206.6133035474802,-312.71158162262645) translate(-3.9074074074074083 10.666666666666668)"/><path d="M1210.1-346.7v-.14" stroke="#fa7811" stroke-width="3" fill="none"/><path d="M1210.1-348.2l1.5-.2v1.73h-3v-1.74" fill="#fa7811"/><path d="M1210.1-331.08l-4.62-14.26h9.27z" stroke="#fa7811" stroke-width="3" fill="#fa7811"/><path d="M1225.6-253.2c0 8.56-6.93 15.5-15.5 15.5-8.55 0-15.5-6.94-15.5-15.5 0-8.56 6.95-15.5 15.5-15.5 8.57 0 15.5 6.94 15.5 15.5z" stroke="#5e5e5e" stroke-width="3" fill="#5e5e5e"/><use xlink:href="#w" transform="matrix(1,0,0,1,1206.613303547479,-256.70158162262646) translate(-3.9074074074074083 10.666666666666668)"/><path d="M1210.1-290.7v-.13" stroke="#fa7811" stroke-width="3" fill="none"/><path d="M1210.1-292.2l1.5-.2v1.74h-3v-1.74" fill="#fa7811"/><path d="M1210.1-275.07l-4.62-14.26h9.27z" stroke="#fa7811" stroke-width="3" fill="#fa7811"/><path d="M1225.6-198.57c0 8.56-6.93 15.5-15.5 15.5-8.55 0-15.5-6.94-15.5-15.5 0-8.56 6.95-15.5 15.5-15.5 8.57 0 15.5 6.94 15.5 15.5z" fill-opacity="0"/><path d="M1223.3-190.5l-2.23 2.9-2.9 2.2m-4.45 1.86l-3.6.47-3.62-.47m-4.46-1.85l-2.9-2.2-2.2-2.9m-1.85-4.46l-.5-3.6.5-3.62m1.84-4.46l2.2-2.9 2.9-2.2m4.46-1.86l3.6-.47 3.62.47m4.46 1.85l2.9 2.22 2.2 2.9m1.86 4.45l.47 3.6-.46 3.62" stroke="#5e5e5e" stroke-width="3" fill="none"/><use xlink:href="#x" transform="matrix(1,0,0,1,1206.613303547479,-202.0703316226265) translate(-3.9074074074074083 10.666666666666668)"/><path d="M1210.1-234.7v-1.5" stroke="#fa7811" stroke-width="3" fill="none"/><path d="M1210.1-236.2l1.5-.2v1.75h-3v-1.74" fill="#fa7811"/><path d="M1210.1-220.44l-4.62-14.26h9.27z" stroke="#fa7811" stroke-width="3" fill="#fa7811"/><path d="M1225.6-163.08c0-3.32 2.7-6 6-6h142.95c3.3 0 6 2.68 6 6v44c0 3.32-2.7 6-6 6H1231.6c-3.3 0-6-2.68-6-6z" fill="none"/><use xlink:href="#h" transform="matrix(1,0,0,1,1237.6133035474788,-157.08245702667256) translate(0 11.166666666666668)"/><use xlink:href="#y" transform="matrix(1,0,0,1,1237.6133035474788,-157.08245702667256) translate(40.70370370370371 11.166666666666668)"/><use xlink:href="#j" transform="matrix(1,0,0,1,1237.6133035474788,-157.08245702667256) translate(0 27.166666666666668)"/><use xlink:href="#z" transform="matrix(1,0,0,1,1237.6133035474788,-157.08245702667256) translate(51.03703703703704 27.166666666666668)"/><path d="M1225.6-107.07c0-3.32 2.7-6 6-6h142.95c3.3 0 6 2.68 6 6v44c0 3.32-2.7 6-6 6H1231.6c-3.3 0-6-2.68-6-6z" fill="none"/><use xlink:href="#l" transform="matrix(1,0,0,1,1237.6133035474788,-101.07245702667251) translate(0 11.166666666666668)"/><use xlink:href="#m" transform="matrix(1,0,0,1,1237.6133035474788,-101.07245702667251) translate(40.70370370370371 11.166666666666668)"/><use xlink:href="#j" transform="matrix(1,0,0,1,1237.6133035474788,-101.07245702667251) translate(0 27.166666666666668)"/><use xlink:href="#A" transform="matrix(1,0,0,1,1237.6133035474788,-101.07245702667251) translate(51.03703703703704 27.166666666666668)"/><path d="M1225.6-51.06c0-3.32 2.7-6 6-6h142.95c3.3 0 6 2.68 6 6v44c0 3.32-2.7 6-6 6H1231.6c-3.3 0-6-2.68-6-6z" fill="none"/><use xlink:href="#l" transform="matrix(1,0,0,1,1237.613303547478,-45.062457026672526) translate(0 11.166666666666668)"/><use xlink:href="#o" transform="matrix(1,0,0,1,1237.613303547478,-45.062457026672526) translate(40.70370370370371 11.166666666666668)"/><use xlink:href="#p" transform="matrix(1,0,0,1,1237.613303547478,-45.062457026672526) translate(0 27.166666666666668)"/><use xlink:href="#B" transform="matrix(1,0,0,1,1237.613303547478,-45.062457026672526) translate(51.03703703703704 27.166666666666668)"/><path d="M1225.6-141.08c0 8.56-6.93 15.5-15.5 15.5-8.55 0-15.5-6.94-15.5-15.5 0-8.56 6.95-15.5 15.5-15.5 8.57 0 15.5 6.94 15.5 15.5z" stroke="#5e5e5e" stroke-width="3" fill="#5e5e5e"/><use xlink:href="#C" transform="matrix(1,0,0,1,1206.613303547479,-144.57745702667256) translate(-3.9074074074074083 10.666666666666668)"/><path d="M1225.6-85.07c0 8.56-6.93 15.5-15.5 15.5-8.55 0-15.5-6.94-15.5-15.5 0-8.56 6.95-15.5 15.5-15.5 8.57 0 15.5 6.94 15.5 15.5z" stroke="#5e5e5e" stroke-width="3" fill="#5e5e5e"/><use xlink:href="#D" transform="matrix(1,0,0,1,1206.613303547479,-88.56745702667251) translate(-3.9074074074074083 10.666666666666668)"/><path d="M1210.1-122.56v-.14" stroke="#fa7811" stroke-width="3" fill="none"/><path d="M1210.1-124.06l1.5-.2v1.73h-3v-1.73" fill="#fa7811"/><path d="M1210.1-106.93l-4.62-14.27h9.27z" stroke="#fa7811" stroke-width="3" fill="#fa7811"/><path d="M1225.6-29.06c0 8.56-6.93 15.5-15.5 15.5-8.55 0-15.5-6.94-15.5-15.5 0-8.56 6.95-15.5 15.5-15.5 8.57 0 15.5 6.94 15.5 15.5z" stroke="#5e5e5e" stroke-width="3" fill="#5e5e5e"/><use xlink:href="#E" transform="matrix(1,0,0,1,1206.613303547478,-32.55745702667252) translate(-3.9074074074074083 10.666666666666668)"/><path d="M1210.1-66.55v-.14" stroke="#fa7811" stroke-width="3" fill="none"/><path d="M1210.1-68.05l1.5-.2v1.73h-3v-1.73" fill="#fa7811"/><path d="M1210.1-50.92l-4.62-14.27h9.27z" stroke="#fa7811" stroke-width="3" fill="#fa7811"/><path d="M1210.1-180.06v1.35" stroke="#fa7811" stroke-width="3" fill="none"/><path d="M1210.1-181.56l1.5-.2v1.74h-3v-1.73" fill="#fa7811"/><path d="M1210.1-162.94l-4.62-14.27h9.27z" stroke="#fa7811" stroke-width="3" fill="#fa7811"/><path d="M1225.6 4.95c0-3.32 2.7-6 6-6h142.95c3.3 0 6 2.68 6 6v44c0 3.32-2.7 6-6 6H1231.6c-3.3 0-6-2.68-6-6z" fill="none"/><use xlink:href="#l" transform="matrix(1,0,0,1,1237.61330354748,10.947542973327465) translate(0 11.166666666666668)"/><use xlink:href="#F" transform="matrix(1,0,0,1,1237.61330354748,10.947542973327465) translate(40.70370370370371 11.166666666666668)"/><use xlink:href="#p" transform="matrix(1,0,0,1,1237.61330354748,10.947542973327465) translate(0 27.166666666666668)"/><use xlink:href="#G" transform="matrix(1,0,0,1,1237.61330354748,10.947542973327465) translate(51.03703703703704 27.166666666666668)"/><path d="M1225.6 26.95c0 8.56-6.93 15.5-15.5 15.5-8.55 0-15.5-6.94-15.5-15.5 0-8.56 6.95-15.5 15.5-15.5 8.57 0 15.5 6.94 15.5 15.5z" stroke="#5e5e5e" stroke-width="3" fill="#5e5e5e"/><use xlink:href="#H" transform="matrix(1,0,0,1,1206.6133035474802,23.452542973327468) translate(-3.9074074074074083 10.666666666666668)"/><path d="M1210.1-10.54v-.14" stroke="#fa7811" stroke-width="3" fill="none"/><path d="M1210.1-12.04l1.5-.2v1.73h-3v-1.74" fill="#fa7811"/><path d="M1210.1 5.1L1205.5-9.2h9.27z" stroke="#fa7811" stroke-width="3" fill="#fa7811"/><path d="M1185.6 99.47c0 8.56-6.93 15.5-15.5 15.5-8.55 0-15.5-6.94-15.5-15.5 0-8.56 6.95-15.5 15.5-15.5 8.57 0 15.5 6.94 15.5 15.5z" stroke="#5e5e5e" stroke-width="3" fill="#fa7811"/><use xlink:href="#I" transform="matrix(1,0,0,1,1166.6133035474788,95.97022934315407) translate(-3.9074074074074083 10.666666666666668)"/><path d="M1185.6 81.97c0-3.32 2.7-6 6-6h92.7c3.3 0 6 2.68 6 6v44c0 3.32-2.7 6-6 6h-92.7c-3.3 0-6-2.68-6-6z" fill="none"/><use xlink:href="#l" transform="matrix(1,0,0,1,1197.6133035474793,87.96522934315408) translate(0 11.166666666666668)"/><use xlink:href="#F" transform="matrix(1,0,0,1,1197.6133035474793,87.96522934315408) translate(40.70370370370371 11.166666666666668)"/><use xlink:href="#p" transform="matrix(1,0,0,1,1197.6133035474793,87.96522934315408) translate(0 27.166666666666668)"/><use xlink:href="#J" transform="matrix(1,0,0,1,1197.6133035474793,87.96522934315408) translate(51.03703703703704 27.166666666666668)"/><path d="M1210.08 44.46l-.07 1.15-.28 1.53-.47 1.46-.68 1.44-.95 1.5-1.34 1.63-2 1.9-3.35 2.42-22 12.2" stroke="#5e5e5e" fill="none"/><path d="M1210.58 44.5l-1-.05.04-.55.5.07.5-.07" fill="#5e5e5e"/><path d="M1171.03 81.13l4.3-14.37 7.63 5.27z" stroke="#5e5e5e" fill="#5e5e5e"/><path d="M1185.6 224.47c0 8.57-6.93 15.5-15.5 15.5-8.55 0-15.5-6.93-15.5-15.5 0-8.56 6.95-15.5 15.5-15.5 8.57 0 15.5 6.94 15.5 15.5z" stroke="#5e5e5e" stroke-width="3" fill="#5e5e5e"/><use xlink:href="#K" transform="matrix(1,0,0,1,1166.6133035474788,220.97480632960207) translate(-7.240740740740742 10.666666666666668)"/><path d="M1185.6 206.97c0-3.3 2.7-6 6-6h92.7c3.3 0 6 2.7 6 6v44c0 3.32-2.7 6-6 6h-92.7c-3.3 0-6-2.68-6-6z" fill="none"/><use xlink:href="#l" transform="matrix(1,0,0,1,1197.6133035474793,212.9698063296022) translate(0 11.166666666666668)"/><use xlink:href="#L" transform="matrix(1,0,0,1,1197.6133035474793,212.9698063296022) translate(40.70370370370371 11.166666666666668)"/><use xlink:href="#p" transform="matrix(1,0,0,1,1197.6133035474793,212.9698063296022) translate(0 27.166666666666668)"/><use xlink:href="#M" transform="matrix(1,0,0,1,1197.6133035474793,212.9698063296022) translate(51.03703703703704 27.166666666666668)"/><path d="M1185.6 364.48c0 8.57-6.93 15.5-15.5 15.5-8.55 0-15.5-6.93-15.5-15.5 0-8.56 6.95-15.5 15.5-15.5 8.57 0 15.5 6.94 15.5 15.5z" stroke="#1071e5" stroke-width="3" fill="#fa7811"/><use xlink:href="#N" transform="matrix(1,0,0,1,1166.6133035474788,360.98480632960207) translate(-9.833333333333334 10.666666666666668)"/><path d="M1185.6 346.98c0-3.3 2.7-6 6-6h92.7c3.3 0 6 2.7 6 6v44c0 3.32-2.7 6-6 6h-92.7c-3.3 0-6-2.68-6-6z" fill="none"/><use xlink:href="#l" transform="matrix(1,0,0,1,1197.6133035474793,352.97980632960207) translate(0 11.166666666666668)"/><use xlink:href="#o" transform="matrix(1,0,0,1,1197.6133035474793,352.97980632960207) translate(40.70370370370371 11.166666666666668)"/><use xlink:href="#p" transform="matrix(1,0,0,1,1197.6133035474793,352.97980632960207) translate(0 27.166666666666668)"/><use xlink:href="#O" transform="matrix(1,0,0,1,1197.6133035474793,352.97980632960207) translate(51.03703703703704 27.166666666666668)"/><path d="M1170.1 116.98v74.1" stroke="#5e5e5e" fill="none"/><path d="M1170.1 116.48l.5-.06v.58h-1v-.58" fill="#5e5e5e"/><path d="M1170.1 205.84l-4.62-14.26h9.27z" stroke="#5e5e5e" fill="#5e5e5e"/><path d="M1170.1 242v89.1" stroke="#5e5e5e" fill="none"/><path d="M1170.1 241.5l.5-.08v.58h-1v-.58" fill="#5e5e5e"/><path d="M1170.1 345.85l-4.62-14.26h9.27z" stroke="#5e5e5e" fill="#5e5e5e"/><path d="M1225.6 150.96c0-3.3 2.7-6 6-6h142.95c3.3 0 6 2.7 6 6v44c0 3.32-2.7 6-6 6H1231.6c-3.3 0-6-2.68-6-6z" fill="none"/><use xlink:href="#l" transform="matrix(1,0,0,1,1237.613303547478,156.9598063296022) translate(0 11.166666666666668)"/><use xlink:href="#o" transform="matrix(1,0,0,1,1237.613303547478,156.9598063296022) translate(40.70370370370371 11.166666666666668)"/><use xlink:href="#p" transform="matrix(1,0,0,1,1237.613303547478,156.9598063296022) translate(0 27.166666666666668)"/><use xlink:href="#P" transform="matrix(1,0,0,1,1237.613303547478,156.9598063296022) translate(51.03703703703704 27.166666666666668)"/><path d="M1225.6 172.96c0 8.57-6.93 15.5-15.5 15.5-8.55 0-15.5-6.93-15.5-15.5 0-8.56 6.95-15.5 15.5-15.5 8.57 0 15.5 6.94 15.5 15.5z" stroke="#5e5e5e" stroke-width="3" fill="#5e5e5e"/><use xlink:href="#Q" transform="matrix(1,0,0,1,1206.613303547478,169.4648063296022) translate(-7.6111111111111125 10.666666666666668)"/><path d="M1170.2 117.98l.02.23.3 1.6.5 1.53.7 1.5 1 1.57 1.4 1.7 2.08 1.97 3.53 2.56 18.14 10.25" stroke="#fa7811" stroke-width="3" fill="none"/><path d="M1170.1 116.48l1.5-.2.1 1.65-3 .18-.1-1.82" fill="#fa7811"/><path d="M1207.05 152.2l-12.6-8.16 7.2-5.85z" stroke="#fa7811" stroke-width="3" fill="#fa7811"/><path d="M1225.6 262.98c0-3.3 2.7-6 6-6h142.95c3.3 0 6 2.7 6 6v44c0 3.32-2.7 6-6 6H1231.6c-3.3 0-6-2.68-6-6z" fill="none"/><use xlink:href="#l" transform="matrix(1,0,0,1,1237.613303547478,268.97980632960207) translate(0 11.166666666666668)"/><use xlink:href="#o" transform="matrix(1,0,0,1,1237.613303547478,268.97980632960207) translate(40.70370370370371 11.166666666666668)"/><use xlink:href="#p" transform="matrix(1,0,0,1,1237.613303547478,268.97980632960207) translate(0 27.166666666666668)"/><use xlink:href="#R" transform="matrix(1,0,0,1,1237.613303547478,268.97980632960207) translate(51.03703703703704 27.166666666666668)"/><path d="M1225.6 284.98c0 8.57-6.93 15.5-15.5 15.5-8.55 0-15.5-6.93-15.5-15.5 0-8.56 6.95-15.5 15.5-15.5 8.57 0 15.5 6.94 15.5 15.5z" stroke="#5e5e5e" stroke-width="3" fill="#5e5e5e"/><use xlink:href="#S" transform="matrix(1,0,0,1,1206.613303547478,281.48480632960207) translate(-7.6111111111111125 10.666666666666668)"/><path d="M1210.1 191.48v55.87" stroke="#fa7811" stroke-width="3" fill="none"/><path d="M1210.1 189.98l1.5-.2v1.74h-3v-1.74" fill="#fa7811"/><path d="M1210.1 263.12l-4.62-14.27h9.27z" stroke="#fa7811" stroke-width="3" fill="#fa7811"/><path d="M1210.1 302.5l-.1 1.5-.3 1.85-.5 1.74-.67 1.67-.92 1.7-1.22 1.77-1.68 1.93-2.47 2.27-4.25 3.1-20 12.5-.8.75" stroke="#5e5e5e" fill="none"/><path d="M1210.58 302.54l-1-.06.04-.55.5.07.5-.07" fill="#5e5e5e"/><path d="M1170.83 346.02l2.2-14.83 8.3 4.12z" stroke="#5e5e5e" fill="#5e5e5e"/><path d="M1185.6 488.5c0 8.57-6.93 15.5-15.5 15.5-8.55 0-15.5-6.93-15.5-15.5 0-8.56 6.95-15.5 15.5-15.5 8.57 0 15.5 6.94 15.5 15.5z" stroke="#5e5e5e" stroke-width="3" fill="#5e5e5e"/><use xlink:href="#T" transform="matrix(1,0,0,1,1166.613303547481,485.00480632960193) translate(-7.6111111111111125 10.666666666666668)"/><path d="M1185.6 471c0-3.3 2.7-6 6-6h92.7c3.3 0 6 2.7 6 6v44c0 3.32-2.7 6-6 6h-92.7c-3.3 0-6-2.68-6-6z" fill="none"/><use xlink:href="#l" transform="matrix(1,0,0,1,1197.6133035474816,476.99980632960217) translate(0 11.166666666666668)"/><use xlink:href="#o" transform="matrix(1,0,0,1,1197.6133035474816,476.99980632960217) translate(40.70370370370371 11.166666666666668)"/><use xlink:href="#p" transform="matrix(1,0,0,1,1197.6133035474816,476.99980632960217) translate(0 27.166666666666668)"/><use xlink:href="#U" transform="matrix(1,0,0,1,1197.6133035474816,476.99980632960217) translate(51.03703703703704 27.166666666666668)"/><path d="M1185.6 628.5c0 8.58-6.93 15.5-15.5 15.5-8.55 0-15.5-6.92-15.5-15.5 0-8.55 6.95-15.5 15.5-15.5 8.57 0 15.5 6.95 15.5 15.5z" stroke="#1071e5" stroke-width="3" fill="#5e5e5e"/><use xlink:href="#V" transform="matrix(1,0,0,1,1166.613303547481,625.0148063296019) translate(-9.833333333333334 10.666666666666668)"/><path d="M1185.6 611c0-3.3 2.7-6 6-6h92.7c3.3 0 6 2.7 6 6v44.02c0 3.3-2.7 6-6 6h-92.7c-3.3 0-6-2.7-6-6z" fill="none"/><use xlink:href="#l" transform="matrix(1,0,0,1,1197.6133035474816,617.0098063296019) translate(0 11.166666666666668)"/><use xlink:href="#o" transform="matrix(1,0,0,1,1197.6133035474816,617.0098063296019) translate(40.70370370370371 11.166666666666668)"/><use xlink:href="#p" transform="matrix(1,0,0,1,1197.6133035474816,617.0098063296019) translate(0 27.166666666666668)"/><use xlink:href="#W" transform="matrix(1,0,0,1,1197.6133035474816,617.0098063296019) translate(51.03703703703704 27.166666666666668)"/><path d="M1225.6 415c0-3.32 2.7-6 6-6h142.95c3.3 0 6 2.68 6 6v44c0 3.3-2.7 6-6 6H1231.6c-3.3 0-6-2.7-6-6z" fill="none"/><use xlink:href="#l" transform="matrix(1,0,0,1,1237.6133035474802,420.98980632960206) translate(0 11.166666666666668)"/><use xlink:href="#L" transform="matrix(1,0,0,1,1237.6133035474802,420.98980632960206) translate(40.70370370370371 11.166666666666668)"/><use xlink:href="#p" transform="matrix(1,0,0,1,1237.6133035474802,420.98980632960206) translate(0 27.166666666666668)"/><use xlink:href="#X" transform="matrix(1,0,0,1,1237.6133035474802,420.98980632960206) translate(51.03703703703704 27.166666666666668)"/><path d="M1225.6 437c0 8.56-6.93 15.5-15.5 15.5-8.55 0-15.5-6.94-15.5-15.5 0-8.57 6.95-15.5 15.5-15.5 8.57 0 15.5 6.93 15.5 15.5z" stroke="#5e5e5e" stroke-width="3" fill="#5e5e5e"/><use xlink:href="#Y" transform="matrix(1,0,0,1,1206.6133035474802,433.49480632960206) translate(-7.6111111111111125 10.666666666666668)"/><path d="M1225.6 527c0-3.3 2.7-6 6-6h142.95c3.3 0 6 2.7 6 6v44.02c0 3.3-2.7 6-6 6H1231.6c-3.3 0-6-2.7-6-6z" fill="none"/><g><use xlink:href="#l" transform="matrix(1,0,0,1,1237.6133035474802,533.0098063296019) translate(0 11.166666666666668)"/><use xlink:href="#o" transform="matrix(1,0,0,1,1237.6133035474802,533.0098063296019) translate(40.70370370370371 11.166666666666668)"/><use xlink:href="#p" transform="matrix(1,0,0,1,1237.6133035474802,533.0098063296019) translate(0 27.166666666666668)"/><use xlink:href="#Z" transform="matrix(1,0,0,1,1237.6133035474802,533.0098063296019) translate(51.03703703703704 27.166666666666668)"/></g><path d="M1225.6 549c0 8.58-6.93 15.5-15.5 15.5-8.55 0-15.5-6.92-15.5-15.5 0-8.55 6.95-15.5 15.5-15.5 8.57 0 15.5 6.95 15.5 15.5z" stroke="#5e5e5e" stroke-width="3" fill="#5e5e5e"/><g><use xlink:href="#aa" transform="matrix(1,0,0,1,1206.6133035474802,545.5148063296019) translate(-7.6111111111111125 10.666666666666668)"/></g><path d="M1210.1 455.5v55.88" stroke="#fa7811" stroke-width="3" fill="none"/><path d="M1210.1 454l1.5-.2v1.75h-3v-1.74" fill="#fa7811"/><path d="M1210.1 527.15l-4.62-14.27h9.27z" stroke="#fa7811" stroke-width="3" fill="#fa7811"/><path d="M1210.1 566.53l-.1 1.5-.3 1.85-.5 1.74-.67 1.68-.92 1.7-1.22 1.77-1.68 1.93-2.47 2.27-4.25 3.1-20 12.5-.8.75" stroke="#5e5e5e" fill="none"/><path d="M1210.58 566.57l-1-.06.04-.54.5.07.5-.07" fill="#5e5e5e"/><path d="M1170.83 610.05l2.2-14.83 8.3 4.13z" stroke="#5e5e5e" fill="#5e5e5e"/><path d="M1170.2 383v.14l.3 1.52.47 1.46.68 1.45.95 1.5 1.35 1.63 2 1.88 3.35 2.43 18.3 10.18" stroke="#fa7811" stroke-width="3" fill="none"/><path d="M1170.1 381.5l1.5-.2.1 1.64-3 .2-.1-1.84" fill="#fa7811"/><path d="M1206.98 416.28l-12.76-7.9 7.08-6z" stroke="#fa7811" stroke-width="3" fill="#fa7811"/><path d="M1170.1 382v73.1" stroke="#5e5e5e" fill="none"/><path d="M1170.1 381.5l.5-.07v.58h-1v-.57" fill="#5e5e5e"/><path d="M1170.1 469.87l-4.62-14.26h9.27z" stroke="#5e5e5e" fill="#5e5e5e"/><path d="M1170.1 506.02v89.1" stroke="#5e5e5e" fill="none"/><path d="M1170.1 505.52l.5-.07v.58h-1v-.58" fill="#5e5e5e"/><path d="M1170.1 609.88l-4.62-14.26h9.27z" stroke="#5e5e5e" fill="#5e5e5e"/><path d="M1185.6 843.55c0 8.56-6.93 15.5-15.5 15.5-8.55 0-15.5-6.94-15.5-15.5 0-8.56 6.95-15.5 15.5-15.5 8.57 0 15.5 6.94 15.5 15.5z" stroke="#5e5e5e" stroke-width="3" fill="#5e5e5e"/><g><use xlink:href="#ab" transform="matrix(1,0,0,1,1166.6133035474816,840.0505392604161) translate(-7.6111111111111125 10.666666666666668)"/></g><path d="M1225.6 686.03c0-3.3 2.7-6 6-6h142.95c3.3 0 6 2.7 6 6v44c0 3.32-2.7 6-6 6H1231.6c-3.3 0-6-2.68-6-6z" fill="none"/><g><use xlink:href="#l" transform="matrix(1,0,0,1,1237.613303547478,692.0305392604167) translate(0 11.166666666666668)"/><use xlink:href="#L" transform="matrix(1,0,0,1,1237.613303547478,692.0305392604167) translate(40.70370370370371 11.166666666666668)"/><use xlink:href="#p" transform="matrix(1,0,0,1,1237.613303547478,692.0305392604167) translate(0 27.166666666666668)"/><use xlink:href="#ac" transform="matrix(1,0,0,1,1237.613303547478,692.0305392604167) translate(51.03703703703704 27.166666666666668)"/></g><path d="M1225.6 708.04c0 8.56-6.93 15.5-15.5 15.5-8.55 0-15.5-6.94-15.5-15.5 0-8.56 6.95-15.5 15.5-15.5 8.57 0 15.5 6.94 15.5 15.5z" stroke="#1071e5" stroke-width="3" fill="#5e5e5e"/><g><use xlink:href="#ad" transform="matrix(1,0,0,1,1206.613303547478,704.5355392604167) translate(-9.833333333333334 10.666666666666668)"/></g><path d="M1225.6 742.04c0-3.3 2.7-6 6-6h142.95c3.3 0 6 2.7 6 6v44c0 3.32-2.7 6-6 6H1231.6c-3.3 0-6-2.68-6-6z" fill="none"/><g><use xlink:href="#l" transform="matrix(1,0,0,1,1237.613303547478,748.0405392604167) translate(0 11.166666666666668)"/><use xlink:href="#o" transform="matrix(1,0,0,1,1237.613303547478,748.0405392604167) translate(40.70370370370371 11.166666666666668)"/><use xlink:href="#p" transform="matrix(1,0,0,1,1237.613303547478,748.0405392604167) translate(0 27.166666666666668)"/><use xlink:href="#ae" transform="matrix(1,0,0,1,1237.613303547478,748.0405392604167) translate(51.03703703703704 27.166666666666668)"/></g><path d="M1225.6 764.05c0 8.56-6.93 15.5-15.5 15.5-8.55 0-15.5-6.94-15.5-15.5 0-8.56 6.95-15.5 15.5-15.5 8.57 0 15.5 6.94 15.5 15.5z" stroke="#5e5e5e" stroke-width="3" fill="#5e5e5e"/><g><use xlink:href="#af" transform="matrix(1,0,0,1,1206.613303547478,760.5455392604167) translate(-7.6111111111111125 10.666666666666668)"/></g><path d="M1170.14 646.03l.08 1.5.3 1.85.5 1.74.68 1.7.92 1.68 1.22 1.77 1.7 1.94 2.45 2.27 4.23 3.1 20 12.5.83.76" stroke="#5e5e5e" fill="none"/><path d="M1170.1 645.53l.5-.07.04.55-1 .07-.03-.6" fill="#5e5e5e"/><path d="M1209.4 689.57l-10.5-10.7 8.3-4.13z" stroke="#5e5e5e" fill="#5e5e5e"/><path d="M1210.1 567.53V670.4" stroke="#fa7811" stroke-width="3" fill="none"/><path d="M1210.1 566.03l1.5-.2v1.74h-3v-1.74" fill="#fa7811"/><path d="M1210.1 686.17l-4.62-14.27h9.27z" stroke="#fa7811" stroke-width="3" fill="#fa7811"/><path d="M1210.1 726.55v-.14" stroke="#fa7811" stroke-width="3" fill="none"/><path d="M1210.1 725.05l1.5-.2v1.74h-3v-1.75" fill="#fa7811"/><path d="M1210.1 742.18l-4.62-14.27h9.27z" stroke="#fa7811" stroke-width="3" fill="#fa7811"/><path d="M1185.6 821.55c0-3.32 2.7-6 6-6h92.7c3.3 0 6 2.68 6 6v44c0 3.32-2.7 6-6 6h-92.7c-3.3 0-6-2.68-6-6z" fill="none"/><g><use xlink:href="#l" transform="matrix(1,0,0,1,1197.6133035474816,827.5455392604161) translate(0 11.166666666666668)"/><use xlink:href="#o" transform="matrix(1,0,0,1,1197.6133035474816,827.5455392604161) translate(40.70370370370371 11.166666666666668)"/><use xlink:href="#p" transform="matrix(1,0,0,1,1197.6133035474816,827.5455392604161) translate(0 27.166666666666668)"/><use xlink:href="#ag" transform="matrix(1,0,0,1,1197.6133035474816,827.5455392604161) translate(51.03703703703704 27.166666666666668)"/></g><path d="M1210.1 781.56l-.1 1.5-.3 1.85-.5 1.75-.67 1.7-.92 1.68-1.22 1.77-1.68 1.93-2.46 2.27-4.26 3.1-20 12.5-.8.75" stroke="#5e5e5e" fill="none"/><path d="M1210.58 781.6l-1-.06.04-.55.5.06.5-.07" fill="#5e5e5e"/><path d="M1170.83 825.1l2.2-14.85 8.3 4.13z" stroke="#5e5e5e" fill="#5e5e5e"/><path d="M1170.1 646.03v1.95m0 3.9v3.92m0 3.9v3.9m0 3.92v3.9m0 3.92v3.9m0 3.9v3.92m0 3.9v3.92m0 3.9v3.9m0 3.92v3.9m0 3.92v3.9m0 3.9v3.92m0 3.9v3.9m0 3.92v3.9m0 3.92v3.9m0 3.9v3.92m0 3.9v3.92m0 3.9v3.9m0 3.92v3.9m0 3.9v3.92m0 3.9v3.92m0 3.9v3.9m0 3.92v1.95" stroke="#5e5e5e" fill="none"/><path d="M1170.1 645.53l.5-.07v.58h-1v-.58" fill="#5e5e5e"/><path d="M1170.1 824.92l-4.62-14.27h9.27z" stroke="#5e5e5e" fill="#5e5e5e"/><path d="M1136.24-529.43c0-3.3 2.7-6 6-6h304c3.3 0 6 2.7 6 6v1404.4c0 3.32-2.7 6-6 6h-304c-3.3 0-6-2.68-6-6z" stroke="#5e5e5e" stroke-width="3" fill-opacity="0"/><path d="M1136.24-474.1h316" stroke="#5e5e5e" stroke-width="3" fill="none"/><g><use xlink:href="#a" transform="matrix(1,0,0,1,1160.2406332552337,-519.4263952527986) translate(0 25.22222222222222)"/><use xlink:href="#b" transform="matrix(1,0,0,1,1160.2406332552337,-519.4263952527986) translate(169.037037037037 25.22222222222222)"/></g><path d="M1136.24-529.43c0-3.3 2.7-6 6-6h304c3.3 0 6 2.7 6 6v1404.4c0 3.32-2.7 6-6 6h-304c-3.3 0-6-2.68-6-6z" stroke="#5e5e5e" stroke-width="3" fill-opacity="0"/><path d="M1136.24-474.1h316" stroke="#5e5e5e" stroke-width="3" fill="none"/><g><use xlink:href="#a" transform="matrix(1,0,0,1,1160.2406332552337,-519.4263952527986) translate(0 25.22222222222222)"/><use xlink:href="#b" transform="matrix(1,0,0,1,1160.2406332552337,-519.4263952527986) translate(169.037037037037 25.22222222222222)"/></g><defs><path d="M30-248c87 1 191-15 191 75 0 78-77 80-158 76V0H30v-248zm33 125c57 0 124 11 124-50 0-59-68-47-124-48v98" id="ah"/><path d="M114-163C36-179 61-72 57 0H25l-1-190h30c1 12-1 29 2 39 6-27 23-49 58-41v29" id="ai"/><path d="M100-194c63 0 86 42 84 106H49c0 40 14 67 53 68 26 1 43-12 49-29l28 8c-11 28-37 45-77 45C44 4 14-33 15-96c1-61 26-98 85-98zm52 81c6-60-76-77-97-28-3 7-6 17-6 28h103" id="aj"/><path d="M16-82v-28h88v28H16" id="ak"/><path d="M24 0v-261h32V0H24" id="al"/><path d="M141-36C126-15 110 5 73 4 37 3 15-17 15-53c-1-64 63-63 125-63 3-35-9-54-41-54-24 1-41 7-42 31l-33-3c5-37 33-52 76-52 45 0 72 20 72 64v82c-1 20 7 32 28 27v20c-31 9-61-2-59-35zM48-53c0 20 12 33 32 33 41-3 63-29 60-74-43 2-92-5-92 41" id="am"/><path d="M135-143c-3-34-86-38-87 0 15 53 115 12 119 90S17 21 10-45l28-5c4 36 97 45 98 0-10-56-113-15-118-90-4-57 82-63 122-42 12 7 21 19 24 35" id="an"/><g id="a"><use transform="matrix(0.08641975308641975,0,0,0.08641975308641975,0,0)" xlink:href="#ah"/><use transform="matrix(0.08641975308641975,0,0,0.08641975308641975,20.74074074074074,0)" xlink:href="#ai"/><use transform="matrix(0.08641975308641975,0,0,0.08641975308641975,31.02469135802469,0)" xlink:href="#aj"/><use transform="matrix(0.08641975308641975,0,0,0.08641975308641975,48.30864197530864,0)" xlink:href="#ak"/><use transform="matrix(0.08641975308641975,0,0,0.08641975308641975,58.59259259259259,0)" xlink:href="#ai"/><use transform="matrix(0.08641975308641975,0,0,0.08641975308641975,68.87654320987653,0)" xlink:href="#aj"/><use transform="matrix(0.08641975308641975,0,0,0.08641975308641975,86.16049382716048,0)" xlink:href="#al"/><use transform="matrix(0.08641975308641975,0,0,0.08641975308641975,92.98765432098764,0)" xlink:href="#aj"/><use transform="matrix(0.08641975308641975,0,0,0.08641975308641975,110.2716049382716,0)" xlink:href="#am"/><use transform="matrix(0.08641975308641975,0,0,0.08641975308641975,127.55555555555554,0)" xlink:href="#an"/><use transform="matrix(0.08641975308641975,0,0,0.08641975308641975,143.1111111111111,0)" xlink:href="#aj"/></g><path d="M115-194c53 0 69 39 70 98 0 66-23 100-70 100C84 3 66-7 56-30L54 0H23l1-261h32v101c10-23 28-34 59-34zm-8 174c40 0 45-34 45-75 0-40-5-75-45-74-42 0-51 32-51 76 0 43 10 73 51 73" id="ao"/><path d="M117-194c89-4 53 116 60 194h-32v-121c0-31-8-49-39-48C34-167 62-67 57 0H25l-1-190h30c1 10-1 24 2 32 11-22 29-35 61-36" id="ap"/><path d="M96-169c-40 0-48 33-48 73s9 75 48 75c24 0 41-14 43-38l32 2c-6 37-31 61-74 61-59 0-76-41-82-99-10-93 101-131 147-64 4 7 5 14 7 22l-32 3c-4-21-16-35-41-35" id="aq"/><path d="M106-169C34-169 62-67 57 0H25v-261h32l-1 103c12-21 28-36 61-36 89 0 53 116 60 194h-32v-121c2-32-8-49-39-48" id="ar"/><g id="b"><use transform="matrix(0.08641975308641975,0,0,0.08641975308641975,0,0)" xlink:href="#ao"/><use transform="matrix(0.08641975308641975,0,0,0.08641975308641975,17.28395061728395,0)" xlink:href="#ai"/><use transform="matrix(0.08641975308641975,0,0,0.08641975308641975,27.5679012345679,0)" xlink:href="#am"/><use transform="matrix(0.08641975308641975,0,0,0.08641975308641975,44.85185185185185,0)" xlink:href="#ap"/><use transform="matrix(0.08641975308641975,0,0,0.08641975308641975,62.1358024691358,0)" xlink:href="#aq"/><use transform="matrix(0.08641975308641975,0,0,0.08641975308641975,77.69135802469135,0)" xlink:href="#ar"/></g><path fill="#fff" d="M190-63c-7 42-38 67-86 67-59 0-84-38-90-98-12-110 154-137 174-36l-49 2c-2-19-15-32-35-32-30 0-35 28-38 64-6 74 65 87 74 30" id="as"/><path fill="#fff" d="M101-251c68 0 84 54 84 127C185-50 166 4 99 4S15-52 14-124c-1-75 17-127 87-127zm-1 216c37-5 36-46 36-89s4-89-36-89c-39 0-36 45-36 89 0 43-3 85 36 89" id="at"/><g id="c"><use transform="matrix(0.03703703703703704,0,0,0.03703703703703704,0,0)" xlink:href="#as"/><use transform="matrix(0.03703703703703704,0,0,0.03703703703703704,7.407407407407408,0)" xlink:href="#at"/></g><path fill="#333" d="M115-194c53 0 69 39 70 98 0 66-23 100-70 100C84 3 66-7 56-30L54 0H23l1-261h32v101c10-23 28-34 59-34zm-8 174c40 0 45-34 45-75 0-40-5-75-45-74-42 0-51 32-51 76 0 43 10 73 51 73" id="au"/><path fill="#333" d="M84 4C-5 8 30-112 23-190h32v120c0 31 7 50 39 49 72-2 45-101 50-169h31l1 190h-30c-1-10 1-25-2-33-11 22-28 36-60 37" id="av"/><path fill="#333" d="M210-169c-67 3-38 105-44 169h-31v-121c0-29-5-50-35-48C34-165 62-65 56 0H25l-1-190h30c1 10-1 24 2 32 10-44 99-50 107 0 11-21 27-35 58-36 85-2 47 119 55 194h-31v-121c0-29-5-49-35-48" id="aw"/><path fill="#333" d="M115-194c55 1 70 41 70 98S169 2 115 4C84 4 66-9 55-30l1 105H24l-1-265h31l2 30c10-21 28-34 59-34zm-8 174c40 0 45-34 45-75s-6-73-45-74c-42 0-51 32-51 76 0 43 10 73 51 73" id="ax"/><path fill="#333" d="M33-154v-36h34v36H33zM33 0v-36h34V0H33" id="ay"/><g id="d"><use transform="matrix(0.03703703703703704,0,0,0.03703703703703704,0,0)" xlink:href="#au"/><use transform="matrix(0.03703703703703704,0,0,0.03703703703703704,7.407407407407408,0)" xlink:href="#av"/><use transform="matrix(0.03703703703703704,0,0,0.03703703703703704,14.814814814814817,0)" xlink:href="#aw"/><use transform="matrix(0.03703703703703704,0,0,0.03703703703703704,25.888888888888893,0)" xlink:href="#ax"/><use transform="matrix(0.03703703703703704,0,0,0.03703703703703704,33.296296296296305,0)" xlink:href="#ay"/></g><path fill="#333" d="M190 0L58-211 59 0H30v-248h39L202-35l-2-213h31V0h-41" id="az"/><path fill="#333" d="M0 4l72-265h28L28 4H0" id="aA"/><path fill="#333" d="M205 0l-28-72H64L36 0H1l101-248h38L239 0h-34zm-38-99l-47-123c-12 45-31 82-46 123h93" id="aB"/><g id="e"><use transform="matrix(0.03703703703703704,0,0,0.03703703703703704,0,0)" xlink:href="#az"/><use transform="matrix(0.03703703703703704,0,0,0.03703703703703704,9.592592592592593,0)" xlink:href="#aA"/><use transform="matrix(0.03703703703703704,0,0,0.03703703703703704,13.296296296296298,0)" xlink:href="#aB"/></g><path fill="#333" d="M114-163C36-179 61-72 57 0H25l-1-190h30c1 12-1 29 2 39 6-27 23-49 58-41v29" id="aC"/><path fill="#333" d="M100-194c63 0 86 42 84 106H49c0 40 14 67 53 68 26 1 43-12 49-29l28 8c-11 28-37 45-77 45C44 4 14-33 15-96c1-61 26-98 85-98zm52 81c6-60-76-77-97-28-3 7-6 17-6 28h103" id="aD"/><path fill="#333" d="M24 0v-261h32V0H24" id="aE"/><path fill="#333" d="M141-36C126-15 110 5 73 4 37 3 15-17 15-53c-1-64 63-63 125-63 3-35-9-54-41-54-24 1-41 7-42 31l-33-3c5-37 33-52 76-52 45 0 72 20 72 64v82c-1 20 7 32 28 27v20c-31 9-61-2-59-35zM48-53c0 20 12 33 32 33 41-3 63-29 60-74-43 2-92-5-92 41" id="aF"/><path fill="#333" d="M135-143c-3-34-86-38-87 0 15 53 115 12 119 90S17 21 10-45l28-5c4 36 97 45 98 0-10-56-113-15-118-90-4-57 82-63 122-42 12 7 21 19 24 35" id="aG"/><g id="f"><use transform="matrix(0.03703703703703704,0,0,0.03703703703703704,0,0)" xlink:href="#aC"/><use transform="matrix(0.03703703703703704,0,0,0.03703703703703704,4.407407407407408,0)" xlink:href="#aD"/><use transform="matrix(0.03703703703703704,0,0,0.03703703703703704,11.814814814814817,0)" xlink:href="#aE"/><use transform="matrix(0.03703703703703704,0,0,0.03703703703703704,14.740740740740744,0)" xlink:href="#aD"/><use transform="matrix(0.03703703703703704,0,0,0.03703703703703704,22.148148148148152,0)" xlink:href="#aF"/><use transform="matrix(0.03703703703703704,0,0,0.03703703703703704,29.55555555555556,0)" xlink:href="#aG"/><use transform="matrix(0.03703703703703704,0,0,0.03703703703703704,36.22222222222223,0)" xlink:href="#aD"/><use transform="matrix(0.03703703703703704,0,0,0.03703703703703704,43.62962962962963,0)" xlink:href="#ay"/></g><path fill="#333" d="M175 0L67-191c6 58 2 128 3 191H24v-248h59L193-55c-6-58-2-129-3-193h46V0h-61" id="aH"/><path fill="#333" d="M4 7l51-268h42L46 7H4" id="aI"/><path fill="#333" d="M199 0l-22-63H83L61 0H9l90-248h61L250 0h-51zm-33-102l-36-108c-10 38-24 72-36 108h72" id="aJ"/><g id="g"><use transform="matrix(0.03703703703703704,0,0,0.03703703703703704,0,0)" xlink:href="#aH"/><use transform="matrix(0.03703703703703704,0,0,0.03703703703703704,9.592592592592593,0)" xlink:href="#aI"/><use transform="matrix(0.03703703703703704,0,0,0.03703703703703704,13.296296296296298,0)" xlink:href="#aJ"/></g><g id="h"><use transform="matrix(0.03703703703703704,0,0,0.03703703703703704,0,0)" xlink:href="#au"/><use transform="matrix(0.03703703703703704,0,0,0.03703703703703704,7.407407407407408,0)" xlink:href="#av"/><use transform="matrix(0.03703703703703704,0,0,0.03703703703703704,14.814814814814817,0)" xlink:href="#aw"/><use transform="matrix(0.03703703703703704,0,0,0.03703703703703704,25.888888888888893,0)" xlink:href="#ax"/><use transform="matrix(0.03703703703703704,0,0,0.03703703703703704,33.296296296296305,0)" xlink:href="#ay"/></g><path fill="#333" d="M135-194c53 0 70 44 70 98 0 56-19 98-73 100-31 1-45-17-59-34 3 33 2 69 2 105H25l-1-265h48c2 10 0 23 3 31 11-24 29-35 60-35zM114-30c33 0 39-31 40-66 0-38-9-64-40-64-56 0-55 130 0 130" id="aK"/><path fill="#333" d="M133-34C117-15 103 5 69 4 32 3 11-16 11-54c-1-60 55-63 116-61 1-26-3-47-28-47-18 1-26 9-28 27l-52-2c7-38 36-58 82-57s74 22 75 68l1 82c-1 14 12 18 25 15v27c-30 8-71 5-69-32zm-48 3c29 0 43-24 42-57-32 0-66-3-65 30 0 17 8 27 23 27" id="aL"/><path fill="#333" d="M115-3C79 11 28 4 28-45v-112H4v-33h27l15-45h31v45h36v33H77v99c-1 23 16 31 38 25v30" id="aM"/><path fill="#333" d="M190-63c-7 42-38 67-86 67-59 0-84-38-90-98-12-110 154-137 174-36l-49 2c-2-19-15-32-35-32-30 0-35 28-38 64-6 74 65 87 74 30" id="aN"/><path fill="#333" d="M114-157C55-157 80-60 75 0H25v-261h50l-1 109c12-26 28-41 61-42 86-1 58 113 63 194h-50c-7-57 23-157-34-157" id="aO"/><g id="i"><use transform="matrix(0.03703703703703704,0,0,0.03703703703703704,0,0)" xlink:href="#aK"/><use transform="matrix(0.03703703703703704,0,0,0.03703703703703704,8.111111111111112,0)" xlink:href="#aL"/><use transform="matrix(0.03703703703703704,0,0,0.03703703703703704,15.51851851851852,0)" xlink:href="#aM"/><use transform="matrix(0.03703703703703704,0,0,0.03703703703703704,19.925925925925934,0)" xlink:href="#aN"/><use transform="matrix(0.03703703703703704,0,0,0.03703703703703704,27.333333333333343,0)" xlink:href="#aO"/></g><g id="j"><use transform="matrix(0.03703703703703704,0,0,0.03703703703703704,0,0)" xlink:href="#aC"/><use transform="matrix(0.03703703703703704,0,0,0.03703703703703704,4.407407407407408,0)" xlink:href="#aD"/><use transform="matrix(0.03703703703703704,0,0,0.03703703703703704,11.814814814814817,0)" xlink:href="#aE"/><use transform="matrix(0.03703703703703704,0,0,0.03703703703703704,14.740740740740744,0)" xlink:href="#aD"/><use transform="matrix(0.03703703703703704,0,0,0.03703703703703704,22.148148148148152,0)" xlink:href="#aF"/><use transform="matrix(0.03703703703703704,0,0,0.03703703703703704,29.55555555555556,0)" xlink:href="#aG"/><use transform="matrix(0.03703703703703704,0,0,0.03703703703703704,36.22222222222223,0)" xlink:href="#aD"/><use transform="matrix(0.03703703703703704,0,0,0.03703703703703704,43.62962962962963,0)" xlink:href="#ay"/></g><path fill="#008a0e" d="M101-251c68 0 84 54 84 127C185-50 166 4 99 4S15-52 14-124c-1-75 17-127 87-127zm-1 216c37-5 36-46 36-89s4-89-36-89c-39 0-36 45-36 89 0 43-3 85 36 89" id="aP"/><path fill="#008a0e" d="M24 0v-54h51V0H24" id="aQ"/><path fill="#008a0e" d="M23 0v-37h61v-169l-59 37v-38l62-41h46v211h57V0H23" id="aR"/><path fill="#008a0e" d="M14-72v-43h91v43H14" id="aS"/><path fill="#008a0e" d="M133-34C117-15 103 5 69 4 32 3 11-16 11-54c-1-60 55-63 116-61 1-26-3-47-28-47-18 1-26 9-28 27l-52-2c7-38 36-58 82-57s74 22 75 68l1 82c-1 14 12 18 25 15v27c-30 8-71 5-69-32zm-48 3c29 0 43-24 42-57-32 0-66-3-65 30 0 17 8 27 23 27" id="aT"/><path fill="#008a0e" d="M25 0v-261h50V0H25" id="aU"/><path fill="#008a0e" d="M135-194c53 0 70 44 70 98 0 56-19 98-73 100-31 1-45-17-59-34 3 33 2 69 2 105H25l-1-265h48c2 10 0 23 3 31 11-24 29-35 60-35zM114-30c33 0 39-31 40-66 0-38-9-64-40-64-56 0-55 130 0 130" id="aV"/><path fill="#008a0e" d="M114-157C55-157 80-60 75 0H25v-261h50l-1 109c12-26 28-41 61-42 86-1 58 113 63 194h-50c-7-57 23-157-34-157" id="aW"/><g id="k"><use transform="matrix(0.03703703703703704,0,0,0.03703703703703704,0,0)" xlink:href="#aP"/><use transform="matrix(0.03703703703703704,0,0,0.03703703703703704,7.407407407407408,0)" xlink:href="#aQ"/><use transform="matrix(0.03703703703703704,0,0,0.03703703703703704,11.111111111111112,0)" xlink:href="#aR"/><use transform="matrix(0.03703703703703704,0,0,0.03703703703703704,18.51851851851852,0)" xlink:href="#aQ"/><use transform="matrix(0.03703703703703704,0,0,0.03703703703703704,22.22222222222222,0)" xlink:href="#aR"/><use transform="matrix(0.03703703703703704,0,0,0.03703703703703704,29.62962962962963,0)" xlink:href="#aS"/><use transform="matrix(0.03703703703703704,0,0,0.03703703703703704,34.03703703703704,0)" xlink:href="#aT"/><use transform="matrix(0.03703703703703704,0,0,0.03703703703703704,41.44444444444444,0)" xlink:href="#aU"/><use transform="matrix(0.03703703703703704,0,0,0.03703703703703704,45.148148148148145,0)" xlink:href="#aV"/><use transform="matrix(0.03703703703703704,0,0,0.03703703703703704,53.25925925925926,0)" xlink:href="#aW"/><use transform="matrix(0.03703703703703704,0,0,0.03703703703703704,61.37037037037037,0)" xlink:href="#aT"/><use transform="matrix(0.03703703703703704,0,0,0.03703703703703704,68.77777777777779,0)" xlink:href="#aQ"/><use transform="matrix(0.03703703703703704,0,0,0.03703703703703704,72.4814814814815,0)" xlink:href="#aR"/></g><g id="l"><use transform="matrix(0.03703703703703704,0,0,0.03703703703703704,0,0)" xlink:href="#au"/><use transform="matrix(0.03703703703703704,0,0,0.03703703703703704,7.407407407407408,0)" xlink:href="#av"/><use transform="matrix(0.03703703703703704,0,0,0.03703703703703704,14.814814814814817,0)" xlink:href="#aw"/><use transform="matrix(0.03703703703703704,0,0,0.03703703703703704,25.888888888888893,0)" xlink:href="#ax"/><use transform="matrix(0.03703703703703704,0,0,0.03703703703703704,33.296296296296305,0)" xlink:href="#ay"/></g><g id="m"><use transform="matrix(0.03703703703703704,0,0,0.03703703703703704,0,0)" xlink:href="#aK"/><use transform="matrix(0.03703703703703704,0,0,0.03703703703703704,8.111111111111112,0)" xlink:href="#aL"/><use transform="matrix(0.03703703703703704,0,0,0.03703703703703704,15.51851851851852,0)" xlink:href="#aM"/><use transform="matrix(0.03703703703703704,0,0,0.03703703703703704,19.925925925925934,0)" xlink:href="#aN"/><use transform="matrix(0.03703703703703704,0,0,0.03703703703703704,27.333333333333343,0)" xlink:href="#aO"/></g><path fill="#008a0e" d="M182-182c0 78-84 86-111 141h115V0H12c-6-101 99-100 120-180 1-22-12-31-33-32-23 0-32 14-35 34l-49-3c5-45 32-70 84-70 51 0 83 22 83 69" id="aX"/><g id="n"><use transform="matrix(0.03703703703703704,0,0,0.03703703703703704,0,0)" xlink:href="#aP"/><use transform="matrix(0.03703703703703704,0,0,0.03703703703703704,7.407407407407408,0)" xlink:href="#aQ"/><use transform="matrix(0.03703703703703704,0,0,0.03703703703703704,11.111111111111112,0)" xlink:href="#aR"/><use transform="matrix(0.03703703703703704,0,0,0.03703703703703704,18.51851851851852,0)" xlink:href="#aQ"/><use transform="matrix(0.03703703703703704,0,0,0.03703703703703704,22.22222222222222,0)" xlink:href="#aR"/><use transform="matrix(0.03703703703703704,0,0,0.03703703703703704,29.62962962962963,0)" xlink:href="#aS"/><use transform="matrix(0.03703703703703704,0,0,0.03703703703703704,34.03703703703704,0)" xlink:href="#aT"/><use transform="matrix(0.03703703703703704,0,0,0.03703703703703704,41.44444444444444,0)" xlink:href="#aU"/><use transform="matrix(0.03703703703703704,0,0,0.03703703703703704,45.148148148148145,0)" xlink:href="#aV"/><use transform="matrix(0.03703703703703704,0,0,0.03703703703703704,53.25925925925926,0)" xlink:href="#aW"/><use transform="matrix(0.03703703703703704,0,0,0.03703703703703704,61.37037037037037,0)" xlink:href="#aT"/><use transform="matrix(0.03703703703703704,0,0,0.03703703703703704,68.77777777777779,0)" xlink:href="#aQ"/><use transform="matrix(0.03703703703703704,0,0,0.03703703703703704,72.4814814814815,0)" xlink:href="#aX"/></g><path fill="#333" d="M220-157c-53 9-28 100-34 157h-49v-107c1-27-5-49-29-50C55-147 81-57 75 0H25l-1-190h47c2 12-1 28 3 38 10-53 101-56 108 0 13-22 24-43 59-42 82 1 51 116 57 194h-49v-107c-1-25-5-48-29-50" id="aY"/><path fill="#333" d="M25-224v-37h50v37H25zM25 0v-190h50V0H25" id="aZ"/><path fill="#333" d="M135-194c87-1 58 113 63 194h-50c-7-57 23-157-34-157-59 0-34 97-39 157H25l-1-190h47c2 12-1 28 3 38 12-26 28-41 61-42" id="ba"/><path fill="#333" d="M110-194c64 0 96 36 96 99 0 64-35 99-97 99-61 0-95-36-95-99 0-62 34-99 96-99zm-1 164c35 0 45-28 45-65 0-40-10-65-43-65-34 0-45 26-45 65 0 36 10 65 43 65" id="bb"/><path fill="#333" d="M135-150c-39-12-60 13-60 57V0H25l-1-190h47c2 13-1 29 3 40 6-28 27-53 61-41v41" id="bc"/><g id="o"><use transform="matrix(0.03703703703703704,0,0,0.03703703703703704,0,0)" xlink:href="#aY"/><use transform="matrix(0.03703703703703704,0,0,0.03703703703703704,11.851851851851853,0)" xlink:href="#aZ"/><use transform="matrix(0.03703703703703704,0,0,0.03703703703703704,15.555555555555557,0)" xlink:href="#ba"/><use transform="matrix(0.03703703703703704,0,0,0.03703703703703704,23.66666666666667,0)" xlink:href="#bb"/><use transform="matrix(0.03703703703703704,0,0,0.03703703703703704,31.777777777777786,0)" xlink:href="#bc"/><path fill="#333" d="M36.3.72h1.33v1.4H36.3z"/></g><g id="p"><use transform="matrix(0.03703703703703704,0,0,0.03703703703703704,0,0)" xlink:href="#aC"/><use transform="matrix(0.03703703703703704,0,0,0.03703703703703704,4.407407407407408,0)" xlink:href="#aD"/><use transform="matrix(0.03703703703703704,0,0,0.03703703703703704,11.814814814814817,0)" xlink:href="#aE"/><use transform="matrix(0.03703703703703704,0,0,0.03703703703703704,14.740740740740744,0)" xlink:href="#aD"/><use transform="matrix(0.03703703703703704,0,0,0.03703703703703704,22.148148148148152,0)" xlink:href="#aF"/><use transform="matrix(0.03703703703703704,0,0,0.03703703703703704,29.55555555555556,0)" xlink:href="#aG"/><use transform="matrix(0.03703703703703704,0,0,0.03703703703703704,36.22222222222223,0)" xlink:href="#aD"/><use transform="matrix(0.03703703703703704,0,0,0.03703703703703704,43.62962962962963,0)" xlink:href="#ay"/></g><g id="q"><use transform="matrix(0.03703703703703704,0,0,0.03703703703703704,0,0)" xlink:href="#aP"/><use transform="matrix(0.03703703703703704,0,0,0.03703703703703704,7.407407407407408,0)" xlink:href="#aQ"/><use transform="matrix(0.03703703703703704,0,0,0.03703703703703704,11.111111111111112,0)" xlink:href="#aX"/><use transform="matrix(0.03703703703703704,0,0,0.03703703703703704,18.51851851851852,0)" xlink:href="#aQ"/><use transform="matrix(0.03703703703703704,0,0,0.03703703703703704,22.22222222222222,0)" xlink:href="#aP"/><use transform="matrix(0.03703703703703704,0,0,0.03703703703703704,29.62962962962963,0)" xlink:href="#aS"/><use transform="matrix(0.03703703703703704,0,0,0.03703703703703704,34.03703703703704,0)" xlink:href="#aT"/><use transform="matrix(0.03703703703703704,0,0,0.03703703703703704,41.44444444444444,0)" xlink:href="#aU"/><use transform="matrix(0.03703703703703704,0,0,0.03703703703703704,45.148148148148145,0)" xlink:href="#aV"/><use transform="matrix(0.03703703703703704,0,0,0.03703703703703704,53.25925925925926,0)" xlink:href="#aW"/><use transform="matrix(0.03703703703703704,0,0,0.03703703703703704,61.37037037037037,0)" xlink:href="#aT"/><use transform="matrix(0.03703703703703704,0,0,0.03703703703703704,68.77777777777779,0)" xlink:href="#aQ"/><use transform="matrix(0.03703703703703704,0,0,0.03703703703703704,72.4814814814815,0)" xlink:href="#aR"/></g><path fill="#333" d="M109-170H84l-4-78h32zm-65 0H19l-4-78h33" id="bd"/><path fill="#333" d="M14 0l48-248h34L48 0H14" id="be"/><path fill="#333" d="M67-158c22-48 132-52 116 29L158 0h-32l25-140c3-38-53-32-70-12C52-117 51-52 38 0H6l36-190h30" id="bf"/><path fill="#333" d="M50-231l6-30h32l-6 30H50zM6 0l37-190h31L37 0H6" id="bg"/><path fill="#333" d="M51-54c-9 22 5 41 31 30L79-1C43 14 10-4 19-52l22-115H19l5-23h22l19-43h21l-9 43h35l-4 23H73" id="bh"/><path fill="#333" d="M165-48c-4 18 1 34 23 27l-3 20c-29 8-62 0-52-35h-2C116-14 99 4 63 4 30 4 8-16 8-49c0-68 71-67 138-67 10-26 0-56-31-54-26 1-42 9-47 31l-32-5c8-67 160-71 144 15-5 28-9 54-15 81zM42-50c3 52 80 24 89-6 7-12 7-24 11-38-47 1-103-4-100 44" id="bi"/><path fill="#333" d="M6 0l50-261h32L37 0H6" id="bj"/><g id="r"><use transform="matrix(0.03703703703703704,0,0,0.03703703703703704,0,0)" xlink:href="#bd"/><use transform="matrix(0.03703703703703704,0,0,0.03703703703703704,4.703703703703704,0)" xlink:href="#be"/><use transform="matrix(0.03703703703703704,0,0,0.03703703703703704,8.407407407407408,0)" xlink:href="#bf"/><use transform="matrix(0.03703703703703704,0,0,0.03703703703703704,15.814814814814817,0)" xlink:href="#bg"/><use transform="matrix(0.03703703703703704,0,0,0.03703703703703704,18.740740740740744,0)" xlink:href="#bh"/><use transform="matrix(0.03703703703703704,0,0,0.03703703703703704,22.44444444444445,0)" xlink:href="#bg"/><use transform="matrix(0.03703703703703704,0,0,0.03703703703703704,25.370370370370377,0)" xlink:href="#bi"/><use transform="matrix(0.03703703703703704,0,0,0.03703703703703704,32.777777777777786,0)" xlink:href="#bj"/></g><path fill="#333" d="M44-68c0 29 11 47 38 47 30 0 42-19 51-41l28 9C148-21 126 4 82 4 31 4 10-29 12-85c3-77 74-140 146-93 12 8 15 23 18 40l-31 5c-1-22-13-36-36-36-52 0-65 49-65 101" id="bk"/><path fill="#333" d="M30-147c31-64 166-65 159 27C183-49 158 1 86 4 9 8 1-88 30-147zM88-20c53 0 68-48 68-100 0-31-11-51-44-50-52 1-68 46-68 97 0 32 13 53 44 53" id="bl"/><path fill="#333" d="M248-111c6-24 9-61-24-58-72 9-57 108-77 169h-31l26-142c3-37-50-30-64-10C52-115 50-51 37 0H6l36-190h30c-1 10-6 24-4 32 13-43 101-52 105 5 13-22 29-41 61-41 90 0 28 129 23 194h-31" id="bm"/><g id="s"><use transform="matrix(0.03703703703703704,0,0,0.03703703703703704,0,0)" xlink:href="#bk"/><use transform="matrix(0.03703703703703704,0,0,0.03703703703703704,6.666666666666668,0)" xlink:href="#bl"/><use transform="matrix(0.03703703703703704,0,0,0.03703703703703704,14.074074074074076,0)" xlink:href="#bm"/><use transform="matrix(0.03703703703703704,0,0,0.03703703703703704,25.148148148148152,0)" xlink:href="#bm"/><use transform="matrix(0.03703703703703704,0,0,0.03703703703703704,36.22222222222223,0)" xlink:href="#bg"/><use transform="matrix(0.03703703703703704,0,0,0.03703703703703704,39.14814814814815,0)" xlink:href="#bh"/><use transform="matrix(0.03703703703703704,0,0,0.03703703703703704,42.851851851851855,0)" xlink:href="#bd"/></g><g id="t"><use transform="matrix(0.03703703703703704,0,0,0.03703703703703704,0,0)" xlink:href="#aP"/><use transform="matrix(0.03703703703703704,0,0,0.03703703703703704,7.407407407407408,0)" xlink:href="#aQ"/><use transform="matrix(0.03703703703703704,0,0,0.03703703703703704,11.111111111111112,0)" xlink:href="#aR"/><use transform="matrix(0.03703703703703704,0,0,0.03703703703703704,18.51851851851852,0)" xlink:href="#aQ"/><use transform="matrix(0.03703703703703704,0,0,0.03703703703703704,22.22222222222222,0)" xlink:href="#aP"/></g><path fill="#fff" d="M23 0v-37h61v-169l-59 37v-38l62-41h46v211h57V0H23" id="bn"/><g id="u"><use transform="matrix(0.03703703703703704,0,0,0.03703703703703704,0,0)" xlink:href="#as"/><use transform="matrix(0.03703703703703704,0,0,0.03703703703703704,7.407407407407408,0)" xlink:href="#bn"/></g><path fill="#fff" d="M182-182c0 78-84 86-111 141h115V0H12c-6-101 99-100 120-180 1-22-12-31-33-32-23 0-32 14-35 34l-49-3c5-45 32-70 84-70 51 0 83 22 83 69" id="bo"/><g id="v"><use transform="matrix(0.03703703703703704,0,0,0.03703703703703704,0,0)" xlink:href="#as"/><use transform="matrix(0.03703703703703704,0,0,0.03703703703703704,7.407407407407408,0)" xlink:href="#bo"/></g><path fill="#fff" d="M128-127c34 4 56 21 59 58 7 91-148 94-172 28-4-9-6-17-7-26l51-5c1 24 16 35 40 36 23 0 39-12 38-36-1-31-31-36-65-34v-40c32 2 59-3 59-33 0-20-13-33-34-33s-33 13-35 32l-50-3c6-44 37-68 86-68 50 0 83 20 83 66 0 35-22 52-53 58" id="bp"/><g id="w"><use transform="matrix(0.03703703703703704,0,0,0.03703703703703704,0,0)" xlink:href="#as"/><use transform="matrix(0.03703703703703704,0,0,0.03703703703703704,7.407407407407408,0)" xlink:href="#bp"/></g><path fill="#5e5e5e" d="M190-63c-7 42-38 67-86 67-59 0-84-38-90-98-12-110 154-137 174-36l-49 2c-2-19-15-32-35-32-30 0-35 28-38 64-6 74 65 87 74 30" id="bq"/><path fill="#5e5e5e" d="M165-50V0h-47v-50H5v-38l105-160h55v161h33v37h-33zm-47-37l2-116L46-87h72" id="br"/><g id="x"><use transform="matrix(0.03703703703703704,0,0,0.03703703703703704,0,0)" xlink:href="#bq"/><use transform="matrix(0.03703703703703704,0,0,0.03703703703703704,7.407407407407408,0)" xlink:href="#br"/></g><path fill="#333" d="M25-224v-37h50v37H25zM75 22c2 45-34 59-81 51V38c22 5 31-5 31-27v-201h50V22" id="bs"/><g id="y"><use transform="matrix(0.03703703703703704,0,0,0.03703703703703704,0,0)" xlink:href="#aY"/><use transform="matrix(0.03703703703703704,0,0,0.03703703703703704,11.851851851851853,0)" xlink:href="#aL"/><use transform="matrix(0.03703703703703704,0,0,0.03703703703703704,19.259259259259256,0)" xlink:href="#bs"/><use transform="matrix(0.03703703703703704,0,0,0.03703703703703704,22.962962962962962,0)" xlink:href="#bb"/><use transform="matrix(0.03703703703703704,0,0,0.03703703703703704,31.07407407407408,0)" xlink:href="#bc"/></g><g id="z"><use transform="matrix(0.03703703703703704,0,0,0.03703703703703704,0,0)" xlink:href="#aR"/><use transform="matrix(0.03703703703703704,0,0,0.03703703703703704,7.407407407407408,0)" xlink:href="#aQ"/><use transform="matrix(0.03703703703703704,0,0,0.03703703703703704,11.111111111111112,0)" xlink:href="#aP"/><use transform="matrix(0.03703703703703704,0,0,0.03703703703703704,18.51851851851852,0)" xlink:href="#aQ"/><use transform="matrix(0.03703703703703704,0,0,0.03703703703703704,22.22222222222222,0)" xlink:href="#aP"/><use transform="matrix(0.03703703703703704,0,0,0.03703703703703704,29.62962962962963,0)" xlink:href="#aS"/><use transform="matrix(0.03703703703703704,0,0,0.03703703703703704,34.03703703703704,0)" xlink:href="#aT"/><use transform="matrix(0.03703703703703704,0,0,0.03703703703703704,41.44444444444444,0)" xlink:href="#aU"/><use transform="matrix(0.03703703703703704,0,0,0.03703703703703704,45.148148148148145,0)" xlink:href="#aV"/><use transform="matrix(0.03703703703703704,0,0,0.03703703703703704,53.25925925925926,0)" xlink:href="#aW"/><use transform="matrix(0.03703703703703704,0,0,0.03703703703703704,61.37037037037037,0)" xlink:href="#aT"/><use transform="matrix(0.03703703703703704,0,0,0.03703703703703704,68.77777777777779,0)" xlink:href="#aQ"/><use transform="matrix(0.03703703703703704,0,0,0.03703703703703704,72.4814814814815,0)" xlink:href="#aR"/></g><g id="A"><use transform="matrix(0.03703703703703704,0,0,0.03703703703703704,0,0)" xlink:href="#aR"/><use transform="matrix(0.03703703703703704,0,0,0.03703703703703704,7.407407407407408,0)" xlink:href="#aQ"/><use transform="matrix(0.03703703703703704,0,0,0.03703703703703704,11.111111111111112,0)" xlink:href="#aP"/><use transform="matrix(0.03703703703703704,0,0,0.03703703703703704,18.51851851851852,0)" xlink:href="#aQ"/><use transform="matrix(0.03703703703703704,0,0,0.03703703703703704,22.22222222222222,0)" xlink:href="#aP"/><use transform="matrix(0.03703703703703704,0,0,0.03703703703703704,29.62962962962963,0)" xlink:href="#aS"/><use transform="matrix(0.03703703703703704,0,0,0.03703703703703704,34.03703703703704,0)" xlink:href="#aT"/><use transform="matrix(0.03703703703703704,0,0,0.03703703703703704,41.44444444444444,0)" xlink:href="#aU"/><use transform="matrix(0.03703703703703704,0,0,0.03703703703703704,45.148148148148145,0)" xlink:href="#aV"/><use transform="matrix(0.03703703703703704,0,0,0.03703703703703704,53.25925925925926,0)" xlink:href="#aW"/><use transform="matrix(0.03703703703703704,0,0,0.03703703703703704,61.37037037037037,0)" xlink:href="#aT"/><use transform="matrix(0.03703703703703704,0,0,0.03703703703703704,68.77777777777779,0)" xlink:href="#aQ"/><use transform="matrix(0.03703703703703704,0,0,0.03703703703703704,72.4814814814815,0)" xlink:href="#aX"/></g><path fill="#008a0e" d="M128-127c34 4 56 21 59 58 7 91-148 94-172 28-4-9-6-17-7-26l51-5c1 24 16 35 40 36 23 0 39-12 38-36-1-31-31-36-65-34v-40c32 2 59-3 59-33 0-20-13-33-34-33s-33 13-35 32l-50-3c6-44 37-68 86-68 50 0 83 20 83 66 0 35-22 52-53 58" id="bt"/><g id="B"><use transform="matrix(0.03703703703703704,0,0,0.03703703703703704,0,0)" xlink:href="#aR"/><use transform="matrix(0.03703703703703704,0,0,0.03703703703703704,7.407407407407408,0)" xlink:href="#aQ"/><use transform="matrix(0.03703703703703704,0,0,0.03703703703703704,11.111111111111112,0)" xlink:href="#aP"/><use transform="matrix(0.03703703703703704,0,0,0.03703703703703704,18.51851851851852,0)" xlink:href="#aQ"/><use transform="matrix(0.03703703703703704,0,0,0.03703703703703704,22.22222222222222,0)" xlink:href="#aP"/><use transform="matrix(0.03703703703703704,0,0,0.03703703703703704,29.62962962962963,0)" xlink:href="#aS"/><use transform="matrix(0.03703703703703704,0,0,0.03703703703703704,34.03703703703704,0)" xlink:href="#aT"/><use transform="matrix(0.03703703703703704,0,0,0.03703703703703704,41.44444444444444,0)" xlink:href="#aU"/><use transform="matrix(0.03703703703703704,0,0,0.03703703703703704,45.148148148148145,0)" xlink:href="#aV"/><use transform="matrix(0.03703703703703704,0,0,0.03703703703703704,53.25925925925926,0)" xlink:href="#aW"/><use transform="matrix(0.03703703703703704,0,0,0.03703703703703704,61.37037037037037,0)" xlink:href="#aT"/><use transform="matrix(0.03703703703703704,0,0,0.03703703703703704,68.77777777777779,0)" xlink:href="#aQ"/><use transform="matrix(0.03703703703703704,0,0,0.03703703703703704,72.4814814814815,0)" xlink:href="#bt"/></g><path fill="#fff" d="M139-81c0-46-55-55-73-27H18l9-140h149v37H72l-4 63c44-38 133-4 122 66C201 21 21 35 11-62l49-4c5 18 15 30 39 30 26 0 40-18 40-45" id="bu"/><g id="C"><use transform="matrix(0.03703703703703704,0,0,0.03703703703703704,0,0)" xlink:href="#as"/><use transform="matrix(0.03703703703703704,0,0,0.03703703703703704,7.407407407407408,0)" xlink:href="#bu"/></g><path fill="#fff" d="M115-159c48 0 72 30 72 78 0 54-30 85-83 85-64 0-91-50-91-122 0-98 58-163 141-120 15 8 21 24 27 44l-47 6c-5-31-48-31-61-4-7 14-11 33-11 60 9-17 28-27 53-27zM102-35c24 0 36-20 36-45s-11-43-37-43c-23 0-36 14-36 38 0 27 11 50 37 50" id="bv"/><g id="D"><use transform="matrix(0.03703703703703704,0,0,0.03703703703703704,0,0)" xlink:href="#as"/><use transform="matrix(0.03703703703703704,0,0,0.03703703703703704,7.407407407407408,0)" xlink:href="#bv"/></g><path fill="#fff" d="M52 0c1-96 47-148 87-207H15v-41h169v40c-36 62-79 113-81 208H52" id="bw"/><g id="E"><use transform="matrix(0.03703703703703704,0,0,0.03703703703703704,0,0)" xlink:href="#as"/><use transform="matrix(0.03703703703703704,0,0,0.03703703703703704,7.407407407407408,0)" xlink:href="#bw"/></g><g id="F"><use transform="matrix(0.03703703703703704,0,0,0.03703703703703704,0,0)" xlink:href="#aY"/><use transform="matrix(0.03703703703703704,0,0,0.03703703703703704,11.851851851851853,0)" xlink:href="#aL"/><use transform="matrix(0.03703703703703704,0,0,0.03703703703703704,19.259259259259256,0)" xlink:href="#bs"/><use transform="matrix(0.03703703703703704,0,0,0.03703703703703704,22.962962962962962,0)" xlink:href="#bb"/><use transform="matrix(0.03703703703703704,0,0,0.03703703703703704,31.07407407407408,0)" xlink:href="#bc"/><path fill="#333" d="M35.6.72h1.32v1.4H35.6z"/></g><path fill="#008a0e" d="M165-50V0h-47v-50H5v-38l105-160h55v161h33v37h-33zm-47-37l2-116L46-87h72" id="bx"/><g id="G"><use transform="matrix(0.03703703703703704,0,0,0.03703703703703704,0,0)" xlink:href="#aR"/><use transform="matrix(0.03703703703703704,0,0,0.03703703703703704,7.407407407407408,0)" xlink:href="#aQ"/><use transform="matrix(0.03703703703703704,0,0,0.03703703703703704,11.111111111111112,0)" xlink:href="#aP"/><use transform="matrix(0.03703703703703704,0,0,0.03703703703703704,18.51851851851852,0)" xlink:href="#aQ"/><use transform="matrix(0.03703703703703704,0,0,0.03703703703703704,22.22222222222222,0)" xlink:href="#aP"/><use transform="matrix(0.03703703703703704,0,0,0.03703703703703704,29.62962962962963,0)" xlink:href="#aS"/><use transform="matrix(0.03703703703703704,0,0,0.03703703703703704,34.03703703703704,0)" xlink:href="#aT"/><use transform="matrix(0.03703703703703704,0,0,0.03703703703703704,41.44444444444444,0)" xlink:href="#aU"/><use transform="matrix(0.03703703703703704,0,0,0.03703703703703704,45.148148148148145,0)" xlink:href="#aV"/><use transform="matrix(0.03703703703703704,0,0,0.03703703703703704,53.25925925925926,0)" xlink:href="#aW"/><use transform="matrix(0.03703703703703704,0,0,0.03703703703703704,61.37037037037037,0)" xlink:href="#aT"/><use transform="matrix(0.03703703703703704,0,0,0.03703703703703704,68.77777777777779,0)" xlink:href="#aQ"/><use transform="matrix(0.03703703703703704,0,0,0.03703703703703704,72.4814814814815,0)" xlink:href="#bx"/></g><path fill="#fff" d="M138-131c27 9 52 24 51 61 0 53-36 74-89 74S11-19 11-69c0-35 22-54 51-61-78-25-46-121 38-121 51 0 83 19 83 66 0 30-18 49-45 54zm-38-16c24 0 32-13 32-36 1-23-11-34-32-34-22 0-33 12-32 34 0 22 9 36 32 36zm1 116c27 0 37-17 37-43 0-25-13-39-39-39-24 0-37 15-37 40 0 27 11 42 39 42" id="by"/><g id="H"><use transform="matrix(0.03703703703703704,0,0,0.03703703703703704,0,0)" xlink:href="#as"/><use transform="matrix(0.03703703703703704,0,0,0.03703703703703704,7.407407407407408,0)" xlink:href="#by"/></g><path fill="#fff" d="M99-251c69 0 84 53 88 123 5 99-61 162-144 118-15-8-21-25-26-45l46-6c4 31 50 33 63 7 7-15 12-36 12-60-9 18-29 28-54 28-48 0-72-32-72-82 0-55 31-83 87-83zm-1 128c24 0 37-16 37-39 0-27-10-51-37-51-25 0-35 19-35 45 0 25 10 45 35 45" id="bz"/><g id="I"><use transform="matrix(0.03703703703703704,0,0,0.03703703703703704,0,0)" xlink:href="#as"/><use transform="matrix(0.03703703703703704,0,0,0.03703703703703704,7.407407407407408,0)" xlink:href="#bz"/></g><g id="J"><use transform="matrix(0.03703703703703704,0,0,0.03703703703703704,0,0)" xlink:href="#aR"/><use transform="matrix(0.03703703703703704,0,0,0.03703703703703704,7.407407407407408,0)" xlink:href="#aQ"/><use transform="matrix(0.03703703703703704,0,0,0.03703703703703704,11.111111111111112,0)" xlink:href="#aP"/><use transform="matrix(0.03703703703703704,0,0,0.03703703703703704,18.51851851851852,0)" xlink:href="#aQ"/><use transform="matrix(0.03703703703703704,0,0,0.03703703703703704,22.22222222222222,0)" xlink:href="#aP"/></g><g id="K"><use transform="matrix(0.03703703703703704,0,0,0.03703703703703704,0,0)" xlink:href="#as"/><use transform="matrix(0.03703703703703704,0,0,0.03703703703703704,7.407407407407408,0)" xlink:href="#bn"/><use transform="matrix(0.03703703703703704,0,0,0.03703703703703704,14.074074074074076,0)" xlink:href="#bn"/></g><g id="L"><use transform="matrix(0.03703703703703704,0,0,0.03703703703703704,0,0)" xlink:href="#aK"/><use transform="matrix(0.03703703703703704,0,0,0.03703703703703704,8.111111111111112,0)" xlink:href="#aL"/><use transform="matrix(0.03703703703703704,0,0,0.03703703703703704,15.51851851851852,0)" xlink:href="#aM"/><use transform="matrix(0.03703703703703704,0,0,0.03703703703703704,19.925925925925934,0)" xlink:href="#aN"/><use transform="matrix(0.03703703703703704,0,0,0.03703703703703704,27.333333333333343,0)" xlink:href="#aO"/><path fill="#333" d="M34.78.72h1.33v1.4H34.8z"/></g><g id="M"><use transform="matrix(0.03703703703703704,0,0,0.03703703703703704,0,0)" xlink:href="#aR"/><use transform="matrix(0.03703703703703704,0,0,0.03703703703703704,7.407407407407408,0)" xlink:href="#aQ"/><use transform="matrix(0.03703703703703704,0,0,0.03703703703703704,11.111111111111112,0)" xlink:href="#aP"/><use transform="matrix(0.03703703703703704,0,0,0.03703703703703704,18.51851851851852,0)" xlink:href="#aQ"/><use transform="matrix(0.03703703703703704,0,0,0.03703703703703704,22.22222222222222,0)" xlink:href="#aR"/></g><path fill="#fff" d="M220-157c-53 9-28 100-34 157h-49v-107c1-27-5-49-29-50C55-147 81-57 75 0H25l-1-190h47c2 12-1 28 3 38 10-53 101-56 108 0 13-22 24-43 59-42 82 1 51 116 57 194h-49v-107c-1-25-5-48-29-50" id="bA"/><g id="N"><use transform="matrix(0.03703703703703704,0,0,0.03703703703703704,0,0)" xlink:href="#bA"/><use transform="matrix(0.03703703703703704,0,0,0.03703703703703704,11.851851851851853,0)" xlink:href="#bn"/><use transform="matrix(0.03703703703703704,0,0,0.03703703703703704,19.259259259259256,0)" xlink:href="#bp"/></g><g id="O"><use transform="matrix(0.03703703703703704,0,0,0.03703703703703704,0,0)" xlink:href="#aR"/><use transform="matrix(0.03703703703703704,0,0,0.03703703703703704,7.407407407407408,0)" xlink:href="#aQ"/><use transform="matrix(0.03703703703703704,0,0,0.03703703703703704,11.111111111111112,0)" xlink:href="#aR"/><use transform="matrix(0.03703703703703704,0,0,0.03703703703703704,18.51851851851852,0)" xlink:href="#aQ"/><use transform="matrix(0.03703703703703704,0,0,0.03703703703703704,22.22222222222222,0)" xlink:href="#aP"/></g><g id="P"><use transform="matrix(0.03703703703703704,0,0,0.03703703703703704,0,0)" xlink:href="#aR"/><use transform="matrix(0.03703703703703704,0,0,0.03703703703703704,7.407407407407408,0)" xlink:href="#aQ"/><use transform="matrix(0.03703703703703704,0,0,0.03703703703703704,11.111111111111112,0)" xlink:href="#aR"/><use transform="matrix(0.03703703703703704,0,0,0.03703703703703704,18.51851851851852,0)" xlink:href="#aQ"/><use transform="matrix(0.03703703703703704,0,0,0.03703703703703704,22.22222222222222,0)" xlink:href="#aP"/><use transform="matrix(0.03703703703703704,0,0,0.03703703703703704,29.62962962962963,0)" xlink:href="#aS"/><use transform="matrix(0.03703703703703704,0,0,0.03703703703703704,34.03703703703704,0)" xlink:href="#aT"/><use transform="matrix(0.03703703703703704,0,0,0.03703703703703704,41.44444444444444,0)" xlink:href="#aU"/><use transform="matrix(0.03703703703703704,0,0,0.03703703703703704,45.148148148148145,0)" xlink:href="#aV"/><use transform="matrix(0.03703703703703704,0,0,0.03703703703703704,53.25925925925926,0)" xlink:href="#aW"/><use transform="matrix(0.03703703703703704,0,0,0.03703703703703704,61.37037037037037,0)" xlink:href="#aT"/><use transform="matrix(0.03703703703703704,0,0,0.03703703703703704,68.77777777777779,0)" xlink:href="#aQ"/><use transform="matrix(0.03703703703703704,0,0,0.03703703703703704,72.4814814814815,0)" xlink:href="#aR"/></g><g id="Q"><use transform="matrix(0.03703703703703704,0,0,0.03703703703703704,0,0)" xlink:href="#as"/><use transform="matrix(0.03703703703703704,0,0,0.03703703703703704,7.407407407407408,0)" xlink:href="#bn"/><use transform="matrix(0.03703703703703704,0,0,0.03703703703703704,14.814814814814817,0)" xlink:href="#at"/></g><g id="R"><use transform="matrix(0.03703703703703704,0,0,0.03703703703703704,0,0)" xlink:href="#aR"/><use transform="matrix(0.03703703703703704,0,0,0.03703703703703704,7.407407407407408,0)" xlink:href="#aQ"/><use transform="matrix(0.03703703703703704,0,0,0.03703703703703704,11.111111111111112,0)" xlink:href="#aR"/><use transform="matrix(0.03703703703703704,0,0,0.03703703703703704,18.51851851851852,0)" xlink:href="#aQ"/><use transform="matrix(0.03703703703703704,0,0,0.03703703703703704,22.22222222222222,0)" xlink:href="#aP"/><use transform="matrix(0.03703703703703704,0,0,0.03703703703703704,29.62962962962963,0)" xlink:href="#aS"/><use transform="matrix(0.03703703703703704,0,0,0.03703703703703704,34.03703703703704,0)" xlink:href="#aT"/><use transform="matrix(0.03703703703703704,0,0,0.03703703703703704,41.44444444444444,0)" xlink:href="#aU"/><use transform="matrix(0.03703703703703704,0,0,0.03703703703703704,45.148148148148145,0)" xlink:href="#aV"/><use transform="matrix(0.03703703703703704,0,0,0.03703703703703704,53.25925925925926,0)" xlink:href="#aW"/><use transform="matrix(0.03703703703703704,0,0,0.03703703703703704,61.37037037037037,0)" xlink:href="#aT"/><use transform="matrix(0.03703703703703704,0,0,0.03703703703703704,68.77777777777779,0)" xlink:href="#aQ"/><use transform="matrix(0.03703703703703704,0,0,0.03703703703703704,72.4814814814815,0)" xlink:href="#aX"/></g><g id="S"><use transform="matrix(0.03703703703703704,0,0,0.03703703703703704,0,0)" xlink:href="#as"/><use transform="matrix(0.03703703703703704,0,0,0.03703703703703704,7.407407407407408,0)" xlink:href="#bn"/><use transform="matrix(0.03703703703703704,0,0,0.03703703703703704,14.814814814814817,0)" xlink:href="#bo"/></g><g id="T"><use transform="matrix(0.03703703703703704,0,0,0.03703703703703704,0,0)" xlink:href="#as"/><use transform="matrix(0.03703703703703704,0,0,0.03703703703703704,7.407407407407408,0)" xlink:href="#bn"/><use transform="matrix(0.03703703703703704,0,0,0.03703703703703704,14.814814814814817,0)" xlink:href="#bu"/></g><g id="U"><use transform="matrix(0.03703703703703704,0,0,0.03703703703703704,0,0)" xlink:href="#aR"/><use transform="matrix(0.03703703703703704,0,0,0.03703703703703704,7.407407407407408,0)" xlink:href="#aQ"/><use transform="matrix(0.03703703703703704,0,0,0.03703703703703704,11.111111111111112,0)" xlink:href="#aX"/><use transform="matrix(0.03703703703703704,0,0,0.03703703703703704,18.51851851851852,0)" xlink:href="#aQ"/><use transform="matrix(0.03703703703703704,0,0,0.03703703703703704,22.22222222222222,0)" xlink:href="#aP"/></g><g id="V"><use transform="matrix(0.03703703703703704,0,0,0.03703703703703704,0,0)" xlink:href="#bA"/><use transform="matrix(0.03703703703703704,0,0,0.03703703703703704,11.851851851851853,0)" xlink:href="#bn"/><use transform="matrix(0.03703703703703704,0,0,0.03703703703703704,19.259259259259256,0)" xlink:href="#bw"/></g><g id="W"><use transform="matrix(0.03703703703703704,0,0,0.03703703703703704,0,0)" xlink:href="#aR"/><use transform="matrix(0.03703703703703704,0,0,0.03703703703703704,7.407407407407408,0)" xlink:href="#aQ"/><use transform="matrix(0.03703703703703704,0,0,0.03703703703703704,11.111111111111112,0)" xlink:href="#bt"/><use transform="matrix(0.03703703703703704,0,0,0.03703703703703704,18.51851851851852,0)" xlink:href="#aQ"/><use transform="matrix(0.03703703703703704,0,0,0.03703703703703704,22.22222222222222,0)" xlink:href="#aP"/></g><g id="X"><use transform="matrix(0.03703703703703704,0,0,0.03703703703703704,0,0)" xlink:href="#aR"/><use transform="matrix(0.03703703703703704,0,0,0.03703703703703704,7.407407407407408,0)" xlink:href="#aQ"/><use transform="matrix(0.03703703703703704,0,0,0.03703703703703704,11.111111111111112,0)" xlink:href="#aR"/><use transform="matrix(0.03703703703703704,0,0,0.03703703703703704,18.51851851851852,0)" xlink:href="#aQ"/><use transform="matrix(0.03703703703703704,0,0,0.03703703703703704,22.22222222222222,0)" xlink:href="#aR"/><use transform="matrix(0.03703703703703704,0,0,0.03703703703703704,29.62962962962963,0)" xlink:href="#aS"/><use transform="matrix(0.03703703703703704,0,0,0.03703703703703704,34.03703703703704,0)" xlink:href="#aT"/><use transform="matrix(0.03703703703703704,0,0,0.03703703703703704,41.44444444444444,0)" xlink:href="#aU"/><use transform="matrix(0.03703703703703704,0,0,0.03703703703703704,45.148148148148145,0)" xlink:href="#aV"/><use transform="matrix(0.03703703703703704,0,0,0.03703703703703704,53.25925925925926,0)" xlink:href="#aW"/><use transform="matrix(0.03703703703703704,0,0,0.03703703703703704,61.37037037037037,0)" xlink:href="#aT"/><use transform="matrix(0.03703703703703704,0,0,0.03703703703703704,68.77777777777779,0)" xlink:href="#aQ"/><use transform="matrix(0.03703703703703704,0,0,0.03703703703703704,72.4814814814815,0)" xlink:href="#aR"/></g><path fill="#fff" d="M165-50V0h-47v-50H5v-38l105-160h55v161h33v37h-33zm-47-37l2-116L46-87h72" id="bB"/><g id="Y"><use transform="matrix(0.03703703703703704,0,0,0.03703703703703704,0,0)" xlink:href="#as"/><use transform="matrix(0.03703703703703704,0,0,0.03703703703703704,7.407407407407408,0)" xlink:href="#bn"/><use transform="matrix(0.03703703703703704,0,0,0.03703703703703704,14.814814814814817,0)" xlink:href="#bB"/></g><g id="Z"><use transform="matrix(0.03703703703703704,0,0,0.03703703703703704,0,0)" xlink:href="#aR"/><use transform="matrix(0.03703703703703704,0,0,0.03703703703703704,7.407407407407408,0)" xlink:href="#aQ"/><use transform="matrix(0.03703703703703704,0,0,0.03703703703703704,11.111111111111112,0)" xlink:href="#aX"/><use transform="matrix(0.03703703703703704,0,0,0.03703703703703704,18.51851851851852,0)" xlink:href="#aQ"/><use transform="matrix(0.03703703703703704,0,0,0.03703703703703704,22.22222222222222,0)" xlink:href="#aP"/><use transform="matrix(0.03703703703703704,0,0,0.03703703703703704,29.62962962962963,0)" xlink:href="#aS"/><use transform="matrix(0.03703703703703704,0,0,0.03703703703703704,34.03703703703704,0)" xlink:href="#aT"/><use transform="matrix(0.03703703703703704,0,0,0.03703703703703704,41.44444444444444,0)" xlink:href="#aU"/><use transform="matrix(0.03703703703703704,0,0,0.03703703703703704,45.148148148148145,0)" xlink:href="#aV"/><use transform="matrix(0.03703703703703704,0,0,0.03703703703703704,53.25925925925926,0)" xlink:href="#aW"/><use transform="matrix(0.03703703703703704,0,0,0.03703703703703704,61.37037037037037,0)" xlink:href="#aT"/><use transform="matrix(0.03703703703703704,0,0,0.03703703703703704,68.77777777777779,0)" xlink:href="#aQ"/><use transform="matrix(0.03703703703703704,0,0,0.03703703703703704,72.4814814814815,0)" xlink:href="#aR"/></g><g id="aa"><use transform="matrix(0.03703703703703704,0,0,0.03703703703703704,0,0)" xlink:href="#as"/><use transform="matrix(0.03703703703703704,0,0,0.03703703703703704,7.407407407407408,0)" xlink:href="#bn"/><use transform="matrix(0.03703703703703704,0,0,0.03703703703703704,14.814814814814817,0)" xlink:href="#bv"/></g><g id="ab"><use transform="matrix(0.03703703703703704,0,0,0.03703703703703704,0,0)" xlink:href="#as"/><use transform="matrix(0.03703703703703704,0,0,0.03703703703703704,7.407407407407408,0)" xlink:href="#bo"/><use transform="matrix(0.03703703703703704,0,0,0.03703703703703704,14.814814814814817,0)" xlink:href="#at"/></g><g id="ac"><use transform="matrix(0.03703703703703704,0,0,0.03703703703703704,0,0)" xlink:href="#aR"/><use transform="matrix(0.03703703703703704,0,0,0.03703703703703704,7.407407407407408,0)" xlink:href="#aQ"/><use transform="matrix(0.03703703703703704,0,0,0.03703703703703704,11.111111111111112,0)" xlink:href="#aX"/><use transform="matrix(0.03703703703703704,0,0,0.03703703703703704,18.51851851851852,0)" xlink:href="#aQ"/><use transform="matrix(0.03703703703703704,0,0,0.03703703703703704,22.22222222222222,0)" xlink:href="#aP"/><use transform="matrix(0.03703703703703704,0,0,0.03703703703703704,29.62962962962963,0)" xlink:href="#aS"/><use transform="matrix(0.03703703703703704,0,0,0.03703703703703704,34.03703703703704,0)" xlink:href="#aT"/><use transform="matrix(0.03703703703703704,0,0,0.03703703703703704,41.44444444444444,0)" xlink:href="#aU"/><use transform="matrix(0.03703703703703704,0,0,0.03703703703703704,45.148148148148145,0)" xlink:href="#aV"/><use transform="matrix(0.03703703703703704,0,0,0.03703703703703704,53.25925925925926,0)" xlink:href="#aW"/><use transform="matrix(0.03703703703703704,0,0,0.03703703703703704,61.37037037037037,0)" xlink:href="#aT"/><use transform="matrix(0.03703703703703704,0,0,0.03703703703703704,68.77777777777779,0)" xlink:href="#aQ"/><use transform="matrix(0.03703703703703704,0,0,0.03703703703703704,72.4814814814815,0)" xlink:href="#aX"/></g><g id="ad"><use transform="matrix(0.03703703703703704,0,0,0.03703703703703704,0,0)" xlink:href="#bA"/><use transform="matrix(0.03703703703703704,0,0,0.03703703703703704,11.851851851851853,0)" xlink:href="#bn"/><use transform="matrix(0.03703703703703704,0,0,0.03703703703703704,19.259259259259256,0)" xlink:href="#by"/></g><g id="ae"><use transform="matrix(0.03703703703703704,0,0,0.03703703703703704,0,0)" xlink:href="#aR"/><use transform="matrix(0.03703703703703704,0,0,0.03703703703703704,7.407407407407408,0)" xlink:href="#aQ"/><use transform="matrix(0.03703703703703704,0,0,0.03703703703703704,11.111111111111112,0)" xlink:href="#aX"/><use transform="matrix(0.03703703703703704,0,0,0.03703703703703704,18.51851851851852,0)" xlink:href="#aQ"/><use transform="matrix(0.03703703703703704,0,0,0.03703703703703704,22.22222222222222,0)" xlink:href="#aP"/><use transform="matrix(0.03703703703703704,0,0,0.03703703703703704,29.62962962962963,0)" xlink:href="#aS"/><use transform="matrix(0.03703703703703704,0,0,0.03703703703703704,34.03703703703704,0)" xlink:href="#aT"/><use transform="matrix(0.03703703703703704,0,0,0.03703703703703704,41.44444444444444,0)" xlink:href="#aU"/><use transform="matrix(0.03703703703703704,0,0,0.03703703703703704,45.148148148148145,0)" xlink:href="#aV"/><use transform="matrix(0.03703703703703704,0,0,0.03703703703703704,53.25925925925926,0)" xlink:href="#aW"/><use transform="matrix(0.03703703703703704,0,0,0.03703703703703704,61.37037037037037,0)" xlink:href="#aT"/><use transform="matrix(0.03703703703703704,0,0,0.03703703703703704,68.77777777777779,0)" xlink:href="#aQ"/><use transform="matrix(0.03703703703703704,0,0,0.03703703703703704,72.4814814814815,0)" xlink:href="#bt"/></g><g id="af"><use transform="matrix(0.03703703703703704,0,0,0.03703703703703704,0,0)" xlink:href="#as"/><use transform="matrix(0.03703703703703704,0,0,0.03703703703703704,7.407407407407408,0)" xlink:href="#bn"/><use transform="matrix(0.03703703703703704,0,0,0.03703703703703704,14.814814814814817,0)" xlink:href="#bz"/></g><g id="ag"><use transform="matrix(0.03703703703703704,0,0,0.03703703703703704,0,0)" xlink:href="#aR"/><use transform="matrix(0.03703703703703704,0,0,0.03703703703703704,7.407407407407408,0)" xlink:href="#aQ"/><use transform="matrix(0.03703703703703704,0,0,0.03703703703703704,11.111111111111112,0)" xlink:href="#bx"/><use transform="matrix(0.03703703703703704,0,0,0.03703703703703704,18.51851851851852,0)" xlink:href="#aQ"/><use transform="matrix(0.03703703703703704,0,0,0.03703703703703704,22.22222222222222,0)" xlink:href="#aP"/></g></defs></g></svg>