<?xml version="1.0" encoding="UTF-8" standalone="no"?>
<svg
   width="219"
   height="1342"
   version="1.1"
   id="svg409"
   sodipodi:docname="git-history-regular-branch.svg"
   inkscape:version="1.3 (0e150ed6c4, 2023-07-21)"
   xmlns:inkscape="http://www.inkscape.org/namespaces/inkscape"
   xmlns:sodipodi="http://sodipodi.sourceforge.net/DTD/sodipodi-0.dtd"
   xmlns:xlink="http://www.w3.org/1999/xlink"
   xmlns="http://www.w3.org/2000/svg"
   xmlns:svg="http://www.w3.org/2000/svg"
   xmlns:lucid="lucid">
  <defs
     id="defs410" />
  <sodipodi:namedview
     id="namedview409"
     pagecolor="#ffffff"
     bordercolor="#000000"
     borderopacity="0.25"
     inkscape:showpageshadow="2"
     inkscape:pageopacity="0.0"
     inkscape:pagecheckerboard="0"
     inkscape:deskcolor="#d1d1d1"
     inkscape:zoom="1.3554396"
     inkscape:cx="109.55855"
     inkscape:cy="671"
     inkscape:window-width="3840"
     inkscape:window-height="2054"
     inkscape:window-x="-11"
     inkscape:window-y="-11"
     inkscape:window-maximized="1"
     inkscape:current-layer="svg409" />
  <g
     transform="translate(-459 471)"
     lucid:page-tab-id="0_0"
     id="g409"
     style="fill:none">
    <path
       d="M452.24-529.8c0-3.32 2.7-6 6-6h304c3.3 0 6 2.68 6 6V874.6c0 3.3-2.7 6-6 6h-304c-3.3 0-6-2.7-6-6z"
       stroke="#5e5e5e"
       stroke-width="3"
       fill="#fff"
       id="path1"
       style="fill:none" />
    <path
       d="M452.24-474.48h316"
       stroke="#5e5e5e"
       stroke-width="3"
       fill="none"
       id="path2"
       style="fill:none" />
    <use
       xlink:href="#a"
       transform="matrix(1,0,0,1,476.2406332552328,-519.8087984175995) translate(0 25.22222222222222)"
       id="use2"
       style="fill:none" />
    <use
       xlink:href="#b"
       transform="matrix(1,0,0,1,476.2406332552328,-519.8087984175995) translate(117.2716049382716 25.22222222222222)"
       id="use3"
       style="fill:none" />
    <path
       d="M502.6-439.37c0 8.56-6.93 15.5-15.5 15.5-8.55 0-15.5-6.94-15.5-15.5 0-8.56 6.95-15.5 15.5-15.5 8.57 0 15.5 6.94 15.5 15.5z"
       stroke="#5e5e5e"
       stroke-width="3"
       fill="#5e5e5e"
       id="path3"
       style="fill:none" />
    <use
       xlink:href="#c"
       transform="matrix(1,0,0,1,483.61330354747776,-442.86648478742745) translate(-3.9074074074074083 10.666666666666668)"
       id="use4"
       style="fill:none" />
    <path
       d="M542.6-219.58c0-3.3 2.7-6 6-6h85.95c3.3 0 6 2.7 6 6v44c0 3.32-2.7 6-6 6H548.6c-3.3 0-6-2.68-6-6z"
       fill="none"
       id="path4"
       style="fill:none" />
    <use
       xlink:href="#d"
       transform="matrix(1,0,0,1,554.6133035474788,-213.57898478742743) translate(0 11.166666666666668)"
       id="use5"
       style="fill:none" />
    <use
       xlink:href="#e"
       transform="matrix(1,0,0,1,554.6133035474788,-213.57898478742743) translate(40.70370370370371 11.166666666666668)"
       id="use6"
       style="fill:none" />
    <use
       xlink:href="#f"
       transform="matrix(1,0,0,1,554.6133035474788,-213.57898478742743) translate(0 27.166666666666668)"
       id="use7"
       style="fill:none" />
    <use
       xlink:href="#g"
       transform="matrix(1,0,0,1,554.6133035474788,-213.57898478742743) translate(51.03703703703704 27.166666666666668)"
       id="use8"
       style="fill:none" />
    <path
       d="M542.6-387.6c0-3.32 2.7-6 6-6h92.7c3.3 0 6 2.68 6 6v44c0 3.3-2.7 6-6 6h-92.7c-3.3 0-6-2.7-6-6z"
       fill="none"
       id="path8"
       style="fill:none" />
    <use
       xlink:href="#h"
       transform="matrix(1,0,0,1,554.6133035474788,-381.60898478742746) translate(0 11.166666666666668)"
       id="use9"
       style="fill:none" />
    <use
       xlink:href="#i"
       transform="matrix(1,0,0,1,554.6133035474788,-381.60898478742746) translate(40.70370370370371 11.166666666666668)"
       id="use10"
       style="fill:none" />
    <use
       xlink:href="#j"
       transform="matrix(1,0,0,1,554.6133035474788,-381.60898478742746) translate(0 27.166666666666668)"
       id="use11"
       style="fill:none" />
    <use
       xlink:href="#k"
       transform="matrix(1,0,0,1,554.6133035474788,-381.60898478742746) translate(51.03703703703704 27.166666666666668)"
       id="use12"
       style="fill:none" />
    <path
       d="M542.6-331.6c0-3.3 2.7-6 6-6h92.7c3.3 0 6 2.7 6 6v44c0 3.32-2.7 6-6 6h-92.7c-3.3 0-6-2.68-6-6z"
       fill="none"
       id="path12"
       style="fill:none" />
    <use
       xlink:href="#l"
       transform="matrix(1,0,0,1,554.6133035474788,-325.59898478742747) translate(0 11.166666666666668)"
       id="use13"
       style="fill:none" />
    <use
       xlink:href="#m"
       transform="matrix(1,0,0,1,554.6133035474788,-325.59898478742747) translate(40.70370370370371 11.166666666666668)"
       id="use14"
       style="fill:none" />
    <use
       xlink:href="#j"
       transform="matrix(1,0,0,1,554.6133035474788,-325.59898478742747) translate(0 27.166666666666668)"
       id="use15"
       style="fill:none" />
    <use
       xlink:href="#n"
       transform="matrix(1,0,0,1,554.6133035474788,-325.59898478742747) translate(51.03703703703704 27.166666666666668)"
       id="use16"
       style="fill:none" />
    <path
       d="M542.6-275.6c0-3.3 2.7-6 6-6h92.7c3.3 0 6 2.7 6 6v44.02c0 3.3-2.7 6-6 6h-92.7c-3.3 0-6-2.7-6-6z"
       fill="none"
       id="path16"
       style="fill:none" />
    <use
       xlink:href="#l"
       transform="matrix(1,0,0,1,554.6133035474775,-269.5889847874275) translate(0 11.166666666666668)"
       id="use17"
       style="fill:none" />
    <use
       xlink:href="#o"
       transform="matrix(1,0,0,1,554.6133035474775,-269.5889847874275) translate(40.70370370370371 11.166666666666668)"
       id="use18"
       style="fill:none" />
    <use
       xlink:href="#p"
       transform="matrix(1,0,0,1,554.6133035474775,-269.5889847874275) translate(0 27.166666666666668)"
       id="use19"
       style="fill:none" />
    <use
       xlink:href="#q"
       transform="matrix(1,0,0,1,554.6133035474775,-269.5889847874275) translate(51.03703703703704 27.166666666666668)"
       id="use20"
       style="fill:none" />
    <path
       d="M487.1-421.85v2m0 4v4m0 4v3.98m0 4v4m0 4v3.98m0 4v4m0 4v4m0 4v4m0 3.98v4m0 4v4m0 3.98v4m0 4v4m0 4v3.98m0 4v4m0 4v3.98m0 4v4m0 4v3.98m0 4v4m0 4v4m0 3.98v4m0 4v4m0 3.98v4m0 4v4m0 3.98v4m0 4v4m0 4v3.98m0 4v4m0 4v3.98m0 4v4m0 4v4m0 3.98v4m0 4v4m0 3.98v4m0 4v4m0 3.98v4m0 4v4m0 4v3.98m0 4v4m0 4v3.98m0 4v4m0 4v3.98m0 4v4m0 4v4m0 3.98v4m0 4v4m0 3.98v4m0 4v4m0 3.98v4m0 4v4m0 4v3.98m0 4v4m0 4v3.98m0 4v4m0 4v3.98m0 4v4m0 4v4m0 3.98v4m0 4v4m0 3.98v4m0 4v4m0 3.98v4m0 4v4m0 4v3.98m0 4v2"
       stroke="#5e5e5e"
       fill="none"
       id="path20"
       style="fill:none" />
    <path
       d="M487.1-422.35l.5-.07v.6h-1v-.6zM487.6 82.14l-.5-.06-.5.06v-.58h1z"
       fill="#5e5e5e"
       id="path21"
       style="fill:none" />
    <path
       d="M502.6-461.37c0-3.32 2.7-6 6-6h99c3.3 0 6 2.68 6 6v44c0 3.32-2.7 6-6 6h-99c-3.3 0-6-2.68-6-6z"
       fill="none"
       id="path22"
       style="fill:none" />
    <use
       xlink:href="#r"
       transform="matrix(1,0,0,1,514.6133035474779,-455.37148478742745) translate(0 11.166666666666668)"
       id="use22"
       style="fill:none" />
    <use
       xlink:href="#s"
       transform="matrix(1,0,0,1,514.6133035474779,-455.37148478742745) translate(39.40740740740741 11.166666666666668)"
       id="use23"
       style="fill:none" />
    <use
       xlink:href="#j"
       transform="matrix(1,0,0,1,514.6133035474779,-455.37148478742745) translate(0 27.166666666666668)"
       id="use24"
       style="fill:none" />
    <use
       xlink:href="#t"
       transform="matrix(1,0,0,1,514.6133035474779,-455.37148478742745) translate(51.03703703703704 27.166666666666668)"
       id="use25"
       style="fill:none" />
    <path
       d="M542.6-365.6c0 8.56-6.93 15.5-15.5 15.5-8.55 0-15.5-6.94-15.5-15.5 0-8.56 6.95-15.5 15.5-15.5 8.57 0 15.5 6.94 15.5 15.5z"
       stroke="#5e5e5e"
       stroke-width="3"
       fill="#5e5e5e"
       id="path25"
       style="fill:none" />
    <use
       xlink:href="#u"
       transform="matrix(1,0,0,1,523.6133035474788,-369.10398478742746) translate(-3.9074074074074083 10.666666666666668)"
       id="use26"
       style="fill:none" />
    <path
       d="M487.14-421.85l.08 1.25.3 1.6.5 1.55.72 1.53 1 1.58 1.42 1.72 2.1 2 3.6 2.6 21.76 12.36"
       stroke="#5e5e5e"
       fill="none"
       id="path26"
       style="fill:none" />
    <path
       d="M487.1-422.35l.5-.07.04.55-1 .06-.03-.62z"
       fill="#5e5e5e"
       id="path27"
       style="fill:none" />
    <path
       d="M526.23-383.97l-11.67-9.43 7.77-5.06z"
       stroke="#5e5e5e"
       fill="#5e5e5e"
       id="path28"
       style="fill:none" />
    <path
       d="M542.6-309.6c0 8.57-6.93 15.5-15.5 15.5-8.55 0-15.5-6.93-15.5-15.5 0-8.55 6.95-15.5 15.5-15.5 8.57 0 15.5 6.95 15.5 15.5z"
       stroke="#5e5e5e"
       stroke-width="3"
       fill="#5e5e5e"
       id="path29"
       style="fill:none" />
    <use
       xlink:href="#v"
       transform="matrix(1,0,0,1,523.6133035474788,-313.0939847874275) translate(-3.9074074074074083 10.666666666666668)"
       id="use29"
       style="fill:none" />
    <path
       d="M527.1-348.1v5.1"
       stroke="#5e5e5e"
       fill="none"
       id="path30"
       style="fill:none" />
    <path
       d="M527.1-348.6l.5-.06v.58h-1v-.58z"
       fill="#5e5e5e"
       id="path31"
       style="fill:none" />
    <path
       d="M527.1-328.22l-4.62-14.27h9.27z"
       stroke="#5e5e5e"
       fill="#5e5e5e"
       id="path32"
       style="fill:none" />
    <path
       d="M542.6-253.58c0 8.56-6.93 15.5-15.5 15.5-8.55 0-15.5-6.94-15.5-15.5 0-8.56 6.95-15.5 15.5-15.5 8.57 0 15.5 6.94 15.5 15.5z"
       stroke="#5e5e5e"
       stroke-width="3"
       fill="#5e5e5e"
       id="path33"
       style="fill:none" />
    <use
       xlink:href="#w"
       transform="matrix(1,0,0,1,523.6133035474777,-257.0839847874275) translate(-3.9074074074074083 10.666666666666668)"
       id="use33"
       style="fill:none" />
    <path
       d="M527.1-292.08v5.1"
       stroke="#5e5e5e"
       fill="none"
       id="path34"
       style="fill:none" />
    <path
       d="M527.1-292.58l.5-.07v.58h-1v-.58z"
       fill="#5e5e5e"
       id="path35"
       style="fill:none" />
    <path
       d="M527.1-272.2l-4.62-14.28h9.27z"
       stroke="#5e5e5e"
       fill="#5e5e5e"
       id="path36"
       style="fill:none" />
    <path
       d="M542.6-198.95c0 8.56-6.93 15.5-15.5 15.5-8.55 0-15.5-6.94-15.5-15.5 0-8.56 6.95-15.5 15.5-15.5 8.57 0 15.5 6.94 15.5 15.5z"
       fill-opacity="0"
       id="path37"
       style="fill:none" />
    <path
       d="M540.3-190.88l-2.23 2.9-2.9 2.2m-4.45 1.85l-3.6.48-3.62-.48m-4.46-1.84l-2.9-2.22-2.2-2.88m-1.85-4.46l-.5-3.6.5-3.62m1.84-4.46l2.2-2.9 2.9-2.2m4.46-1.86l3.6-.47 3.62.47m4.46 1.85l2.9 2.22 2.2 2.88m1.86 4.46l.47 3.6-.46 3.62"
       stroke="#5e5e5e"
       stroke-width="3"
       fill="none"
       id="path38"
       style="fill:none" />
    <use
       xlink:href="#x"
       transform="matrix(1,0,0,1,523.6133035474777,-202.45273478742752) translate(-3.9074074074074083 10.666666666666668)"
       id="use38"
       style="fill:none" />
    <path
       d="M527.1-236.07v3.72"
       stroke="#5e5e5e"
       fill="none"
       id="path39"
       style="fill:none" />
    <path
       d="M527.1-236.57l.5-.07v.58h-1v-.58z"
       fill="#5e5e5e"
       id="path40"
       style="fill:none" />
    <path
       d="M527.1-217.58l-4.62-14.27h9.27z"
       stroke="#5e5e5e"
       fill="#5e5e5e"
       id="path41"
       style="fill:none" />
    <path
       d="M542.6-163.46c0-3.32 2.7-6 6-6h92.7c3.3 0 6 2.68 6 6v44c0 3.32-2.7 6-6 6h-92.7c-3.3 0-6-2.68-6-6z"
       fill="none"
       id="path42"
       style="fill:none" />
    <use
       xlink:href="#h"
       transform="matrix(1,0,0,1,554.6133035474775,-157.46486019147358) translate(0 11.166666666666668)"
       id="use42"
       style="fill:none" />
    <use
       xlink:href="#y"
       transform="matrix(1,0,0,1,554.6133035474775,-157.46486019147358) translate(40.70370370370371 11.166666666666668)"
       id="use43"
       style="fill:none" />
    <use
       xlink:href="#j"
       transform="matrix(1,0,0,1,554.6133035474775,-157.46486019147358) translate(0 27.166666666666668)"
       id="use44"
       style="fill:none" />
    <use
       xlink:href="#z"
       transform="matrix(1,0,0,1,554.6133035474775,-157.46486019147358) translate(51.03703703703704 27.166666666666668)"
       id="use45"
       style="fill:none" />
    <path
       d="M542.6-107.45c0-3.32 2.7-6 6-6h92.7c3.3 0 6 2.68 6 6v44c0 3.32-2.7 6-6 6h-92.7c-3.3 0-6-2.68-6-6z"
       fill="none"
       id="path45"
       style="fill:none" />
    <use
       xlink:href="#l"
       transform="matrix(1,0,0,1,554.6133035474775,-101.45486019147353) translate(0 11.166666666666668)"
       id="use46"
       style="fill:none" />
    <use
       xlink:href="#m"
       transform="matrix(1,0,0,1,554.6133035474775,-101.45486019147353) translate(40.70370370370371 11.166666666666668)"
       id="use47"
       style="fill:none" />
    <use
       xlink:href="#j"
       transform="matrix(1,0,0,1,554.6133035474775,-101.45486019147353) translate(0 27.166666666666668)"
       id="use48"
       style="fill:none" />
    <use
       xlink:href="#A"
       transform="matrix(1,0,0,1,554.6133035474775,-101.45486019147353) translate(51.03703703703704 27.166666666666668)"
       id="use49"
       style="fill:none" />
    <path
       d="M542.6-51.44c0-3.32 2.7-6 6-6h92.7c3.3 0 6 2.68 6 6v44c0 3.32-2.7 6-6 6h-92.7c-3.3 0-6-2.68-6-6z"
       fill="none"
       id="path49"
       style="fill:none" />
    <use
       xlink:href="#l"
       transform="matrix(1,0,0,1,554.6133035474766,-45.4448601914736) translate(0 11.166666666666668)"
       id="use50"
       style="fill:none" />
    <use
       xlink:href="#o"
       transform="matrix(1,0,0,1,554.6133035474766,-45.4448601914736) translate(40.70370370370371 11.166666666666668)"
       id="use51"
       style="fill:none" />
    <use
       xlink:href="#p"
       transform="matrix(1,0,0,1,554.6133035474766,-45.4448601914736) translate(0 27.166666666666668)"
       id="use52"
       style="fill:none" />
    <use
       xlink:href="#B"
       transform="matrix(1,0,0,1,554.6133035474766,-45.4448601914736) translate(51.03703703703704 27.166666666666668)"
       id="use53"
       style="fill:none" />
    <path
       d="M542.6-141.46c0 8.56-6.93 15.5-15.5 15.5-8.55 0-15.5-6.94-15.5-15.5 0-8.56 6.95-15.5 15.5-15.5 8.57 0 15.5 6.94 15.5 15.5z"
       stroke="#5e5e5e"
       stroke-width="3"
       fill="#5e5e5e"
       id="path53"
       style="fill:none" />
    <use
       xlink:href="#C"
       transform="matrix(1,0,0,1,523.6133035474777,-144.95986019147358) translate(-3.9074074074074083 10.666666666666668)"
       id="use54"
       style="fill:none" />
    <path
       d="M542.6-85.45c0 8.56-6.93 15.5-15.5 15.5-8.55 0-15.5-6.94-15.5-15.5 0-8.56 6.95-15.5 15.5-15.5 8.57 0 15.5 6.94 15.5 15.5z"
       stroke="#5e5e5e"
       stroke-width="3"
       fill="#5e5e5e"
       id="path54"
       style="fill:none" />
    <use
       xlink:href="#D"
       transform="matrix(1,0,0,1,523.6133035474777,-88.94986019147353) translate(-3.9074074074074083 10.666666666666668)"
       id="use55"
       style="fill:none" />
    <path
       d="M527.1-123.95v5.1"
       stroke="#5e5e5e"
       fill="none"
       id="path55"
       style="fill:none" />
    <path
       d="M527.1-124.45l.5-.06v.57h-1v-.58z"
       fill="#5e5e5e"
       id="path56"
       style="fill:none" />
    <path
       d="M527.1-104.08l-4.62-14.27h9.27z"
       stroke="#5e5e5e"
       fill="#5e5e5e"
       id="path57"
       style="fill:none" />
    <path
       d="M542.6-29.44c0 8.56-6.93 15.5-15.5 15.5-8.55 0-15.5-6.94-15.5-15.5 0-8.56 6.95-15.5 15.5-15.5 8.57 0 15.5 6.94 15.5 15.5z"
       stroke="#5e5e5e"
       stroke-width="3"
       fill="#5e5e5e"
       id="path58"
       style="fill:none" />
    <use
       xlink:href="#E"
       transform="matrix(1,0,0,1,523.6133035474766,-32.9398601914736) translate(-3.9074074074074083 10.666666666666668)"
       id="use58"
       style="fill:none" />
    <path
       d="M527.1-67.94v5.1"
       stroke="#5e5e5e"
       fill="none"
       id="path59"
       style="fill:none" />
    <path
       d="M527.1-68.44l.5-.06v.58h-1v-.58z"
       fill="#5e5e5e"
       id="path60"
       style="fill:none" />
    <path
       d="M527.1-48.07l-4.62-14.27h9.27z"
       stroke="#5e5e5e"
       fill="#5e5e5e"
       id="path61"
       style="fill:none" />
    <path
       d="M527.1-181.44v6.58"
       stroke="#5e5e5e"
       fill="none"
       id="path62"
       style="fill:none" />
    <path
       d="M527.1-181.94l.5-.07v.57h-1v-.58z"
       fill="#5e5e5e"
       id="path63"
       style="fill:none" />
    <path
       d="M527.1-160.1l-4.62-14.26h9.27z"
       stroke="#5e5e5e"
       fill="#5e5e5e"
       id="path64"
       style="fill:none" />
    <path
       d="M542.6 4.57c0-3.32 2.7-6 6-6h92.7c3.3 0 6 2.68 6 6v44c0 3.32-2.7 6-6 6h-92.7c-3.3 0-6-2.68-6-6z"
       fill="none"
       id="path65"
       style="fill:none" />
    <use
       xlink:href="#l"
       transform="matrix(1,0,0,1,554.6133035474786,10.56513980852639) translate(0 11.166666666666668)"
       id="use65"
       style="fill:none" />
    <use
       xlink:href="#F"
       transform="matrix(1,0,0,1,554.6133035474786,10.56513980852639) translate(40.70370370370371 11.166666666666668)"
       id="use66"
       style="fill:none" />
    <use
       xlink:href="#p"
       transform="matrix(1,0,0,1,554.6133035474786,10.56513980852639) translate(0 27.166666666666668)"
       id="use67"
       style="fill:none" />
    <use
       xlink:href="#G"
       transform="matrix(1,0,0,1,554.6133035474786,10.56513980852639) translate(51.03703703703704 27.166666666666668)"
       id="use68"
       style="fill:none" />
    <path
       d="M542.6 26.57c0 8.56-6.93 15.5-15.5 15.5-8.55 0-15.5-6.94-15.5-15.5 0-8.56 6.95-15.5 15.5-15.5 8.57 0 15.5 6.94 15.5 15.5z"
       stroke="#5e5e5e"
       stroke-width="3"
       fill="#5e5e5e"
       id="path68"
       style="fill:none" />
    <use
       xlink:href="#H"
       transform="matrix(1,0,0,1,523.6133035474788,23.070139808526392) translate(-3.9074074074074083 10.666666666666668)"
       id="use69"
       style="fill:none" />
    <path
       d="M527.1-11.93v5.1"
       stroke="#5e5e5e"
       fill="none"
       id="path69"
       style="fill:none" />
    <path
       d="M527.1-12.43l.5-.06v.6h-1v-.6z"
       fill="#5e5e5e"
       id="path70"
       style="fill:none" />
    <path
       d="M527.1 7.94L522.5-6.33h9.27z"
       stroke="#5e5e5e"
       fill="#5e5e5e"
       id="path71"
       style="fill:none" />
    <path
       d="M502.6 99.1c0 8.55-6.93 15.5-15.5 15.5-8.55 0-15.5-6.95-15.5-15.5 0-8.57 6.95-15.5 15.5-15.5 8.57 0 15.5 6.93 15.5 15.5z"
       stroke="#5e5e5e"
       stroke-width="3"
       fill="#5e5e5e"
       id="path72"
       style="fill:none" />
    <use
       xlink:href="#I"
       transform="matrix(1,0,0,1,483.61330354747776,95.58782617835311) translate(-3.9074074074074083 10.666666666666668)"
       id="use72"
       style="fill:none" />
    <path
       d="M502.6 81.58c0-3.3 2.7-6 6-6h92.7c3.3 0 6 2.7 6 6v44c0 3.33-2.7 6-6 6h-92.7c-3.3 0-6-2.67-6-6z"
       fill="none"
       id="path73"
       style="fill:none" />
    <use
       xlink:href="#l"
       transform="matrix(1,0,0,1,514.6133035474779,87.58282617835312) translate(0 11.166666666666668)"
       id="use73"
       style="fill:none" />
    <use
       xlink:href="#F"
       transform="matrix(1,0,0,1,514.6133035474779,87.58282617835312) translate(40.70370370370371 11.166666666666668)"
       id="use74"
       style="fill:none" />
    <use
       xlink:href="#p"
       transform="matrix(1,0,0,1,514.6133035474779,87.58282617835312) translate(0 27.166666666666668)"
       id="use75"
       style="fill:none" />
    <use
       xlink:href="#J"
       transform="matrix(1,0,0,1,514.6133035474779,87.58282617835312) translate(51.03703703703704 27.166666666666668)"
       id="use76"
       style="fill:none" />
    <path
       d="M527.08 44.08l-.07 1.15-.28 1.52-.47 1.46-.68 1.46-.95 1.5-1.34 1.63-2 1.87-3.35 2.44-22 12.23"
       stroke="#5e5e5e"
       fill="none"
       id="path76"
       style="fill:none" />
    <path
       d="M527.58 44.13l-1-.07.04-.54.5.06.5-.06z"
       fill="#5e5e5e"
       id="path77"
       style="fill:none" />
    <path
       d="M488.03 80.74l4.3-14.36 7.63 5.27z"
       stroke="#5e5e5e"
       fill="#5e5e5e"
       id="path78"
       style="fill:none" />
    <path
       d="M502.6 224.1c0 8.55-6.93 15.5-15.5 15.5-8.55 0-15.5-6.95-15.5-15.5 0-8.57 6.95-15.5 15.5-15.5 8.57 0 15.5 6.93 15.5 15.5z"
       stroke="#5e5e5e"
       stroke-width="3"
       fill="#5e5e5e"
       id="path79"
       style="fill:none" />
    <use
       xlink:href="#K"
       transform="matrix(1,0,0,1,483.61330354747776,220.5924031648011) translate(-7.240740740740742 10.666666666666668)"
       id="use79"
       style="fill:none" />
    <path
       d="M502.6 206.6c0-3.33 2.7-6 6-6h92.7c3.3 0 6 2.67 6 6v44c0 3.3-2.7 6-6 6h-92.7c-3.3 0-6-2.7-6-6z"
       fill="none"
       id="path80"
       style="fill:none" />
    <use
       xlink:href="#l"
       transform="matrix(1,0,0,1,514.6133035474779,212.58740316480112) translate(0 11.166666666666668)"
       id="use80"
       style="fill:none" />
    <use
       xlink:href="#L"
       transform="matrix(1,0,0,1,514.6133035474779,212.58740316480112) translate(40.70370370370371 11.166666666666668)"
       id="use81"
       style="fill:none" />
    <use
       xlink:href="#p"
       transform="matrix(1,0,0,1,514.6133035474779,212.58740316480112) translate(0 27.166666666666668)"
       id="use82"
       style="fill:none" />
    <use
       xlink:href="#M"
       transform="matrix(1,0,0,1,514.6133035474779,212.58740316480112) translate(51.03703703703704 27.166666666666668)"
       id="use83"
       style="fill:none" />
    <path
       d="M502.6 364.1c0 8.56-6.93 15.5-15.5 15.5-8.55 0-15.5-6.94-15.5-15.5 0-8.56 6.95-15.5 15.5-15.5 8.57 0 15.5 6.94 15.5 15.5z"
       stroke="#1071e5"
       stroke-width="3"
       fill="#5e5e5e"
       id="path83"
       style="fill:none" />
    <use
       xlink:href="#N"
       transform="matrix(1,0,0,1,483.61330354747776,360.6024031648011) translate(-9.833333333333334 10.666666666666668)"
       id="use84"
       style="fill:none" />
    <path
       d="M502.6 346.6c0-3.32 2.7-6 6-6h92.7c3.3 0 6 2.68 6 6v44c0 3.32-2.7 6-6 6h-92.7c-3.3 0-6-2.68-6-6z"
       fill="none"
       id="path84"
       style="fill:none" />
    <use
       xlink:href="#l"
       transform="matrix(1,0,0,1,514.6133035474779,352.5974031648011) translate(0 11.166666666666668)"
       id="use85"
       style="fill:none" />
    <use
       xlink:href="#o"
       transform="matrix(1,0,0,1,514.6133035474779,352.5974031648011) translate(40.70370370370371 11.166666666666668)"
       id="use86"
       style="fill:none" />
    <use
       xlink:href="#p"
       transform="matrix(1,0,0,1,514.6133035474779,352.5974031648011) translate(0 27.166666666666668)"
       id="use87"
       style="fill:none" />
    <use
       xlink:href="#O"
       transform="matrix(1,0,0,1,514.6133035474779,352.5974031648011) translate(51.03703703703704 27.166666666666668)"
       id="use88"
       style="fill:none" />
    <path
       d="M487.1 116.6v74.1"
       stroke="#5e5e5e"
       fill="none"
       id="path88"
       style="fill:none" />
    <path
       d="M487.1 116.1l.5-.06v.57h-1v-.56z"
       fill="#5e5e5e"
       id="path89"
       style="fill:none" />
    <path
       d="M487.1 205.46l-4.62-14.26h9.27z"
       stroke="#5e5e5e"
       fill="#5e5e5e"
       id="path90"
       style="fill:none" />
    <path
       d="M487.1 241.6v89.1"
       stroke="#5e5e5e"
       fill="none"
       id="path91"
       style="fill:none" />
    <path
       d="M487.1 241.1l.5-.06v.58h-1v-.58z"
       fill="#5e5e5e"
       id="path92"
       style="fill:none" />
    <path
       d="M487.1 345.47l-4.62-14.26h9.27z"
       stroke="#5e5e5e"
       fill="#5e5e5e"
       id="path93"
       style="fill:none" />
    <path
       d="M542.6 150.58c0-3.32 2.7-6 6-6h92.7c3.3 0 6 2.68 6 6v44c0 3.32-2.7 6-6 6h-92.7c-3.3 0-6-2.68-6-6z"
       fill="none"
       id="path94"
       style="fill:none" />
    <use
       xlink:href="#l"
       transform="matrix(1,0,0,1,554.6133035474766,156.577403164801) translate(0 11.166666666666668)"
       id="use94"
       style="fill:none" />
    <use
       xlink:href="#o"
       transform="matrix(1,0,0,1,554.6133035474766,156.577403164801) translate(40.70370370370371 11.166666666666668)"
       id="use95"
       style="fill:none" />
    <use
       xlink:href="#p"
       transform="matrix(1,0,0,1,554.6133035474766,156.577403164801) translate(0 27.166666666666668)"
       id="use96"
       style="fill:none" />
    <use
       xlink:href="#P"
       transform="matrix(1,0,0,1,554.6133035474766,156.577403164801) translate(51.03703703703704 27.166666666666668)"
       id="use97"
       style="fill:none" />
    <path
       d="M542.6 172.58c0 8.56-6.93 15.5-15.5 15.5-8.55 0-15.5-6.94-15.5-15.5 0-8.56 6.95-15.5 15.5-15.5 8.57 0 15.5 6.94 15.5 15.5z"
       stroke="#5e5e5e"
       stroke-width="3"
       fill="#5e5e5e"
       id="path97"
       style="fill:none" />
    <use
       xlink:href="#Q"
       transform="matrix(1,0,0,1,523.6133035474766,169.082403164801) translate(-7.6111111111111125 10.666666666666668)"
       id="use98"
       style="fill:none" />
    <path
       d="M487.14 116.6l.08 1.23.3 1.6.5 1.5.7 1.53 1 1.56 1.4 1.7 2.08 1.96 3.53 2.57 21.82 12.34"
       stroke="#5e5e5e"
       fill="none"
       id="path98"
       style="fill:none" />
    <path
       d="M487.1 116.1l.5-.06.04.54-1 .06-.03-.6z"
       fill="#5e5e5e"
       id="path99"
       style="fill:none" />
    <path
       d="M526.22 154.22l-11.72-9.36 7.74-5.1z"
       stroke="#5e5e5e"
       fill="#5e5e5e"
       id="path100"
       style="fill:none" />
    <path
       d="M542.6 262.6c0-3.32 2.7-6 6-6h92.7c3.3 0 6 2.68 6 6v44c0 3.32-2.7 6-6 6h-92.7c-3.3 0-6-2.68-6-6z"
       fill="none"
       id="path101"
       style="fill:none" />
    <use
       xlink:href="#l"
       transform="matrix(1,0,0,1,554.6133035474766,268.5974031648011) translate(0 11.166666666666668)"
       id="use101"
       style="fill:none" />
    <use
       xlink:href="#o"
       transform="matrix(1,0,0,1,554.6133035474766,268.5974031648011) translate(40.70370370370371 11.166666666666668)"
       id="use102"
       style="fill:none" />
    <use
       xlink:href="#p"
       transform="matrix(1,0,0,1,554.6133035474766,268.5974031648011) translate(0 27.166666666666668)"
       id="use103"
       style="fill:none" />
    <use
       xlink:href="#R"
       transform="matrix(1,0,0,1,554.6133035474766,268.5974031648011) translate(51.03703703703704 27.166666666666668)"
       id="use104"
       style="fill:none" />
    <path
       d="M542.6 284.6c0 8.56-6.93 15.5-15.5 15.5-8.55 0-15.5-6.94-15.5-15.5 0-8.56 6.95-15.5 15.5-15.5 8.57 0 15.5 6.94 15.5 15.5z"
       stroke="#5e5e5e"
       stroke-width="3"
       fill="#5e5e5e"
       id="path104"
       style="fill:none" />
    <use
       xlink:href="#S"
       transform="matrix(1,0,0,1,523.6133035474766,281.1024031648011) translate(-7.6111111111111125 10.666666666666668)"
       id="use105"
       style="fill:none" />
    <path
       d="M527.1 190.1v61.1"
       stroke="#5e5e5e"
       fill="none"
       id="path105"
       style="fill:none" />
    <path
       d="M527.1 189.6l.5-.07v.58h-1v-.57z"
       fill="#5e5e5e"
       id="path106"
       style="fill:none" />
    <path
       d="M527.1 265.97l-4.62-14.26h9.27z"
       stroke="#5e5e5e"
       fill="#5e5e5e"
       id="path107"
       style="fill:none" />
    <path
       d="M527.1 302.12l-.1 1.5-.3 1.85-.5 1.73-.67 1.7-.92 1.7-1.22 1.76-1.68 1.93-2.47 2.25-4.25 3.1-20 12.5-.8.75"
       stroke="#5e5e5e"
       fill="none"
       id="path108"
       style="fill:none" />
    <path
       d="M527.58 302.15l-1-.05.04-.55.5.07.5-.07z"
       fill="#5e5e5e"
       id="path109"
       style="fill:none" />
    <path
       d="M487.83 345.64l2.2-14.84 8.3 4.13z"
       stroke="#5e5e5e"
       fill="#5e5e5e"
       id="path110"
       style="fill:none" />
    <path
       d="M502.6 488.12c0 8.56-6.93 15.5-15.5 15.5-8.55 0-15.5-6.94-15.5-15.5 0-8.56 6.95-15.5 15.5-15.5 8.57 0 15.5 6.94 15.5 15.5z"
       stroke="#5e5e5e"
       stroke-width="3"
       fill="#5e5e5e"
       id="path111"
       style="fill:none" />
    <use
       xlink:href="#T"
       transform="matrix(1,0,0,1,483.61330354748003,484.62240316480086) translate(-7.6111111111111125 10.666666666666668)"
       id="use111"
       style="fill:none" />
    <path
       d="M502.6 470.62c0-3.32 2.7-6 6-6h92.7c3.3 0 6 2.68 6 6v44c0 3.32-2.7 6-6 6h-92.7c-3.3 0-6-2.68-6-6z"
       fill="none"
       id="path112"
       style="fill:none" />
    <use
       xlink:href="#l"
       transform="matrix(1,0,0,1,514.6133035474802,476.6174031648012) translate(0 11.166666666666668)"
       id="use112"
       style="fill:none" />
    <use
       xlink:href="#o"
       transform="matrix(1,0,0,1,514.6133035474802,476.6174031648012) translate(40.70370370370371 11.166666666666668)"
       id="use113"
       style="fill:none" />
    <use
       xlink:href="#p"
       transform="matrix(1,0,0,1,514.6133035474802,476.6174031648012) translate(0 27.166666666666668)"
       id="use114"
       style="fill:none" />
    <use
       xlink:href="#O"
       transform="matrix(1,0,0,1,514.6133035474802,476.6174031648012) translate(51.03703703703704 27.166666666666668)"
       id="use115"
       style="fill:none" />
    <path
       d="M502.6 628.13c0 8.56-6.93 15.5-15.5 15.5-8.55 0-15.5-6.94-15.5-15.5 0-8.56 6.95-15.5 15.5-15.5 8.57 0 15.5 6.94 15.5 15.5z"
       stroke="#1071e5"
       stroke-width="3"
       fill="#5e5e5e"
       id="path115"
       style="fill:none" />
    <use
       xlink:href="#U"
       transform="matrix(1,0,0,1,483.61330354748003,624.632403164801) translate(-9.833333333333334 10.666666666666668)"
       id="use116"
       style="fill:none" />
    <path
       d="M502.6 610.63c0-3.32 2.7-6 6-6h92.7c3.3 0 6 2.68 6 6v44c0 3.32-2.7 6-6 6h-92.7c-3.3 0-6-2.68-6-6z"
       fill="none"
       id="path116"
       style="fill:none" />
    <use
       xlink:href="#l"
       transform="matrix(1,0,0,1,514.6133035474802,616.627403164801) translate(0 11.166666666666668)"
       id="use117"
       style="fill:none" />
    <use
       xlink:href="#o"
       transform="matrix(1,0,0,1,514.6133035474802,616.627403164801) translate(40.70370370370371 11.166666666666668)"
       id="use118"
       style="fill:none" />
    <use
       xlink:href="#p"
       transform="matrix(1,0,0,1,514.6133035474802,616.627403164801) translate(0 27.166666666666668)"
       id="use119"
       style="fill:none" />
    <use
       xlink:href="#O"
       transform="matrix(1,0,0,1,514.6133035474802,616.627403164801) translate(51.03703703703704 27.166666666666668)"
       id="use120"
       style="fill:none" />
    <path
       d="M542.6 414.6c0-3.3 2.7-6 6-6h92.7c3.3 0 6 2.7 6 6v44.02c0 3.3-2.7 6-6 6h-92.7c-3.3 0-6-2.7-6-6z"
       fill="none"
       id="path120"
       style="fill:none" />
    <use
       xlink:href="#l"
       transform="matrix(1,0,0,1,554.6133035474788,420.6074031648011) translate(0 11.166666666666668)"
       id="use121"
       style="fill:none" />
    <use
       xlink:href="#L"
       transform="matrix(1,0,0,1,554.6133035474788,420.6074031648011) translate(40.70370370370371 11.166666666666668)"
       id="use122"
       style="fill:none" />
    <use
       xlink:href="#p"
       transform="matrix(1,0,0,1,554.6133035474788,420.6074031648011) translate(0 27.166666666666668)"
       id="use123"
       style="fill:none" />
    <use
       xlink:href="#V"
       transform="matrix(1,0,0,1,554.6133035474788,420.6074031648011) translate(51.03703703703704 27.166666666666668)"
       id="use124"
       style="fill:none" />
    <path
       d="M542.6 436.6c0 8.57-6.93 15.5-15.5 15.5-8.55 0-15.5-6.93-15.5-15.5 0-8.55 6.95-15.5 15.5-15.5 8.57 0 15.5 6.95 15.5 15.5z"
       stroke="#5e5e5e"
       stroke-width="3"
       fill="#5e5e5e"
       id="path124"
       style="fill:none" />
    <g
       id="g125"
       style="fill:none">
      <use
         xlink:href="#W"
         transform="matrix(1,0,0,1,523.6133035474788,433.1124031648011) translate(-7.6111111111111125 10.666666666666668)"
         id="use125"
         style="fill:none" />
    </g>
    <path
       d="M542.6 526.63c0-3.32 2.7-6 6-6h92.7c3.3 0 6 2.68 6 6v44c0 3.32-2.7 6-6 6h-92.7c-3.3 0-6-2.68-6-6z"
       fill="none"
       id="path125"
       style="fill:none" />
    <g
       id="g129"
       style="fill:none">
      <use
         xlink:href="#l"
         transform="matrix(1,0,0,1,554.6133035474788,532.627403164801) translate(0 11.166666666666668)"
         id="use126"
         style="fill:none" />
      <use
         xlink:href="#o"
         transform="matrix(1,0,0,1,554.6133035474788,532.627403164801) translate(40.70370370370371 11.166666666666668)"
         id="use127"
         style="fill:none" />
      <use
         xlink:href="#p"
         transform="matrix(1,0,0,1,554.6133035474788,532.627403164801) translate(0 27.166666666666668)"
         id="use128"
         style="fill:none" />
      <use
         xlink:href="#O"
         transform="matrix(1,0,0,1,554.6133035474788,532.627403164801) translate(51.03703703703704 27.166666666666668)"
         id="use129"
         style="fill:none" />
    </g>
    <path
       d="M542.6 548.63c0 8.56-6.93 15.5-15.5 15.5-8.55 0-15.5-6.94-15.5-15.5 0-8.56 6.95-15.5 15.5-15.5 8.57 0 15.5 6.94 15.5 15.5z"
       stroke="#5e5e5e"
       stroke-width="3"
       fill="#5e5e5e"
       id="path129"
       style="fill:none" />
    <g
       id="g130"
       style="fill:none">
      <use
         xlink:href="#X"
         transform="matrix(1,0,0,1,523.6133035474788,545.132403164801) translate(-7.6111111111111125 10.666666666666668)"
         id="use130"
         style="fill:none" />
    </g>
    <path
       d="M527.1 454.13v61.1"
       stroke="#5e5e5e"
       fill="none"
       id="path130"
       style="fill:none" />
    <path
       d="M527.1 453.63l.5-.07v.58h-1v-.58z"
       fill="#5e5e5e"
       id="path131"
       style="fill:none" />
    <path
       d="M527.1 530l-4.62-14.26h9.27z"
       stroke="#5e5e5e"
       fill="#5e5e5e"
       id="path132"
       style="fill:none" />
    <path
       d="M527.1 566.15l-.1 1.5-.3 1.85-.5 1.73-.67 1.7-.92 1.7-1.22 1.76-1.68 1.92-2.47 2.26-4.25 3.1-20 12.5-.8.75"
       stroke="#5e5e5e"
       fill="none"
       id="path133"
       style="fill:none" />
    <path
       d="M527.58 566.18l-1-.05.04-.55.5.07.5-.07z"
       fill="#5e5e5e"
       id="path134"
       style="fill:none" />
    <path
       d="M487.83 609.67l2.2-14.84 8.3 4.13z"
       stroke="#5e5e5e"
       fill="#5e5e5e"
       id="path135"
       style="fill:none" />
    <path
       d="M487.14 381.6l.07 1.16.3 1.52.47 1.46.68 1.45.95 1.5 1.35 1.62 2 1.88 3.35 2.43 22 12.22"
       stroke="#5e5e5e"
       fill="none"
       id="path136"
       style="fill:none" />
    <path
       d="M487.1 381.12l.5-.07.04.55-1 .06-.03-.6z"
       fill="#5e5e5e"
       id="path137"
       style="fill:none" />
    <path
       d="M526.2 418.27l-11.94-9.1 7.62-5.27z"
       stroke="#5e5e5e"
       fill="#5e5e5e"
       id="path138"
       style="fill:none" />
    <path
       d="M487.1 381.62v73.1"
       stroke="#5e5e5e"
       fill="none"
       id="path139"
       style="fill:none" />
    <path
       d="M487.1 381.12l.5-.07v.58h-1v-.58z"
       fill="#5e5e5e"
       id="path140"
       style="fill:none" />
    <path
       d="M487.1 469.5l-4.62-14.27h9.27z"
       stroke="#5e5e5e"
       fill="#5e5e5e"
       id="path141"
       style="fill:none" />
    <path
       d="M487.1 505.64v89.1"
       stroke="#5e5e5e"
       fill="none"
       id="path142"
       style="fill:none" />
    <path
       d="M487.1 505.14l.5-.07v.58h-1v-.58z"
       fill="#5e5e5e"
       id="path143"
       style="fill:none" />
    <path
       d="M487.1 609.5l-4.62-14.26h9.27z"
       stroke="#5e5e5e"
       fill="#5e5e5e"
       id="path144"
       style="fill:none" />
    <path
       d="M502.6 843.17c0 8.56-6.93 15.5-15.5 15.5-8.55 0-15.5-6.94-15.5-15.5 0-8.56 6.95-15.5 15.5-15.5 8.57 0 15.5 6.94 15.5 15.5z"
       stroke="#5e5e5e"
       stroke-width="3"
       fill="#5e5e5e"
       id="path145"
       style="fill:none" />
    <g
       id="g145"
       style="fill:none">
      <use
         xlink:href="#Y"
         transform="matrix(1,0,0,1,483.61330354748026,839.668136095615) translate(-7.6111111111111125 10.666666666666668)"
         id="use145"
         style="fill:none" />
    </g>
    <path
       d="M542.6 685.65c0-3.32 2.7-6 6-6h92.7c3.3 0 6 2.68 6 6v44c0 3.32-2.7 6-6 6h-92.7c-3.3 0-6-2.68-6-6z"
       fill="none"
       id="path146"
       style="fill:none" />
    <g
       id="g149"
       style="fill:none">
      <use
         xlink:href="#l"
         transform="matrix(1,0,0,1,554.6133035474766,691.6481360956155) translate(0 11.166666666666668)"
         id="use146"
         style="fill:none" />
      <use
         xlink:href="#L"
         transform="matrix(1,0,0,1,554.6133035474766,691.6481360956155) translate(40.70370370370371 11.166666666666668)"
         id="use147"
         style="fill:none" />
      <use
         xlink:href="#p"
         transform="matrix(1,0,0,1,554.6133035474766,691.6481360956155) translate(0 27.166666666666668)"
         id="use148"
         style="fill:none" />
      <use
         xlink:href="#Z"
         transform="matrix(1,0,0,1,554.6133035474766,691.6481360956155) translate(51.03703703703704 27.166666666666668)"
         id="use149"
         style="fill:none" />
    </g>
    <path
       d="M542.6 707.65c0 8.56-6.93 15.5-15.5 15.5-8.55 0-15.5-6.94-15.5-15.5 0-8.56 6.95-15.5 15.5-15.5 8.57 0 15.5 6.94 15.5 15.5z"
       stroke="#1071e5"
       stroke-width="3"
       fill="#5e5e5e"
       id="path149"
       style="fill:none" />
    <g
       id="g150"
       style="fill:none">
      <use
         xlink:href="#aa"
         transform="matrix(1,0,0,1,523.6133035474766,704.1531360956155) translate(-9.833333333333334 10.666666666666668)"
         id="use150"
         style="fill:none" />
    </g>
    <path
       d="M542.6 741.66c0-3.32 2.7-6 6-6h92.7c3.3 0 6 2.68 6 6v44c0 3.32-2.7 6-6 6h-92.7c-3.3 0-6-2.68-6-6z"
       fill="none"
       id="path150"
       style="fill:none" />
    <g
       id="g154"
       style="fill:none">
      <use
         xlink:href="#l"
         transform="matrix(1,0,0,1,554.6133035474766,747.6581360956158) translate(0 11.166666666666668)"
         id="use151"
         style="fill:none" />
      <use
         xlink:href="#o"
         transform="matrix(1,0,0,1,554.6133035474766,747.6581360956158) translate(40.70370370370371 11.166666666666668)"
         id="use152"
         style="fill:none" />
      <use
         xlink:href="#p"
         transform="matrix(1,0,0,1,554.6133035474766,747.6581360956158) translate(0 27.166666666666668)"
         id="use153"
         style="fill:none" />
      <use
         xlink:href="#O"
         transform="matrix(1,0,0,1,554.6133035474766,747.6581360956158) translate(51.03703703703704 27.166666666666668)"
         id="use154"
         style="fill:none" />
    </g>
    <path
       d="M542.6 763.66c0 8.56-6.93 15.5-15.5 15.5-8.55 0-15.5-6.94-15.5-15.5 0-8.56 6.95-15.5 15.5-15.5 8.57 0 15.5 6.94 15.5 15.5z"
       stroke="#5e5e5e"
       stroke-width="3"
       fill="#5e5e5e"
       id="path154"
       style="fill:none" />
    <g
       id="g155"
       style="fill:none">
      <use
         xlink:href="#ab"
         transform="matrix(1,0,0,1,523.6133035474766,760.1631360956158) translate(-7.6111111111111125 10.666666666666668)"
         id="use155"
         style="fill:none" />
    </g>
    <path
       d="M487.14 645.65l.08 1.5.3 1.85.5 1.74.68 1.68.92 1.7 1.22 1.77 1.7 1.92 2.45 2.27 4.23 3.1 20 12.5.83.75"
       stroke="#5e5e5e"
       fill="none"
       id="path155"
       style="fill:none" />
    <path
       d="M487.1 645.15l.5-.07.04.55-1 .05-.03-.6z"
       fill="#5e5e5e"
       id="path156"
       style="fill:none" />
    <path
       d="M526.4 689.2l-10.5-10.72 8.3-4.13z"
       stroke="#5e5e5e"
       fill="#5e5e5e"
       id="path157"
       style="fill:none" />
    <path
       d="M527.1 566.15v108.1"
       stroke="#5e5e5e"
       fill="none"
       id="path158"
       style="fill:none" />
    <path
       d="M527.1 565.65l.5-.07v.58h-1v-.58z"
       fill="#5e5e5e"
       id="path159"
       style="fill:none" />
    <path
       d="M527.1 689.02l-4.62-14.26h9.27z"
       stroke="#5e5e5e"
       fill="#5e5e5e"
       id="path160"
       style="fill:none" />
    <path
       d="M527.1 725.17v5.1"
       stroke="#5e5e5e"
       fill="none"
       id="path161"
       style="fill:none" />
    <path
       d="M527.1 724.67l.5-.07v.58h-1v-.58z"
       fill="#5e5e5e"
       id="path162"
       style="fill:none" />
    <path
       d="M527.1 745.03l-4.62-14.26h9.27z"
       stroke="#5e5e5e"
       fill="#5e5e5e"
       id="path163"
       style="fill:none" />
    <path
       d="M502.6 821.16c0-3.3 2.7-6 6-6h92.7c3.3 0 6 2.7 6 6v44c0 3.33-2.7 6-6 6h-92.7c-3.3 0-6-2.67-6-6z"
       fill="none"
       id="path164"
       style="fill:none" />
    <g
       id="g167"
       style="fill:none">
      <use
         xlink:href="#l"
         transform="matrix(1,0,0,1,514.6133035474802,827.163136095615) translate(0 11.166666666666668)"
         id="use164"
         style="fill:none" />
      <use
         xlink:href="#o"
         transform="matrix(1,0,0,1,514.6133035474802,827.163136095615) translate(40.70370370370371 11.166666666666668)"
         id="use165"
         style="fill:none" />
      <use
         xlink:href="#p"
         transform="matrix(1,0,0,1,514.6133035474802,827.163136095615) translate(0 27.166666666666668)"
         id="use166"
         style="fill:none" />
      <use
         xlink:href="#ac"
         transform="matrix(1,0,0,1,514.6133035474802,827.163136095615) translate(51.03703703703704 27.166666666666668)"
         id="use167"
         style="fill:none" />
    </g>
    <path
       d="M527.1 781.18l-.1 1.5-.3 1.85-.5 1.74-.67 1.68-.92 1.7-1.22 1.77-1.68 1.93-2.46 2.27-4.26 3.1-20 12.5-.8.75"
       stroke="#5e5e5e"
       fill="none"
       id="path167"
       style="fill:none" />
    <path
       d="M527.58 781.22l-1-.06.04-.55.5.08.5-.07z"
       fill="#5e5e5e"
       id="path168"
       style="fill:none" />
    <path
       d="M487.83 824.7l2.2-14.83 8.3 4.13z"
       stroke="#5e5e5e"
       fill="#5e5e5e"
       id="path169"
       style="fill:none" />
    <path
       d="M487.1 645.65v1.95m0 3.9v3.92m0 3.9v3.9m0 3.92v3.9m0 3.92v3.9m0 3.9v3.92m0 3.9v3.9m0 3.92v3.9m0 3.92v3.9m0 3.9v3.92m0 3.9v3.92m0 3.9v3.9m0 3.92v3.9m0 3.9v3.92m0 3.9v3.92m0 3.9v3.9m0 3.92v3.9m0 3.92v3.9m0 3.9v3.92m0 3.9v3.9m0 3.92v3.9m0 3.92v1.95"
       stroke="#5e5e5e"
       fill="none"
       id="path170"
       style="fill:none" />
    <path
       d="M487.1 645.15l.5-.07v.58h-1v-.58z"
       fill="#5e5e5e"
       id="path171"
       style="fill:none" />
    <path
       d="M487.1 824.54l-4.62-14.27h9.27z"
       stroke="#5e5e5e"
       fill="#5e5e5e"
       id="path172"
       style="fill:none" />
    <defs
       id="defs409">
      <path
         d="M233-177c-1 41-23 64-60 70L243 0h-38l-65-103H63V0H30v-248c88 3 205-21 203 71zM63-129c60-2 137 13 137-47 0-61-80-42-137-45v92"
         id="ad" />
      <path
         d="M100-194c63 0 86 42 84 106H49c0 40 14 67 53 68 26 1 43-12 49-29l28 8c-11 28-37 45-77 45C44 4 14-33 15-96c1-61 26-98 85-98zm52 81c6-60-76-77-97-28-3 7-6 17-6 28h103"
         id="ae" />
      <path
         d="M177-190C167-65 218 103 67 71c-23-6-38-20-44-43l32-5c15 47 100 32 89-28v-30C133-14 115 1 83 1 29 1 15-40 15-95c0-56 16-97 71-98 29-1 48 16 59 35 1-10 0-23 2-32h30zM94-22c36 0 50-32 50-73 0-42-14-75-50-75-39 0-46 34-46 75s6 73 46 73"
         id="af" />
      <path
         d="M84 4C-5 8 30-112 23-190h32v120c0 31 7 50 39 49 72-2 45-101 50-169h31l1 190h-30c-1-10 1-25-2-33-11 22-28 36-60 37"
         id="ag" />
      <path
         d="M24 0v-261h32V0H24"
         id="ah" />
      <path
         d="M141-36C126-15 110 5 73 4 37 3 15-17 15-53c-1-64 63-63 125-63 3-35-9-54-41-54-24 1-41 7-42 31l-33-3c5-37 33-52 76-52 45 0 72 20 72 64v82c-1 20 7 32 28 27v20c-31 9-61-2-59-35zM48-53c0 20 12 33 32 33 41-3 63-29 60-74-43 2-92-5-92 41"
         id="ai" />
      <path
         d="M114-163C36-179 61-72 57 0H25l-1-190h30c1 12-1 29 2 39 6-27 23-49 58-41v29"
         id="aj" />
      <g
         id="a">
        <use
           transform="matrix(0.08641975308641975,0,0,0.08641975308641975,0,0)"
           xlink:href="#ad"
           id="use172" />
        <use
           transform="matrix(0.08641975308641975,0,0,0.08641975308641975,22.382716049382715,0)"
           xlink:href="#ae"
           id="use173" />
        <use
           transform="matrix(0.08641975308641975,0,0,0.08641975308641975,39.666666666666664,0)"
           xlink:href="#af"
           id="use174" />
        <use
           transform="matrix(0.08641975308641975,0,0,0.08641975308641975,56.95061728395061,0)"
           xlink:href="#ag"
           id="use175" />
        <use
           transform="matrix(0.08641975308641975,0,0,0.08641975308641975,74.23456790123456,0)"
           xlink:href="#ah"
           id="use176" />
        <use
           transform="matrix(0.08641975308641975,0,0,0.08641975308641975,81.06172839506172,0)"
           xlink:href="#ai"
           id="use177" />
        <use
           transform="matrix(0.08641975308641975,0,0,0.08641975308641975,98.34567901234567,0)"
           xlink:href="#aj"
           id="use178" />
      </g>
      <path
         d="M115-194c53 0 69 39 70 98 0 66-23 100-70 100C84 3 66-7 56-30L54 0H23l1-261h32v101c10-23 28-34 59-34zm-8 174c40 0 45-34 45-75 0-40-5-75-45-74-42 0-51 32-51 76 0 43 10 73 51 73"
         id="ak" />
      <path
         d="M117-194c89-4 53 116 60 194h-32v-121c0-31-8-49-39-48C34-167 62-67 57 0H25l-1-190h30c1 10-1 24 2 32 11-22 29-35 61-36"
         id="al" />
      <path
         d="M96-169c-40 0-48 33-48 73s9 75 48 75c24 0 41-14 43-38l32 2c-6 37-31 61-74 61-59 0-76-41-82-99-10-93 101-131 147-64 4 7 5 14 7 22l-32 3c-4-21-16-35-41-35"
         id="am" />
      <path
         d="M106-169C34-169 62-67 57 0H25v-261h32l-1 103c12-21 28-36 61-36 89 0 53 116 60 194h-32v-121c2-32-8-49-39-48"
         id="an" />
      <path
         d="M135-143c-3-34-86-38-87 0 15 53 115 12 119 90S17 21 10-45l28-5c4 36 97 45 98 0-10-56-113-15-118-90-4-57 82-63 122-42 12 7 21 19 24 35"
         id="ao" />
      <g
         id="b">
        <use
           transform="matrix(0.08641975308641975,0,0,0.08641975308641975,0,0)"
           xlink:href="#ak"
           id="use179" />
        <use
           transform="matrix(0.08641975308641975,0,0,0.08641975308641975,17.28395061728395,0)"
           xlink:href="#aj"
           id="use180" />
        <use
           transform="matrix(0.08641975308641975,0,0,0.08641975308641975,27.5679012345679,0)"
           xlink:href="#ai"
           id="use181" />
        <use
           transform="matrix(0.08641975308641975,0,0,0.08641975308641975,44.85185185185185,0)"
           xlink:href="#al"
           id="use182" />
        <use
           transform="matrix(0.08641975308641975,0,0,0.08641975308641975,62.1358024691358,0)"
           xlink:href="#am"
           id="use183" />
        <use
           transform="matrix(0.08641975308641975,0,0,0.08641975308641975,77.69135802469135,0)"
           xlink:href="#an"
           id="use184" />
        <use
           transform="matrix(0.08641975308641975,0,0,0.08641975308641975,94.9753086419753,0)"
           xlink:href="#ae"
           id="use185" />
        <use
           transform="matrix(0.08641975308641975,0,0,0.08641975308641975,112.25925925925925,0)"
           xlink:href="#ao"
           id="use186" />
      </g>
      <path
         fill="#fff"
         d="M190-63c-7 42-38 67-86 67-59 0-84-38-90-98-12-110 154-137 174-36l-49 2c-2-19-15-32-35-32-30 0-35 28-38 64-6 74 65 87 74 30"
         id="ap" />
      <path
         fill="#fff"
         d="M101-251c68 0 84 54 84 127C185-50 166 4 99 4S15-52 14-124c-1-75 17-127 87-127zm-1 216c37-5 36-46 36-89s4-89-36-89c-39 0-36 45-36 89 0 43-3 85 36 89"
         id="aq" />
      <g
         id="c">
        <use
           transform="matrix(0.03703703703703704,0,0,0.03703703703703704,0,0)"
           xlink:href="#ap"
           id="use187" />
        <use
           transform="matrix(0.03703703703703704,0,0,0.03703703703703704,7.407407407407408,0)"
           xlink:href="#aq"
           id="use188" />
      </g>
      <path
         fill="#333"
         d="M115-194c53 0 69 39 70 98 0 66-23 100-70 100C84 3 66-7 56-30L54 0H23l1-261h32v101c10-23 28-34 59-34zm-8 174c40 0 45-34 45-75 0-40-5-75-45-74-42 0-51 32-51 76 0 43 10 73 51 73"
         id="ar" />
      <path
         fill="#333"
         d="M84 4C-5 8 30-112 23-190h32v120c0 31 7 50 39 49 72-2 45-101 50-169h31l1 190h-30c-1-10 1-25-2-33-11 22-28 36-60 37"
         id="as" />
      <path
         fill="#333"
         d="M210-169c-67 3-38 105-44 169h-31v-121c0-29-5-50-35-48C34-165 62-65 56 0H25l-1-190h30c1 10-1 24 2 32 10-44 99-50 107 0 11-21 27-35 58-36 85-2 47 119 55 194h-31v-121c0-29-5-49-35-48"
         id="at" />
      <path
         fill="#333"
         d="M115-194c55 1 70 41 70 98S169 2 115 4C84 4 66-9 55-30l1 105H24l-1-265h31l2 30c10-21 28-34 59-34zm-8 174c40 0 45-34 45-75s-6-73-45-74c-42 0-51 32-51 76 0 43 10 73 51 73"
         id="au" />
      <path
         fill="#333"
         d="M33-154v-36h34v36H33zM33 0v-36h34V0H33"
         id="av" />
      <g
         id="d">
        <use
           transform="matrix(0.03703703703703704,0,0,0.03703703703703704,0,0)"
           xlink:href="#ar"
           id="use189" />
        <use
           transform="matrix(0.03703703703703704,0,0,0.03703703703703704,7.407407407407408,0)"
           xlink:href="#as"
           id="use190" />
        <use
           transform="matrix(0.03703703703703704,0,0,0.03703703703703704,14.814814814814817,0)"
           xlink:href="#at"
           id="use191" />
        <use
           transform="matrix(0.03703703703703704,0,0,0.03703703703703704,25.888888888888893,0)"
           xlink:href="#au"
           id="use192" />
        <use
           transform="matrix(0.03703703703703704,0,0,0.03703703703703704,33.296296296296305,0)"
           xlink:href="#av"
           id="use193" />
      </g>
      <path
         fill="#333"
         d="M190 0L58-211 59 0H30v-248h39L202-35l-2-213h31V0h-41"
         id="aw" />
      <path
         fill="#333"
         d="M0 4l72-265h28L28 4H0"
         id="ax" />
      <path
         fill="#333"
         d="M205 0l-28-72H64L36 0H1l101-248h38L239 0h-34zm-38-99l-47-123c-12 45-31 82-46 123h93"
         id="ay" />
      <g
         id="e">
        <use
           transform="matrix(0.03703703703703704,0,0,0.03703703703703704,0,0)"
           xlink:href="#aw"
           id="use194" />
        <use
           transform="matrix(0.03703703703703704,0,0,0.03703703703703704,9.592592592592593,0)"
           xlink:href="#ax"
           id="use195" />
        <use
           transform="matrix(0.03703703703703704,0,0,0.03703703703703704,13.296296296296298,0)"
           xlink:href="#ay"
           id="use196" />
      </g>
      <path
         fill="#333"
         d="M114-163C36-179 61-72 57 0H25l-1-190h30c1 12-1 29 2 39 6-27 23-49 58-41v29"
         id="az" />
      <path
         fill="#333"
         d="M100-194c63 0 86 42 84 106H49c0 40 14 67 53 68 26 1 43-12 49-29l28 8c-11 28-37 45-77 45C44 4 14-33 15-96c1-61 26-98 85-98zm52 81c6-60-76-77-97-28-3 7-6 17-6 28h103"
         id="aA" />
      <path
         fill="#333"
         d="M24 0v-261h32V0H24"
         id="aB" />
      <path
         fill="#333"
         d="M141-36C126-15 110 5 73 4 37 3 15-17 15-53c-1-64 63-63 125-63 3-35-9-54-41-54-24 1-41 7-42 31l-33-3c5-37 33-52 76-52 45 0 72 20 72 64v82c-1 20 7 32 28 27v20c-31 9-61-2-59-35zM48-53c0 20 12 33 32 33 41-3 63-29 60-74-43 2-92-5-92 41"
         id="aC" />
      <path
         fill="#333"
         d="M135-143c-3-34-86-38-87 0 15 53 115 12 119 90S17 21 10-45l28-5c4 36 97 45 98 0-10-56-113-15-118-90-4-57 82-63 122-42 12 7 21 19 24 35"
         id="aD" />
      <g
         id="f">
        <use
           transform="matrix(0.03703703703703704,0,0,0.03703703703703704,0,0)"
           xlink:href="#az"
           id="use197" />
        <use
           transform="matrix(0.03703703703703704,0,0,0.03703703703703704,4.407407407407408,0)"
           xlink:href="#aA"
           id="use198" />
        <use
           transform="matrix(0.03703703703703704,0,0,0.03703703703703704,11.814814814814817,0)"
           xlink:href="#aB"
           id="use199" />
        <use
           transform="matrix(0.03703703703703704,0,0,0.03703703703703704,14.740740740740744,0)"
           xlink:href="#aA"
           id="use200" />
        <use
           transform="matrix(0.03703703703703704,0,0,0.03703703703703704,22.148148148148152,0)"
           xlink:href="#aC"
           id="use201" />
        <use
           transform="matrix(0.03703703703703704,0,0,0.03703703703703704,29.55555555555556,0)"
           xlink:href="#aD"
           id="use202" />
        <use
           transform="matrix(0.03703703703703704,0,0,0.03703703703703704,36.22222222222223,0)"
           xlink:href="#aA"
           id="use203" />
        <use
           transform="matrix(0.03703703703703704,0,0,0.03703703703703704,43.62962962962963,0)"
           xlink:href="#av"
           id="use204" />
      </g>
      <path
         fill="#333"
         d="M175 0L67-191c6 58 2 128 3 191H24v-248h59L193-55c-6-58-2-129-3-193h46V0h-61"
         id="aE" />
      <path
         fill="#333"
         d="M4 7l51-268h42L46 7H4"
         id="aF" />
      <path
         fill="#333"
         d="M199 0l-22-63H83L61 0H9l90-248h61L250 0h-51zm-33-102l-36-108c-10 38-24 72-36 108h72"
         id="aG" />
      <g
         id="g">
        <use
           transform="matrix(0.03703703703703704,0,0,0.03703703703703704,0,0)"
           xlink:href="#aE"
           id="use205" />
        <use
           transform="matrix(0.03703703703703704,0,0,0.03703703703703704,9.592592592592593,0)"
           xlink:href="#aF"
           id="use206" />
        <use
           transform="matrix(0.03703703703703704,0,0,0.03703703703703704,13.296296296296298,0)"
           xlink:href="#aG"
           id="use207" />
      </g>
      <g
         id="h">
        <use
           transform="matrix(0.03703703703703704,0,0,0.03703703703703704,0,0)"
           xlink:href="#ar"
           id="use208" />
        <use
           transform="matrix(0.03703703703703704,0,0,0.03703703703703704,7.407407407407408,0)"
           xlink:href="#as"
           id="use209" />
        <use
           transform="matrix(0.03703703703703704,0,0,0.03703703703703704,14.814814814814817,0)"
           xlink:href="#at"
           id="use210" />
        <use
           transform="matrix(0.03703703703703704,0,0,0.03703703703703704,25.888888888888893,0)"
           xlink:href="#au"
           id="use211" />
        <use
           transform="matrix(0.03703703703703704,0,0,0.03703703703703704,33.296296296296305,0)"
           xlink:href="#av"
           id="use212" />
      </g>
      <path
         fill="#333"
         d="M135-194c53 0 70 44 70 98 0 56-19 98-73 100-31 1-45-17-59-34 3 33 2 69 2 105H25l-1-265h48c2 10 0 23 3 31 11-24 29-35 60-35zM114-30c33 0 39-31 40-66 0-38-9-64-40-64-56 0-55 130 0 130"
         id="aH" />
      <path
         fill="#333"
         d="M133-34C117-15 103 5 69 4 32 3 11-16 11-54c-1-60 55-63 116-61 1-26-3-47-28-47-18 1-26 9-28 27l-52-2c7-38 36-58 82-57s74 22 75 68l1 82c-1 14 12 18 25 15v27c-30 8-71 5-69-32zm-48 3c29 0 43-24 42-57-32 0-66-3-65 30 0 17 8 27 23 27"
         id="aI" />
      <path
         fill="#333"
         d="M115-3C79 11 28 4 28-45v-112H4v-33h27l15-45h31v45h36v33H77v99c-1 23 16 31 38 25v30"
         id="aJ" />
      <path
         fill="#333"
         d="M190-63c-7 42-38 67-86 67-59 0-84-38-90-98-12-110 154-137 174-36l-49 2c-2-19-15-32-35-32-30 0-35 28-38 64-6 74 65 87 74 30"
         id="aK" />
      <path
         fill="#333"
         d="M114-157C55-157 80-60 75 0H25v-261h50l-1 109c12-26 28-41 61-42 86-1 58 113 63 194h-50c-7-57 23-157-34-157"
         id="aL" />
      <g
         id="i">
        <use
           transform="matrix(0.03703703703703704,0,0,0.03703703703703704,0,0)"
           xlink:href="#aH"
           id="use213" />
        <use
           transform="matrix(0.03703703703703704,0,0,0.03703703703703704,8.111111111111112,0)"
           xlink:href="#aI"
           id="use214" />
        <use
           transform="matrix(0.03703703703703704,0,0,0.03703703703703704,15.51851851851852,0)"
           xlink:href="#aJ"
           id="use215" />
        <use
           transform="matrix(0.03703703703703704,0,0,0.03703703703703704,19.925925925925934,0)"
           xlink:href="#aK"
           id="use216" />
        <use
           transform="matrix(0.03703703703703704,0,0,0.03703703703703704,27.333333333333343,0)"
           xlink:href="#aL"
           id="use217" />
      </g>
      <g
         id="j">
        <use
           transform="matrix(0.03703703703703704,0,0,0.03703703703703704,0,0)"
           xlink:href="#az"
           id="use218" />
        <use
           transform="matrix(0.03703703703703704,0,0,0.03703703703703704,4.407407407407408,0)"
           xlink:href="#aA"
           id="use219" />
        <use
           transform="matrix(0.03703703703703704,0,0,0.03703703703703704,11.814814814814817,0)"
           xlink:href="#aB"
           id="use220" />
        <use
           transform="matrix(0.03703703703703704,0,0,0.03703703703703704,14.740740740740744,0)"
           xlink:href="#aA"
           id="use221" />
        <use
           transform="matrix(0.03703703703703704,0,0,0.03703703703703704,22.148148148148152,0)"
           xlink:href="#aC"
           id="use222" />
        <use
           transform="matrix(0.03703703703703704,0,0,0.03703703703703704,29.55555555555556,0)"
           xlink:href="#aD"
           id="use223" />
        <use
           transform="matrix(0.03703703703703704,0,0,0.03703703703703704,36.22222222222223,0)"
           xlink:href="#aA"
           id="use224" />
        <use
           transform="matrix(0.03703703703703704,0,0,0.03703703703703704,43.62962962962963,0)"
           xlink:href="#av"
           id="use225" />
      </g>
      <path
         fill="#008a0e"
         d="M101-251c68 0 84 54 84 127C185-50 166 4 99 4S15-52 14-124c-1-75 17-127 87-127zm-1 216c37-5 36-46 36-89s4-89-36-89c-39 0-36 45-36 89 0 43-3 85 36 89"
         id="aM" />
      <path
         fill="#008a0e"
         d="M24 0v-54h51V0H24"
         id="aN" />
      <path
         fill="#008a0e"
         d="M23 0v-37h61v-169l-59 37v-38l62-41h46v211h57V0H23"
         id="aO" />
      <g
         id="k">
        <use
           transform="matrix(0.03703703703703704,0,0,0.03703703703703704,0,0)"
           xlink:href="#aM"
           id="use226" />
        <use
           transform="matrix(0.03703703703703704,0,0,0.03703703703703704,7.407407407407408,0)"
           xlink:href="#aN"
           id="use227" />
        <use
           transform="matrix(0.03703703703703704,0,0,0.03703703703703704,11.111111111111112,0)"
           xlink:href="#aO"
           id="use228" />
        <use
           transform="matrix(0.03703703703703704,0,0,0.03703703703703704,18.51851851851852,0)"
           xlink:href="#aN"
           id="use229" />
        <use
           transform="matrix(0.03703703703703704,0,0,0.03703703703703704,22.22222222222222,0)"
           xlink:href="#aO"
           id="use230" />
      </g>
      <g
         id="l">
        <use
           transform="matrix(0.03703703703703704,0,0,0.03703703703703704,0,0)"
           xlink:href="#ar"
           id="use231" />
        <use
           transform="matrix(0.03703703703703704,0,0,0.03703703703703704,7.407407407407408,0)"
           xlink:href="#as"
           id="use232" />
        <use
           transform="matrix(0.03703703703703704,0,0,0.03703703703703704,14.814814814814817,0)"
           xlink:href="#at"
           id="use233" />
        <use
           transform="matrix(0.03703703703703704,0,0,0.03703703703703704,25.888888888888893,0)"
           xlink:href="#au"
           id="use234" />
        <use
           transform="matrix(0.03703703703703704,0,0,0.03703703703703704,33.296296296296305,0)"
           xlink:href="#av"
           id="use235" />
      </g>
      <g
         id="m">
        <use
           transform="matrix(0.03703703703703704,0,0,0.03703703703703704,0,0)"
           xlink:href="#aH"
           id="use236" />
        <use
           transform="matrix(0.03703703703703704,0,0,0.03703703703703704,8.111111111111112,0)"
           xlink:href="#aI"
           id="use237" />
        <use
           transform="matrix(0.03703703703703704,0,0,0.03703703703703704,15.51851851851852,0)"
           xlink:href="#aJ"
           id="use238" />
        <use
           transform="matrix(0.03703703703703704,0,0,0.03703703703703704,19.925925925925934,0)"
           xlink:href="#aK"
           id="use239" />
        <use
           transform="matrix(0.03703703703703704,0,0,0.03703703703703704,27.333333333333343,0)"
           xlink:href="#aL"
           id="use240" />
      </g>
      <path
         fill="#008a0e"
         d="M182-182c0 78-84 86-111 141h115V0H12c-6-101 99-100 120-180 1-22-12-31-33-32-23 0-32 14-35 34l-49-3c5-45 32-70 84-70 51 0 83 22 83 69"
         id="aP" />
      <g
         id="n">
        <use
           transform="matrix(0.03703703703703704,0,0,0.03703703703703704,0,0)"
           xlink:href="#aM"
           id="use241" />
        <use
           transform="matrix(0.03703703703703704,0,0,0.03703703703703704,7.407407407407408,0)"
           xlink:href="#aN"
           id="use242" />
        <use
           transform="matrix(0.03703703703703704,0,0,0.03703703703703704,11.111111111111112,0)"
           xlink:href="#aO"
           id="use243" />
        <use
           transform="matrix(0.03703703703703704,0,0,0.03703703703703704,18.51851851851852,0)"
           xlink:href="#aN"
           id="use244" />
        <use
           transform="matrix(0.03703703703703704,0,0,0.03703703703703704,22.22222222222222,0)"
           xlink:href="#aP"
           id="use245" />
      </g>
      <path
         fill="#333"
         d="M220-157c-53 9-28 100-34 157h-49v-107c1-27-5-49-29-50C55-147 81-57 75 0H25l-1-190h47c2 12-1 28 3 38 10-53 101-56 108 0 13-22 24-43 59-42 82 1 51 116 57 194h-49v-107c-1-25-5-48-29-50"
         id="aQ" />
      <path
         fill="#333"
         d="M25-224v-37h50v37H25zM25 0v-190h50V0H25"
         id="aR" />
      <path
         fill="#333"
         d="M135-194c87-1 58 113 63 194h-50c-7-57 23-157-34-157-59 0-34 97-39 157H25l-1-190h47c2 12-1 28 3 38 12-26 28-41 61-42"
         id="aS" />
      <path
         fill="#333"
         d="M110-194c64 0 96 36 96 99 0 64-35 99-97 99-61 0-95-36-95-99 0-62 34-99 96-99zm-1 164c35 0 45-28 45-65 0-40-10-65-43-65-34 0-45 26-45 65 0 36 10 65 43 65"
         id="aT" />
      <path
         fill="#333"
         d="M135-150c-39-12-60 13-60 57V0H25l-1-190h47c2 13-1 29 3 40 6-28 27-53 61-41v41"
         id="aU" />
      <g
         id="o">
        <use
           transform="matrix(0.03703703703703704,0,0,0.03703703703703704,0,0)"
           xlink:href="#aQ"
           id="use246" />
        <use
           transform="matrix(0.03703703703703704,0,0,0.03703703703703704,11.851851851851853,0)"
           xlink:href="#aR"
           id="use247" />
        <use
           transform="matrix(0.03703703703703704,0,0,0.03703703703703704,15.555555555555557,0)"
           xlink:href="#aS"
           id="use248" />
        <use
           transform="matrix(0.03703703703703704,0,0,0.03703703703703704,23.66666666666667,0)"
           xlink:href="#aT"
           id="use249" />
        <use
           transform="matrix(0.03703703703703704,0,0,0.03703703703703704,31.777777777777786,0)"
           xlink:href="#aU"
           id="use250" />
        <path
           fill="#333"
           d="M36.3.72h1.33v1.4H36.3z"
           id="path250" />
      </g>
      <g
         id="p">
        <use
           transform="matrix(0.03703703703703704,0,0,0.03703703703703704,0,0)"
           xlink:href="#az"
           id="use251" />
        <use
           transform="matrix(0.03703703703703704,0,0,0.03703703703703704,4.407407407407408,0)"
           xlink:href="#aA"
           id="use252" />
        <use
           transform="matrix(0.03703703703703704,0,0,0.03703703703703704,11.814814814814817,0)"
           xlink:href="#aB"
           id="use253" />
        <use
           transform="matrix(0.03703703703703704,0,0,0.03703703703703704,14.740740740740744,0)"
           xlink:href="#aA"
           id="use254" />
        <use
           transform="matrix(0.03703703703703704,0,0,0.03703703703703704,22.148148148148152,0)"
           xlink:href="#aC"
           id="use255" />
        <use
           transform="matrix(0.03703703703703704,0,0,0.03703703703703704,29.55555555555556,0)"
           xlink:href="#aD"
           id="use256" />
        <use
           transform="matrix(0.03703703703703704,0,0,0.03703703703703704,36.22222222222223,0)"
           xlink:href="#aA"
           id="use257" />
        <use
           transform="matrix(0.03703703703703704,0,0,0.03703703703703704,43.62962962962963,0)"
           xlink:href="#av"
           id="use258" />
      </g>
      <g
         id="q">
        <use
           transform="matrix(0.03703703703703704,0,0,0.03703703703703704,0,0)"
           xlink:href="#aM"
           id="use259" />
        <use
           transform="matrix(0.03703703703703704,0,0,0.03703703703703704,7.407407407407408,0)"
           xlink:href="#aN"
           id="use260" />
        <use
           transform="matrix(0.03703703703703704,0,0,0.03703703703703704,11.111111111111112,0)"
           xlink:href="#aP"
           id="use261" />
        <use
           transform="matrix(0.03703703703703704,0,0,0.03703703703703704,18.51851851851852,0)"
           xlink:href="#aN"
           id="use262" />
        <use
           transform="matrix(0.03703703703703704,0,0,0.03703703703703704,22.22222222222222,0)"
           xlink:href="#aM"
           id="use263" />
      </g>
      <path
         fill="#333"
         d="M109-170H84l-4-78h32zm-65 0H19l-4-78h33"
         id="aV" />
      <path
         fill="#333"
         d="M14 0l48-248h34L48 0H14"
         id="aW" />
      <path
         fill="#333"
         d="M67-158c22-48 132-52 116 29L158 0h-32l25-140c3-38-53-32-70-12C52-117 51-52 38 0H6l36-190h30"
         id="aX" />
      <path
         fill="#333"
         d="M50-231l6-30h32l-6 30H50zM6 0l37-190h31L37 0H6"
         id="aY" />
      <path
         fill="#333"
         d="M51-54c-9 22 5 41 31 30L79-1C43 14 10-4 19-52l22-115H19l5-23h22l19-43h21l-9 43h35l-4 23H73"
         id="aZ" />
      <path
         fill="#333"
         d="M165-48c-4 18 1 34 23 27l-3 20c-29 8-62 0-52-35h-2C116-14 99 4 63 4 30 4 8-16 8-49c0-68 71-67 138-67 10-26 0-56-31-54-26 1-42 9-47 31l-32-5c8-67 160-71 144 15-5 28-9 54-15 81zM42-50c3 52 80 24 89-6 7-12 7-24 11-38-47 1-103-4-100 44"
         id="ba" />
      <path
         fill="#333"
         d="M6 0l50-261h32L37 0H6"
         id="bb" />
      <g
         id="r">
        <use
           transform="matrix(0.03703703703703704,0,0,0.03703703703703704,0,0)"
           xlink:href="#aV"
           id="use264" />
        <use
           transform="matrix(0.03703703703703704,0,0,0.03703703703703704,4.703703703703704,0)"
           xlink:href="#aW"
           id="use265" />
        <use
           transform="matrix(0.03703703703703704,0,0,0.03703703703703704,8.407407407407408,0)"
           xlink:href="#aX"
           id="use266" />
        <use
           transform="matrix(0.03703703703703704,0,0,0.03703703703703704,15.814814814814817,0)"
           xlink:href="#aY"
           id="use267" />
        <use
           transform="matrix(0.03703703703703704,0,0,0.03703703703703704,18.740740740740744,0)"
           xlink:href="#aZ"
           id="use268" />
        <use
           transform="matrix(0.03703703703703704,0,0,0.03703703703703704,22.44444444444445,0)"
           xlink:href="#aY"
           id="use269" />
        <use
           transform="matrix(0.03703703703703704,0,0,0.03703703703703704,25.370370370370377,0)"
           xlink:href="#ba"
           id="use270" />
        <use
           transform="matrix(0.03703703703703704,0,0,0.03703703703703704,32.777777777777786,0)"
           xlink:href="#bb"
           id="use271" />
      </g>
      <path
         fill="#333"
         d="M44-68c0 29 11 47 38 47 30 0 42-19 51-41l28 9C148-21 126 4 82 4 31 4 10-29 12-85c3-77 74-140 146-93 12 8 15 23 18 40l-31 5c-1-22-13-36-36-36-52 0-65 49-65 101"
         id="bc" />
      <path
         fill="#333"
         d="M30-147c31-64 166-65 159 27C183-49 158 1 86 4 9 8 1-88 30-147zM88-20c53 0 68-48 68-100 0-31-11-51-44-50-52 1-68 46-68 97 0 32 13 53 44 53"
         id="bd" />
      <path
         fill="#333"
         d="M248-111c6-24 9-61-24-58-72 9-57 108-77 169h-31l26-142c3-37-50-30-64-10C52-115 50-51 37 0H6l36-190h30c-1 10-6 24-4 32 13-43 101-52 105 5 13-22 29-41 61-41 90 0 28 129 23 194h-31"
         id="be" />
      <g
         id="s">
        <use
           transform="matrix(0.03703703703703704,0,0,0.03703703703703704,0,0)"
           xlink:href="#bc"
           id="use272" />
        <use
           transform="matrix(0.03703703703703704,0,0,0.03703703703703704,6.666666666666668,0)"
           xlink:href="#bd"
           id="use273" />
        <use
           transform="matrix(0.03703703703703704,0,0,0.03703703703703704,14.074074074074076,0)"
           xlink:href="#be"
           id="use274" />
        <use
           transform="matrix(0.03703703703703704,0,0,0.03703703703703704,25.148148148148152,0)"
           xlink:href="#be"
           id="use275" />
        <use
           transform="matrix(0.03703703703703704,0,0,0.03703703703703704,36.22222222222223,0)"
           xlink:href="#aY"
           id="use276" />
        <use
           transform="matrix(0.03703703703703704,0,0,0.03703703703703704,39.14814814814815,0)"
           xlink:href="#aZ"
           id="use277" />
        <use
           transform="matrix(0.03703703703703704,0,0,0.03703703703703704,42.851851851851855,0)"
           xlink:href="#aV"
           id="use278" />
      </g>
      <g
         id="t">
        <use
           transform="matrix(0.03703703703703704,0,0,0.03703703703703704,0,0)"
           xlink:href="#aM"
           id="use279" />
        <use
           transform="matrix(0.03703703703703704,0,0,0.03703703703703704,7.407407407407408,0)"
           xlink:href="#aN"
           id="use280" />
        <use
           transform="matrix(0.03703703703703704,0,0,0.03703703703703704,11.111111111111112,0)"
           xlink:href="#aO"
           id="use281" />
        <use
           transform="matrix(0.03703703703703704,0,0,0.03703703703703704,18.51851851851852,0)"
           xlink:href="#aN"
           id="use282" />
        <use
           transform="matrix(0.03703703703703704,0,0,0.03703703703703704,22.22222222222222,0)"
           xlink:href="#aM"
           id="use283" />
      </g>
      <path
         fill="#fff"
         d="M23 0v-37h61v-169l-59 37v-38l62-41h46v211h57V0H23"
         id="bf" />
      <g
         id="u">
        <use
           transform="matrix(0.03703703703703704,0,0,0.03703703703703704,0,0)"
           xlink:href="#ap"
           id="use284" />
        <use
           transform="matrix(0.03703703703703704,0,0,0.03703703703703704,7.407407407407408,0)"
           xlink:href="#bf"
           id="use285" />
      </g>
      <path
         fill="#fff"
         d="M182-182c0 78-84 86-111 141h115V0H12c-6-101 99-100 120-180 1-22-12-31-33-32-23 0-32 14-35 34l-49-3c5-45 32-70 84-70 51 0 83 22 83 69"
         id="bg" />
      <g
         id="v">
        <use
           transform="matrix(0.03703703703703704,0,0,0.03703703703703704,0,0)"
           xlink:href="#ap"
           id="use286" />
        <use
           transform="matrix(0.03703703703703704,0,0,0.03703703703703704,7.407407407407408,0)"
           xlink:href="#bg"
           id="use287" />
      </g>
      <path
         fill="#fff"
         d="M128-127c34 4 56 21 59 58 7 91-148 94-172 28-4-9-6-17-7-26l51-5c1 24 16 35 40 36 23 0 39-12 38-36-1-31-31-36-65-34v-40c32 2 59-3 59-33 0-20-13-33-34-33s-33 13-35 32l-50-3c6-44 37-68 86-68 50 0 83 20 83 66 0 35-22 52-53 58"
         id="bh" />
      <g
         id="w">
        <use
           transform="matrix(0.03703703703703704,0,0,0.03703703703703704,0,0)"
           xlink:href="#ap"
           id="use288" />
        <use
           transform="matrix(0.03703703703703704,0,0,0.03703703703703704,7.407407407407408,0)"
           xlink:href="#bh"
           id="use289" />
      </g>
      <path
         fill="#5e5e5e"
         d="M190-63c-7 42-38 67-86 67-59 0-84-38-90-98-12-110 154-137 174-36l-49 2c-2-19-15-32-35-32-30 0-35 28-38 64-6 74 65 87 74 30"
         id="bi" />
      <path
         fill="#5e5e5e"
         d="M165-50V0h-47v-50H5v-38l105-160h55v161h33v37h-33zm-47-37l2-116L46-87h72"
         id="bj" />
      <g
         id="x">
        <use
           transform="matrix(0.03703703703703704,0,0,0.03703703703703704,0,0)"
           xlink:href="#bi"
           id="use290" />
        <use
           transform="matrix(0.03703703703703704,0,0,0.03703703703703704,7.407407407407408,0)"
           xlink:href="#bj"
           id="use291" />
      </g>
      <path
         fill="#333"
         d="M25-224v-37h50v37H25zM75 22c2 45-34 59-81 51V38c22 5 31-5 31-27v-201h50V22"
         id="bk" />
      <g
         id="y">
        <use
           transform="matrix(0.03703703703703704,0,0,0.03703703703703704,0,0)"
           xlink:href="#aQ"
           id="use292" />
        <use
           transform="matrix(0.03703703703703704,0,0,0.03703703703703704,11.851851851851853,0)"
           xlink:href="#aI"
           id="use293" />
        <use
           transform="matrix(0.03703703703703704,0,0,0.03703703703703704,19.259259259259256,0)"
           xlink:href="#bk"
           id="use294" />
        <use
           transform="matrix(0.03703703703703704,0,0,0.03703703703703704,22.962962962962962,0)"
           xlink:href="#aT"
           id="use295" />
        <use
           transform="matrix(0.03703703703703704,0,0,0.03703703703703704,31.07407407407408,0)"
           xlink:href="#aU"
           id="use296" />
      </g>
      <g
         id="z">
        <use
           transform="matrix(0.03703703703703704,0,0,0.03703703703703704,0,0)"
           xlink:href="#aO"
           id="use297" />
        <use
           transform="matrix(0.03703703703703704,0,0,0.03703703703703704,7.407407407407408,0)"
           xlink:href="#aN"
           id="use298" />
        <use
           transform="matrix(0.03703703703703704,0,0,0.03703703703703704,11.111111111111112,0)"
           xlink:href="#aM"
           id="use299" />
        <use
           transform="matrix(0.03703703703703704,0,0,0.03703703703703704,18.51851851851852,0)"
           xlink:href="#aN"
           id="use300" />
        <use
           transform="matrix(0.03703703703703704,0,0,0.03703703703703704,22.22222222222222,0)"
           xlink:href="#aM"
           id="use301" />
      </g>
      <g
         id="A">
        <use
           transform="matrix(0.03703703703703704,0,0,0.03703703703703704,0,0)"
           xlink:href="#aO"
           id="use302" />
        <use
           transform="matrix(0.03703703703703704,0,0,0.03703703703703704,7.407407407407408,0)"
           xlink:href="#aN"
           id="use303" />
        <use
           transform="matrix(0.03703703703703704,0,0,0.03703703703703704,11.111111111111112,0)"
           xlink:href="#aM"
           id="use304" />
        <use
           transform="matrix(0.03703703703703704,0,0,0.03703703703703704,18.51851851851852,0)"
           xlink:href="#aN"
           id="use305" />
        <use
           transform="matrix(0.03703703703703704,0,0,0.03703703703703704,22.22222222222222,0)"
           xlink:href="#aO"
           id="use306" />
      </g>
      <g
         id="B">
        <use
           transform="matrix(0.03703703703703704,0,0,0.03703703703703704,0,0)"
           xlink:href="#aO"
           id="use307" />
        <use
           transform="matrix(0.03703703703703704,0,0,0.03703703703703704,7.407407407407408,0)"
           xlink:href="#aN"
           id="use308" />
        <use
           transform="matrix(0.03703703703703704,0,0,0.03703703703703704,11.111111111111112,0)"
           xlink:href="#aO"
           id="use309" />
        <use
           transform="matrix(0.03703703703703704,0,0,0.03703703703703704,18.51851851851852,0)"
           xlink:href="#aN"
           id="use310" />
        <use
           transform="matrix(0.03703703703703704,0,0,0.03703703703703704,22.22222222222222,0)"
           xlink:href="#aM"
           id="use311" />
      </g>
      <path
         fill="#fff"
         d="M139-81c0-46-55-55-73-27H18l9-140h149v37H72l-4 63c44-38 133-4 122 66C201 21 21 35 11-62l49-4c5 18 15 30 39 30 26 0 40-18 40-45"
         id="bl" />
      <g
         id="C">
        <use
           transform="matrix(0.03703703703703704,0,0,0.03703703703703704,0,0)"
           xlink:href="#ap"
           id="use312" />
        <use
           transform="matrix(0.03703703703703704,0,0,0.03703703703703704,7.407407407407408,0)"
           xlink:href="#bl"
           id="use313" />
      </g>
      <path
         fill="#fff"
         d="M115-159c48 0 72 30 72 78 0 54-30 85-83 85-64 0-91-50-91-122 0-98 58-163 141-120 15 8 21 24 27 44l-47 6c-5-31-48-31-61-4-7 14-11 33-11 60 9-17 28-27 53-27zM102-35c24 0 36-20 36-45s-11-43-37-43c-23 0-36 14-36 38 0 27 11 50 37 50"
         id="bm" />
      <g
         id="D">
        <use
           transform="matrix(0.03703703703703704,0,0,0.03703703703703704,0,0)"
           xlink:href="#ap"
           id="use314" />
        <use
           transform="matrix(0.03703703703703704,0,0,0.03703703703703704,7.407407407407408,0)"
           xlink:href="#bm"
           id="use315" />
      </g>
      <path
         fill="#fff"
         d="M52 0c1-96 47-148 87-207H15v-41h169v40c-36 62-79 113-81 208H52"
         id="bn" />
      <g
         id="E">
        <use
           transform="matrix(0.03703703703703704,0,0,0.03703703703703704,0,0)"
           xlink:href="#ap"
           id="use316" />
        <use
           transform="matrix(0.03703703703703704,0,0,0.03703703703703704,7.407407407407408,0)"
           xlink:href="#bn"
           id="use317" />
      </g>
      <g
         id="F">
        <use
           transform="matrix(0.03703703703703704,0,0,0.03703703703703704,0,0)"
           xlink:href="#aQ"
           id="use318" />
        <use
           transform="matrix(0.03703703703703704,0,0,0.03703703703703704,11.851851851851853,0)"
           xlink:href="#aI"
           id="use319" />
        <use
           transform="matrix(0.03703703703703704,0,0,0.03703703703703704,19.259259259259256,0)"
           xlink:href="#bk"
           id="use320" />
        <use
           transform="matrix(0.03703703703703704,0,0,0.03703703703703704,22.962962962962962,0)"
           xlink:href="#aT"
           id="use321" />
        <use
           transform="matrix(0.03703703703703704,0,0,0.03703703703703704,31.07407407407408,0)"
           xlink:href="#aU"
           id="use322" />
        <path
           fill="#333"
           d="M35.6.72h1.32v1.4H35.6z"
           id="path322" />
      </g>
      <g
         id="G">
        <use
           transform="matrix(0.03703703703703704,0,0,0.03703703703703704,0,0)"
           xlink:href="#aP"
           id="use323" />
        <use
           transform="matrix(0.03703703703703704,0,0,0.03703703703703704,7.407407407407408,0)"
           xlink:href="#aN"
           id="use324" />
        <use
           transform="matrix(0.03703703703703704,0,0,0.03703703703703704,11.111111111111112,0)"
           xlink:href="#aM"
           id="use325" />
        <use
           transform="matrix(0.03703703703703704,0,0,0.03703703703703704,18.51851851851852,0)"
           xlink:href="#aN"
           id="use326" />
        <use
           transform="matrix(0.03703703703703704,0,0,0.03703703703703704,22.22222222222222,0)"
           xlink:href="#aM"
           id="use327" />
      </g>
      <path
         fill="#fff"
         d="M138-131c27 9 52 24 51 61 0 53-36 74-89 74S11-19 11-69c0-35 22-54 51-61-78-25-46-121 38-121 51 0 83 19 83 66 0 30-18 49-45 54zm-38-16c24 0 32-13 32-36 1-23-11-34-32-34-22 0-33 12-32 34 0 22 9 36 32 36zm1 116c27 0 37-17 37-43 0-25-13-39-39-39-24 0-37 15-37 40 0 27 11 42 39 42"
         id="bo" />
      <g
         id="H">
        <use
           transform="matrix(0.03703703703703704,0,0,0.03703703703703704,0,0)"
           xlink:href="#ap"
           id="use328" />
        <use
           transform="matrix(0.03703703703703704,0,0,0.03703703703703704,7.407407407407408,0)"
           xlink:href="#bo"
           id="use329" />
      </g>
      <path
         fill="#fff"
         d="M99-251c69 0 84 53 88 123 5 99-61 162-144 118-15-8-21-25-26-45l46-6c4 31 50 33 63 7 7-15 12-36 12-60-9 18-29 28-54 28-48 0-72-32-72-82 0-55 31-83 87-83zm-1 128c24 0 37-16 37-39 0-27-10-51-37-51-25 0-35 19-35 45 0 25 10 45 35 45"
         id="bp" />
      <g
         id="I">
        <use
           transform="matrix(0.03703703703703704,0,0,0.03703703703703704,0,0)"
           xlink:href="#ap"
           id="use330" />
        <use
           transform="matrix(0.03703703703703704,0,0,0.03703703703703704,7.407407407407408,0)"
           xlink:href="#bp"
           id="use331" />
      </g>
      <path
         fill="#008a0e"
         d="M128-127c34 4 56 21 59 58 7 91-148 94-172 28-4-9-6-17-7-26l51-5c1 24 16 35 40 36 23 0 39-12 38-36-1-31-31-36-65-34v-40c32 2 59-3 59-33 0-20-13-33-34-33s-33 13-35 32l-50-3c6-44 37-68 86-68 50 0 83 20 83 66 0 35-22 52-53 58"
         id="bq" />
      <g
         id="J">
        <use
           transform="matrix(0.03703703703703704,0,0,0.03703703703703704,0,0)"
           xlink:href="#bq"
           id="use332" />
        <use
           transform="matrix(0.03703703703703704,0,0,0.03703703703703704,7.407407407407408,0)"
           xlink:href="#aN"
           id="use333" />
        <use
           transform="matrix(0.03703703703703704,0,0,0.03703703703703704,11.111111111111112,0)"
           xlink:href="#aM"
           id="use334" />
        <use
           transform="matrix(0.03703703703703704,0,0,0.03703703703703704,18.51851851851852,0)"
           xlink:href="#aN"
           id="use335" />
        <use
           transform="matrix(0.03703703703703704,0,0,0.03703703703703704,22.22222222222222,0)"
           xlink:href="#aM"
           id="use336" />
      </g>
      <g
         id="K">
        <use
           transform="matrix(0.03703703703703704,0,0,0.03703703703703704,0,0)"
           xlink:href="#ap"
           id="use337" />
        <use
           transform="matrix(0.03703703703703704,0,0,0.03703703703703704,7.407407407407408,0)"
           xlink:href="#bf"
           id="use338" />
        <use
           transform="matrix(0.03703703703703704,0,0,0.03703703703703704,14.074074074074076,0)"
           xlink:href="#bf"
           id="use339" />
      </g>
      <g
         id="L">
        <use
           transform="matrix(0.03703703703703704,0,0,0.03703703703703704,0,0)"
           xlink:href="#aH"
           id="use340" />
        <use
           transform="matrix(0.03703703703703704,0,0,0.03703703703703704,8.111111111111112,0)"
           xlink:href="#aI"
           id="use341" />
        <use
           transform="matrix(0.03703703703703704,0,0,0.03703703703703704,15.51851851851852,0)"
           xlink:href="#aJ"
           id="use342" />
        <use
           transform="matrix(0.03703703703703704,0,0,0.03703703703703704,19.925925925925934,0)"
           xlink:href="#aK"
           id="use343" />
        <use
           transform="matrix(0.03703703703703704,0,0,0.03703703703703704,27.333333333333343,0)"
           xlink:href="#aL"
           id="use344" />
        <path
           fill="#333"
           d="M34.78.72h1.33v1.4H34.8z"
           id="path344" />
      </g>
      <g
         id="M">
        <use
           transform="matrix(0.03703703703703704,0,0,0.03703703703703704,0,0)"
           xlink:href="#bq"
           id="use345" />
        <use
           transform="matrix(0.03703703703703704,0,0,0.03703703703703704,7.407407407407408,0)"
           xlink:href="#aN"
           id="use346" />
        <use
           transform="matrix(0.03703703703703704,0,0,0.03703703703703704,11.111111111111112,0)"
           xlink:href="#aM"
           id="use347" />
        <use
           transform="matrix(0.03703703703703704,0,0,0.03703703703703704,18.51851851851852,0)"
           xlink:href="#aN"
           id="use348" />
        <use
           transform="matrix(0.03703703703703704,0,0,0.03703703703703704,22.22222222222222,0)"
           xlink:href="#aO"
           id="use349" />
      </g>
      <path
         fill="#fff"
         d="M220-157c-53 9-28 100-34 157h-49v-107c1-27-5-49-29-50C55-147 81-57 75 0H25l-1-190h47c2 12-1 28 3 38 10-53 101-56 108 0 13-22 24-43 59-42 82 1 51 116 57 194h-49v-107c-1-25-5-48-29-50"
         id="br" />
      <g
         id="N">
        <use
           transform="matrix(0.03703703703703704,0,0,0.03703703703703704,0,0)"
           xlink:href="#br"
           id="use350" />
        <use
           transform="matrix(0.03703703703703704,0,0,0.03703703703703704,11.851851851851853,0)"
           xlink:href="#bf"
           id="use351" />
        <use
           transform="matrix(0.03703703703703704,0,0,0.03703703703703704,19.259259259259256,0)"
           xlink:href="#bh"
           id="use352" />
      </g>
      <path
         fill="#e81313"
         d="M128-127c34 4 56 21 59 58 7 91-148 94-172 28-4-9-6-17-7-26l51-5c1 24 16 35 40 36 23 0 39-12 38-36-1-31-31-36-65-34v-40c32 2 59-3 59-33 0-20-13-33-34-33s-33 13-35 32l-50-3c6-44 37-68 86-68 50 0 83 20 83 66 0 35-22 52-53 58"
         id="bs" />
      <path
         fill="#e81313"
         d="M24 0v-54h51V0H24"
         id="bt" />
      <path
         fill="#e81313"
         d="M23 0v-37h61v-169l-59 37v-38l62-41h46v211h57V0H23"
         id="bu" />
      <path
         fill="#e81313"
         d="M101-251c68 0 84 54 84 127C185-50 166 4 99 4S15-52 14-124c-1-75 17-127 87-127zm-1 216c37-5 36-46 36-89s4-89-36-89c-39 0-36 45-36 89 0 43-3 85 36 89"
         id="bv" />
      <g
         id="O">
        <use
           transform="matrix(0.03703703703703704,0,0,0.03703703703703704,0,0)"
           xlink:href="#bs"
           id="use353" />
        <use
           transform="matrix(0.03703703703703704,0,0,0.03703703703703704,7.407407407407408,0)"
           xlink:href="#bt"
           id="use354" />
        <use
           transform="matrix(0.03703703703703704,0,0,0.03703703703703704,11.111111111111112,0)"
           xlink:href="#bu"
           id="use355" />
        <use
           transform="matrix(0.03703703703703704,0,0,0.03703703703703704,18.51851851851852,0)"
           xlink:href="#bt"
           id="use356" />
        <use
           transform="matrix(0.03703703703703704,0,0,0.03703703703703704,22.22222222222222,0)"
           xlink:href="#bv"
           id="use357" />
        <path
           fill="#e81313"
           d="M-.67-4.27H30.3v1.4H-.68z"
           id="path357" />
      </g>
      <g
         id="P">
        <use
           transform="matrix(0.03703703703703704,0,0,0.03703703703703704,0,0)"
           xlink:href="#bq"
           id="use358" />
        <use
           transform="matrix(0.03703703703703704,0,0,0.03703703703703704,7.407407407407408,0)"
           xlink:href="#aN"
           id="use359" />
        <use
           transform="matrix(0.03703703703703704,0,0,0.03703703703703704,11.111111111111112,0)"
           xlink:href="#aO"
           id="use360" />
        <use
           transform="matrix(0.03703703703703704,0,0,0.03703703703703704,18.51851851851852,0)"
           xlink:href="#aN"
           id="use361" />
        <use
           transform="matrix(0.03703703703703704,0,0,0.03703703703703704,22.22222222222222,0)"
           xlink:href="#aM"
           id="use362" />
      </g>
      <g
         id="Q">
        <use
           transform="matrix(0.03703703703703704,0,0,0.03703703703703704,0,0)"
           xlink:href="#ap"
           id="use363" />
        <use
           transform="matrix(0.03703703703703704,0,0,0.03703703703703704,7.407407407407408,0)"
           xlink:href="#bf"
           id="use364" />
        <use
           transform="matrix(0.03703703703703704,0,0,0.03703703703703704,14.814814814814817,0)"
           xlink:href="#aq"
           id="use365" />
      </g>
      <g
         id="R">
        <use
           transform="matrix(0.03703703703703704,0,0,0.03703703703703704,0,0)"
           xlink:href="#bq"
           id="use366" />
        <use
           transform="matrix(0.03703703703703704,0,0,0.03703703703703704,7.407407407407408,0)"
           xlink:href="#aN"
           id="use367" />
        <use
           transform="matrix(0.03703703703703704,0,0,0.03703703703703704,11.111111111111112,0)"
           xlink:href="#aP"
           id="use368" />
        <use
           transform="matrix(0.03703703703703704,0,0,0.03703703703703704,18.51851851851852,0)"
           xlink:href="#aN"
           id="use369" />
        <use
           transform="matrix(0.03703703703703704,0,0,0.03703703703703704,22.22222222222222,0)"
           xlink:href="#aM"
           id="use370" />
      </g>
      <g
         id="S">
        <use
           transform="matrix(0.03703703703703704,0,0,0.03703703703703704,0,0)"
           xlink:href="#ap"
           id="use371" />
        <use
           transform="matrix(0.03703703703703704,0,0,0.03703703703703704,7.407407407407408,0)"
           xlink:href="#bf"
           id="use372" />
        <use
           transform="matrix(0.03703703703703704,0,0,0.03703703703703704,14.814814814814817,0)"
           xlink:href="#bg"
           id="use373" />
      </g>
      <g
         id="T">
        <use
           transform="matrix(0.03703703703703704,0,0,0.03703703703703704,0,0)"
           xlink:href="#ap"
           id="use374" />
        <use
           transform="matrix(0.03703703703703704,0,0,0.03703703703703704,7.407407407407408,0)"
           xlink:href="#bf"
           id="use375" />
        <use
           transform="matrix(0.03703703703703704,0,0,0.03703703703703704,14.814814814814817,0)"
           xlink:href="#bl"
           id="use376" />
      </g>
      <g
         id="U">
        <use
           transform="matrix(0.03703703703703704,0,0,0.03703703703703704,0,0)"
           xlink:href="#br"
           id="use377" />
        <use
           transform="matrix(0.03703703703703704,0,0,0.03703703703703704,11.851851851851853,0)"
           xlink:href="#bf"
           id="use378" />
        <use
           transform="matrix(0.03703703703703704,0,0,0.03703703703703704,19.259259259259256,0)"
           xlink:href="#bn"
           id="use379" />
      </g>
      <g
         id="V">
        <use
           transform="matrix(0.03703703703703704,0,0,0.03703703703703704,0,0)"
           xlink:href="#bq"
           id="use380" />
        <use
           transform="matrix(0.03703703703703704,0,0,0.03703703703703704,7.407407407407408,0)"
           xlink:href="#aN"
           id="use381" />
        <use
           transform="matrix(0.03703703703703704,0,0,0.03703703703703704,11.111111111111112,0)"
           xlink:href="#aM"
           id="use382" />
        <use
           transform="matrix(0.03703703703703704,0,0,0.03703703703703704,18.51851851851852,0)"
           xlink:href="#aN"
           id="use383" />
        <use
           transform="matrix(0.03703703703703704,0,0,0.03703703703703704,22.22222222222222,0)"
           xlink:href="#aP"
           id="use384" />
      </g>
      <path
         fill="#fff"
         d="M165-50V0h-47v-50H5v-38l105-160h55v161h33v37h-33zm-47-37l2-116L46-87h72"
         id="bw" />
      <g
         id="W">
        <use
           transform="matrix(0.03703703703703704,0,0,0.03703703703703704,0,0)"
           xlink:href="#ap"
           id="use385" />
        <use
           transform="matrix(0.03703703703703704,0,0,0.03703703703703704,7.407407407407408,0)"
           xlink:href="#bf"
           id="use386" />
        <use
           transform="matrix(0.03703703703703704,0,0,0.03703703703703704,14.814814814814817,0)"
           xlink:href="#bw"
           id="use387" />
      </g>
      <g
         id="X">
        <use
           transform="matrix(0.03703703703703704,0,0,0.03703703703703704,0,0)"
           xlink:href="#ap"
           id="use388" />
        <use
           transform="matrix(0.03703703703703704,0,0,0.03703703703703704,7.407407407407408,0)"
           xlink:href="#bf"
           id="use389" />
        <use
           transform="matrix(0.03703703703703704,0,0,0.03703703703703704,14.814814814814817,0)"
           xlink:href="#bm"
           id="use390" />
      </g>
      <g
         id="Y">
        <use
           transform="matrix(0.03703703703703704,0,0,0.03703703703703704,0,0)"
           xlink:href="#ap"
           id="use391" />
        <use
           transform="matrix(0.03703703703703704,0,0,0.03703703703703704,7.407407407407408,0)"
           xlink:href="#bg"
           id="use392" />
        <use
           transform="matrix(0.03703703703703704,0,0,0.03703703703703704,14.814814814814817,0)"
           xlink:href="#aq"
           id="use393" />
      </g>
      <g
         id="Z">
        <use
           transform="matrix(0.03703703703703704,0,0,0.03703703703703704,0,0)"
           xlink:href="#bq"
           id="use394" />
        <use
           transform="matrix(0.03703703703703704,0,0,0.03703703703703704,7.407407407407408,0)"
           xlink:href="#aN"
           id="use395" />
        <use
           transform="matrix(0.03703703703703704,0,0,0.03703703703703704,11.111111111111112,0)"
           xlink:href="#aM"
           id="use396" />
        <use
           transform="matrix(0.03703703703703704,0,0,0.03703703703703704,18.51851851851852,0)"
           xlink:href="#aN"
           id="use397" />
        <use
           transform="matrix(0.03703703703703704,0,0,0.03703703703703704,22.22222222222222,0)"
           xlink:href="#bq"
           id="use398" />
      </g>
      <g
         id="aa">
        <use
           transform="matrix(0.03703703703703704,0,0,0.03703703703703704,0,0)"
           xlink:href="#br"
           id="use399" />
        <use
           transform="matrix(0.03703703703703704,0,0,0.03703703703703704,11.851851851851853,0)"
           xlink:href="#bf"
           id="use400" />
        <use
           transform="matrix(0.03703703703703704,0,0,0.03703703703703704,19.259259259259256,0)"
           xlink:href="#bo"
           id="use401" />
      </g>
      <g
         id="ab">
        <use
           transform="matrix(0.03703703703703704,0,0,0.03703703703703704,0,0)"
           xlink:href="#ap"
           id="use402" />
        <use
           transform="matrix(0.03703703703703704,0,0,0.03703703703703704,7.407407407407408,0)"
           xlink:href="#bf"
           id="use403" />
        <use
           transform="matrix(0.03703703703703704,0,0,0.03703703703703704,14.814814814814817,0)"
           xlink:href="#bp"
           id="use404" />
      </g>
      <g
         id="ac">
        <use
           transform="matrix(0.03703703703703704,0,0,0.03703703703703704,0,0)"
           xlink:href="#bs"
           id="use405" />
        <use
           transform="matrix(0.03703703703703704,0,0,0.03703703703703704,7.407407407407408,0)"
           xlink:href="#bt"
           id="use406" />
        <use
           transform="matrix(0.03703703703703704,0,0,0.03703703703703704,11.111111111111112,0)"
           xlink:href="#bv"
           id="use407" />
        <use
           transform="matrix(0.03703703703703704,0,0,0.03703703703703704,18.51851851851852,0)"
           xlink:href="#bt"
           id="use408" />
        <use
           transform="matrix(0.03703703703703704,0,0,0.03703703703703704,22.22222222222222,0)"
           xlink:href="#bu"
           id="use409" />
        <path
           fill="#e81313"
           d="M-.67-4.27H30.3v1.4H-.68z"
           id="path409" />
      </g>
    </defs>
  </g>
</svg>
